%TF.GenerationSoftware,KiCad,Pcbnew,8.0.0*%
%TF.CreationDate,2024-03-10T10:49:14-04:00*%
%TF.ProjectId,Kiwi MKIII,4b697769-204d-44b4-9949-492e6b696361,rev?*%
%TF.SameCoordinates,Original*%
%TF.FileFunction,Profile,NP*%
%FSLAX46Y46*%
G04 Gerber Fmt 4.6, Leading zero omitted, Abs format (unit mm)*
G04 Created by KiCad (PCBNEW 8.0.0) date 2024-03-10 10:49:14*
%MOMM*%
%LPD*%
G01*
G04 APERTURE LIST*
%TA.AperFunction,Profile*%
%ADD10C,0.150000*%
%TD*%
G04 APERTURE END LIST*
D10*
X208629300Y-153555200D02*
X209429300Y-153555200D01*
X208629300Y-110005200D02*
X209429300Y-110005200D01*
X55379300Y-110042700D02*
X55379300Y-179239583D01*
X362679300Y-110042700D02*
X362679300Y-179239583D01*
X85129300Y-106042700D02*
X85129300Y-105242700D01*
X296929300Y-103242700D02*
X330929300Y-103242700D01*
X149629300Y-98480200D02*
G75*
G02*
X151629300Y-100480200I0J-2000000D01*
G01*
X266429300Y-101242700D02*
G75*
G02*
X264429300Y-103242700I-1999900J-100D01*
G01*
X208629300Y-153555200D02*
G75*
G02*
X206629300Y-155555200I-2000000J0D01*
G01*
X266429300Y-100480200D02*
G75*
G02*
X268429300Y-98480200I2000100J-100D01*
G01*
X57379300Y-108042700D02*
X83129300Y-108042700D01*
X330929300Y-103242700D02*
G75*
G02*
X332929300Y-105242700I0J-2000000D01*
G01*
X85129300Y-106042700D02*
G75*
G02*
X83129300Y-108042700I-2000000J0D01*
G01*
X264429300Y-103242700D02*
X249429300Y-103242700D01*
X121129300Y-103242700D02*
X87129300Y-103242700D01*
X170629300Y-105242700D02*
X170629300Y-106005200D01*
X123129300Y-101242700D02*
G75*
G02*
X121129300Y-103242700I-2000000J0D01*
G01*
X55379300Y-110042700D02*
G75*
G02*
X57379300Y-108042700I2000000J0D01*
G01*
X206629300Y-108005200D02*
G75*
G02*
X208629300Y-110005200I0J-2000000D01*
G01*
X362679300Y-179239583D02*
G75*
G02*
X349926659Y-188853267I-9999940J-77D01*
G01*
X247429300Y-105242700D02*
X247429300Y-106005200D01*
X184155870Y-155632678D02*
G75*
G02*
X184707145Y-155555197I551430J-1923522D01*
G01*
X247429300Y-105242700D02*
G75*
G02*
X249429300Y-103242700I2000100J-100D01*
G01*
X292929300Y-98480200D02*
G75*
G02*
X294929300Y-100480200I0J-2000000D01*
G01*
X296929300Y-103242700D02*
G75*
G02*
X294929300Y-101242700I0J2000000D01*
G01*
X206629300Y-155555200D02*
X184707145Y-155555200D01*
X209429300Y-110005200D02*
G75*
G02*
X211429300Y-108005200I2000100J-100D01*
G01*
X294929300Y-101242700D02*
X294929300Y-100480200D01*
X266429300Y-100480200D02*
X266429300Y-101242700D01*
X153629300Y-103242700D02*
G75*
G02*
X151629300Y-101242700I0J2000000D01*
G01*
X85129300Y-105242700D02*
G75*
G02*
X87129300Y-103242700I2000000J0D01*
G01*
X123129300Y-100480200D02*
G75*
G02*
X125129300Y-98480200I2000000J0D01*
G01*
X206629300Y-108005200D02*
X172629300Y-108005200D01*
X247429300Y-106005200D02*
G75*
G02*
X245429300Y-108005200I-1999900J-100D01*
G01*
X184155870Y-155632677D02*
X68131942Y-188853269D01*
X168629300Y-103242700D02*
G75*
G02*
X170629300Y-105242700I0J-2000000D01*
G01*
X125129300Y-98480200D02*
X149629300Y-98480200D01*
X68131942Y-188853269D02*
G75*
G02*
X55379304Y-179239583I-2752682J9613629D01*
G01*
X153629300Y-103242700D02*
X168629300Y-103242700D01*
X334929300Y-108042700D02*
G75*
G02*
X332929300Y-106042700I0J2000000D01*
G01*
X233902730Y-155632677D02*
X349926658Y-188853269D01*
X233351455Y-155555200D02*
G75*
G02*
X233902732Y-155632669I45J-1999900D01*
G01*
X211429300Y-155555200D02*
X233351455Y-155555200D01*
X211429300Y-108005200D02*
X245429300Y-108005200D01*
X123129300Y-101242700D02*
X123129300Y-100480200D01*
X332929300Y-106042700D02*
X332929300Y-105242700D01*
X360679300Y-108042700D02*
G75*
G02*
X362679300Y-110042700I0J-2000000D01*
G01*
X360679300Y-108042700D02*
X334929300Y-108042700D01*
X292929300Y-98480200D02*
X268429300Y-98480200D01*
X172629300Y-108005200D02*
G75*
G02*
X170629300Y-106005200I0J2000000D01*
G01*
X151629300Y-100480200D02*
X151629300Y-101242700D01*
X211429300Y-155555200D02*
G75*
G02*
X209429300Y-153555200I0J2000000D01*
G01*
M02*
