%TF.GenerationSoftware,KiCad,Pcbnew,8.0.0*%
%TF.CreationDate,2024-03-10T10:49:14-04:00*%
%TF.ProjectId,Kiwi MKIII,4b697769-204d-44b4-9949-492e6b696361,rev?*%
%TF.SameCoordinates,Original*%
%TF.FileFunction,Soldermask,Bot*%
%TF.FilePolarity,Negative*%
%FSLAX46Y46*%
G04 Gerber Fmt 4.6, Leading zero omitted, Abs format (unit mm)*
G04 Created by KiCad (PCBNEW 8.0.0) date 2024-03-10 10:49:14*
%MOMM*%
%LPD*%
G01*
G04 APERTURE LIST*
G04 Aperture macros list*
%AMRoundRect*
0 Rectangle with rounded corners*
0 $1 Rounding radius*
0 $2 $3 $4 $5 $6 $7 $8 $9 X,Y pos of 4 corners*
0 Add a 4 corners polygon primitive as box body*
4,1,4,$2,$3,$4,$5,$6,$7,$8,$9,$2,$3,0*
0 Add four circle primitives for the rounded corners*
1,1,$1+$1,$2,$3*
1,1,$1+$1,$4,$5*
1,1,$1+$1,$6,$7*
1,1,$1+$1,$8,$9*
0 Add four rect primitives between the rounded corners*
20,1,$1+$1,$2,$3,$4,$5,0*
20,1,$1+$1,$4,$5,$6,$7,0*
20,1,$1+$1,$6,$7,$8,$9,0*
20,1,$1+$1,$8,$9,$2,$3,0*%
%AMRotRect*
0 Rectangle, with rotation*
0 The origin of the aperture is its center*
0 $1 length*
0 $2 width*
0 $3 Rotation angle, in degrees counterclockwise*
0 Add horizontal line*
21,1,$1,$2,0,0,$3*%
G04 Aperture macros list end*
%ADD10C,1.900000*%
%ADD11C,3.050000*%
%ADD12C,3.450000*%
%ADD13RoundRect,0.250000X-1.025000X-1.000000X1.025000X-1.000000X1.025000X1.000000X-1.025000X1.000000X0*%
%ADD14C,0.900000*%
%ADD15R,1.000000X1.000000*%
%ADD16O,1.000000X1.000000*%
%ADD17RoundRect,0.250000X-1.260931X-0.678733X0.709656X-1.243790X1.260931X0.678733X-0.709656X1.243790X0*%
%ADD18RoundRect,0.250000X-0.709656X-1.243790X1.260931X-0.678733X0.709656X1.243790X-1.260931X0.678733X0*%
%ADD19R,1.600000X1.600000*%
%ADD20C,1.600000*%
%ADD21R,0.750000X1.200000*%
%ADD22RotRect,0.750000X1.200000X16.000000*%
%ADD23RotRect,0.750000X1.200000X344.000000*%
%ADD24RotRect,0.750000X1.200000X164.000000*%
G04 APERTURE END LIST*
D10*
%TO.C,SW203*%
X256129300Y-117492700D03*
D11*
X261629300Y-111592700D03*
D12*
X261629300Y-117492700D03*
D11*
X266629300Y-113692700D03*
D10*
X267129300Y-117492700D03*
D13*
X258129300Y-111492700D03*
X270129300Y-113692700D03*
%TD*%
D10*
%TO.C,SW209*%
X256129300Y-136542700D03*
D11*
X261629300Y-130642700D03*
D12*
X261629300Y-136542700D03*
D11*
X266629300Y-132742700D03*
D10*
X267129300Y-136542700D03*
D13*
X258129300Y-130542700D03*
X270129300Y-132742700D03*
%TD*%
D10*
%TO.C,SW310*%
X131879300Y-131780200D03*
D11*
X137379300Y-125880200D03*
D12*
X137379300Y-131780200D03*
D11*
X142379300Y-127980200D03*
D10*
X142879300Y-131780200D03*
D13*
X133879300Y-125780200D03*
X145879300Y-127980200D03*
%TD*%
D10*
%TO.C,SW303*%
X150929300Y-117492700D03*
D11*
X156429300Y-111592700D03*
D12*
X156429300Y-117492700D03*
D11*
X161429300Y-113692700D03*
D10*
X161929300Y-117492700D03*
D13*
X152929300Y-111492700D03*
X164929300Y-113692700D03*
%TD*%
D10*
%TO.C,SW201*%
X218029300Y-122255200D03*
D11*
X223529300Y-116355200D03*
D12*
X223529300Y-122255200D03*
D11*
X228529300Y-118455200D03*
D10*
X229029300Y-122255200D03*
D13*
X220029300Y-116255200D03*
X232029300Y-118455200D03*
%TD*%
D10*
%TO.C,SW207*%
X218029300Y-141305200D03*
D11*
X223529300Y-135405200D03*
D12*
X223529300Y-141305200D03*
D11*
X228529300Y-137505200D03*
D10*
X229029300Y-141305200D03*
D13*
X220029300Y-135305200D03*
X232029300Y-137505200D03*
%TD*%
D10*
%TO.C,SW208*%
X237079300Y-141305200D03*
D11*
X242579300Y-135405200D03*
D12*
X242579300Y-141305200D03*
D11*
X247579300Y-137505200D03*
D10*
X248079300Y-141305200D03*
D13*
X239079300Y-135305200D03*
X251079300Y-137505200D03*
%TD*%
D10*
%TO.C,SW302*%
X169979300Y-122255200D03*
D11*
X175479300Y-116355200D03*
D12*
X175479300Y-122255200D03*
D11*
X180479300Y-118455200D03*
D10*
X180979300Y-122255200D03*
D13*
X171979300Y-116255200D03*
X183979300Y-118455200D03*
%TD*%
D10*
%TO.C,SW212*%
X313279300Y-136542700D03*
D11*
X318779300Y-130642700D03*
D12*
X318779300Y-136542700D03*
D11*
X323779300Y-132742700D03*
D10*
X324279300Y-136542700D03*
D13*
X315279300Y-130542700D03*
X327279300Y-132742700D03*
%TD*%
D10*
%TO.C,SW305*%
X112829300Y-117492700D03*
D11*
X118329300Y-111592700D03*
D12*
X118329300Y-117492700D03*
D11*
X123329300Y-113692700D03*
D10*
X123829300Y-117492700D03*
D13*
X114829300Y-111492700D03*
X126829300Y-113692700D03*
%TD*%
D14*
%TO.C,SW315*%
X58624293Y-139480200D03*
X58624293Y-142480200D03*
%TD*%
D10*
%TO.C,SW206*%
X313279300Y-117492700D03*
D11*
X318779300Y-111592700D03*
D12*
X318779300Y-117492700D03*
D11*
X323779300Y-113692700D03*
D10*
X324279300Y-117492700D03*
D13*
X315279300Y-111492700D03*
X327279300Y-113692700D03*
%TD*%
D10*
%TO.C,SW304*%
X131879300Y-112730200D03*
D11*
X137379300Y-106830200D03*
D12*
X137379300Y-112730200D03*
D11*
X142379300Y-108930200D03*
D10*
X142879300Y-112730200D03*
D13*
X133879300Y-106730200D03*
X145879300Y-108930200D03*
%TD*%
D10*
%TO.C,SW309*%
X150929300Y-136542700D03*
D11*
X156429300Y-130642700D03*
D12*
X156429300Y-136542700D03*
D11*
X161429300Y-132742700D03*
D10*
X161929300Y-136542700D03*
D13*
X152929300Y-130542700D03*
X164929300Y-132742700D03*
%TD*%
D14*
%TO.C,SW215*%
X359434307Y-142480200D03*
X359434307Y-139480200D03*
%TD*%
D10*
%TO.C,SW202*%
X237079300Y-122255200D03*
D11*
X242579300Y-116355200D03*
D12*
X242579300Y-122255200D03*
D11*
X247579300Y-118455200D03*
D10*
X248079300Y-122255200D03*
D13*
X239079300Y-116255200D03*
X251079300Y-118455200D03*
%TD*%
D10*
%TO.C,SW307*%
X189029300Y-141305200D03*
D11*
X194529300Y-135405200D03*
D12*
X194529300Y-141305200D03*
D11*
X199529300Y-137505200D03*
D10*
X200029300Y-141305200D03*
D13*
X191029300Y-135305200D03*
X203029300Y-137505200D03*
%TD*%
D10*
%TO.C,SW311*%
X112829300Y-136542700D03*
D11*
X118329300Y-130642700D03*
D12*
X118329300Y-136542700D03*
D11*
X123329300Y-132742700D03*
D10*
X123829300Y-136542700D03*
D13*
X114829300Y-130542700D03*
X126829300Y-132742700D03*
%TD*%
D15*
%TO.C,BT201*%
X359779300Y-127542700D03*
D16*
X359779300Y-126272700D03*
%TD*%
D10*
%TO.C,SW205*%
X294229300Y-117492700D03*
D11*
X299729300Y-111592700D03*
D12*
X299729300Y-117492700D03*
D11*
X304729300Y-113692700D03*
D10*
X305229300Y-117492700D03*
D13*
X296229300Y-111492700D03*
X308229300Y-113692700D03*
%TD*%
D10*
%TO.C,SW214*%
X331804396Y-168838804D03*
D11*
X338717595Y-164683365D03*
D12*
X337091335Y-170354809D03*
D11*
X342945064Y-168080201D03*
D10*
X342378274Y-171870814D03*
D17*
X335380743Y-163622508D03*
X346309481Y-169044932D03*
%TD*%
D10*
%TO.C,SW313*%
X93992361Y-166633705D03*
D11*
X97653040Y-159446256D03*
D12*
X99279300Y-165117700D03*
D11*
X103038187Y-160086719D03*
D10*
X104566239Y-163601695D03*
D18*
X94261060Y-160314861D03*
X106402602Y-159121988D03*
%TD*%
D10*
%TO.C,SW308*%
X169979300Y-141305200D03*
D11*
X175479300Y-135405200D03*
D12*
X175479300Y-141305200D03*
D11*
X180479300Y-137505200D03*
D10*
X180979300Y-141305200D03*
D13*
X171979300Y-135305200D03*
X183979300Y-137505200D03*
%TD*%
D19*
%TO.C,U301*%
X56859300Y-134162700D03*
D20*
X59399300Y-134162700D03*
X61939300Y-134162700D03*
X64479300Y-134162700D03*
X67019300Y-134162700D03*
X69559300Y-134162700D03*
X72099300Y-134162700D03*
X74639300Y-134162700D03*
X77179300Y-134162700D03*
X79719300Y-134162700D03*
X82259300Y-134162700D03*
X84799300Y-134162700D03*
X84799300Y-118922700D03*
X82259300Y-118922700D03*
X79719300Y-118922700D03*
X77179300Y-118922700D03*
X74639300Y-118922700D03*
X72099300Y-118922700D03*
X69559300Y-118922700D03*
X67019300Y-118922700D03*
X64479300Y-118922700D03*
X61939300Y-118922700D03*
X59399300Y-118922700D03*
X56859300Y-118922700D03*
%TD*%
D10*
%TO.C,SW211*%
X294229300Y-136542700D03*
D11*
X299729300Y-130642700D03*
D12*
X299729300Y-136542700D03*
D11*
X304729300Y-132742700D03*
D10*
X305229300Y-136542700D03*
D13*
X296229300Y-130542700D03*
X308229300Y-132742700D03*
%TD*%
D10*
%TO.C,SW312*%
X93779300Y-136542700D03*
D11*
X99279300Y-130642700D03*
D12*
X99279300Y-136542700D03*
D11*
X104279300Y-132742700D03*
D10*
X104779300Y-136542700D03*
D13*
X95779300Y-130542700D03*
X107779300Y-132742700D03*
%TD*%
D10*
%TO.C,SW210*%
X275179300Y-131780200D03*
D11*
X280679300Y-125880200D03*
D12*
X280679300Y-131780200D03*
D11*
X285679300Y-127980200D03*
D10*
X286179300Y-131780200D03*
D13*
X277179300Y-125780200D03*
X289179300Y-127980200D03*
%TD*%
D15*
%TO.C,BT301*%
X58279293Y-127167700D03*
D16*
X58279293Y-125897700D03*
%TD*%
D10*
%TO.C,SW314*%
X75728389Y-171870815D03*
D11*
X79389068Y-164683366D03*
D12*
X81015328Y-170354810D03*
D11*
X84774215Y-165323829D03*
D10*
X86302267Y-168838805D03*
D18*
X75997088Y-165551971D03*
X88138630Y-164359098D03*
%TD*%
D10*
%TO.C,SW213*%
X313492361Y-163601695D03*
D11*
X320405560Y-159446256D03*
D12*
X318779300Y-165117700D03*
D11*
X324633029Y-162843092D03*
D10*
X324066239Y-166633705D03*
D17*
X317068708Y-158385399D03*
X327997446Y-163807823D03*
%TD*%
D10*
%TO.C,SW301*%
X189029300Y-122255200D03*
D11*
X194529300Y-116355200D03*
D12*
X194529300Y-122255200D03*
D11*
X199529300Y-118455200D03*
D10*
X200029300Y-122255200D03*
D13*
X191029300Y-116255200D03*
X203029300Y-118455200D03*
%TD*%
D19*
%TO.C,U201*%
X361199300Y-118922700D03*
D20*
X358659300Y-118922700D03*
X356119300Y-118922700D03*
X353579300Y-118922700D03*
X351039300Y-118922700D03*
X348499300Y-118922700D03*
X345959300Y-118922700D03*
X343419300Y-118922700D03*
X340879300Y-118922700D03*
X338339300Y-118922700D03*
X335799300Y-118922700D03*
X333259300Y-118922700D03*
X333259300Y-134162700D03*
X335799300Y-134162700D03*
X338339300Y-134162700D03*
X340879300Y-134162700D03*
X343419300Y-134162700D03*
X345959300Y-134162700D03*
X348499300Y-134162700D03*
X351039300Y-134162700D03*
X353579300Y-134162700D03*
X356119300Y-134162700D03*
X358659300Y-134162700D03*
X361199300Y-134162700D03*
%TD*%
D10*
%TO.C,SW204*%
X275179300Y-112730200D03*
D11*
X280679300Y-106830200D03*
D12*
X280679300Y-112730200D03*
D11*
X285679300Y-108930200D03*
D10*
X286179300Y-112730200D03*
D13*
X277179300Y-106730200D03*
X289179300Y-108930200D03*
%TD*%
D10*
%TO.C,SW306*%
X93779300Y-117492700D03*
D11*
X99279300Y-111592700D03*
D12*
X99279300Y-117492700D03*
D11*
X104279300Y-113692700D03*
D10*
X104779300Y-117492700D03*
D13*
X95779300Y-111492700D03*
X107779300Y-113692700D03*
%TD*%
D21*
%TO.C,D208*%
X252079300Y-145205200D03*
X252079300Y-141805200D03*
%TD*%
%TO.C,D206*%
X328279300Y-121392700D03*
X328279300Y-117992700D03*
%TD*%
%TO.C,D309*%
X165929300Y-140442700D03*
X165929300Y-137042700D03*
%TD*%
%TO.C,D301*%
X204029300Y-126155200D03*
X204029300Y-122755200D03*
%TD*%
%TO.C,D310*%
X146879300Y-135680200D03*
X146879300Y-132280200D03*
%TD*%
%TO.C,D312*%
X108779300Y-140442700D03*
X108779300Y-137042700D03*
%TD*%
%TO.C,D211*%
X309229300Y-140442700D03*
X309229300Y-137042700D03*
%TD*%
%TO.C,D201*%
X233029300Y-126155200D03*
X233029300Y-122755200D03*
%TD*%
%TO.C,D203*%
X271129300Y-121392700D03*
X271129300Y-117992700D03*
%TD*%
D22*
%TO.C,D314*%
X90983912Y-170738955D03*
X90046744Y-167470665D03*
%TD*%
D21*
%TO.C,D304*%
X146879300Y-116630200D03*
X146879300Y-113230200D03*
%TD*%
%TO.C,D202*%
X252079300Y-126155200D03*
X252079300Y-122755200D03*
%TD*%
%TO.C,D305*%
X127829300Y-121392700D03*
X127829300Y-117992700D03*
%TD*%
%TO.C,D205*%
X309229300Y-121392700D03*
X309229300Y-117992700D03*
%TD*%
%TO.C,D303*%
X165929300Y-121392700D03*
X165929300Y-117992700D03*
%TD*%
D22*
%TO.C,D313*%
X109183912Y-165488955D03*
X108246744Y-162220665D03*
%TD*%
D21*
%TO.C,D207*%
X233029300Y-145205200D03*
X233029300Y-141805200D03*
%TD*%
%TO.C,D311*%
X127829300Y-140442700D03*
X127829300Y-137042700D03*
%TD*%
%TO.C,D302*%
X184979300Y-126155200D03*
X184979300Y-122755200D03*
%TD*%
%TO.C,D307*%
X204029300Y-145205200D03*
X204029300Y-141805200D03*
%TD*%
%TO.C,D209*%
X271129300Y-140442700D03*
X271129300Y-137042700D03*
%TD*%
D23*
%TO.C,D213*%
X326528862Y-171441968D03*
X327466030Y-168173678D03*
%TD*%
D21*
%TO.C,D306*%
X108779300Y-121392700D03*
X108779300Y-117992700D03*
%TD*%
%TO.C,D210*%
X290179300Y-135680200D03*
X290179300Y-132280200D03*
%TD*%
D23*
%TO.C,D214*%
X344840897Y-176679077D03*
D24*
X345778065Y-173410787D03*
%TD*%
D21*
%TO.C,D308*%
X184979300Y-145205200D03*
X184979300Y-141805200D03*
%TD*%
%TO.C,D212*%
X328279300Y-140442700D03*
X328279300Y-137042700D03*
%TD*%
%TO.C,D204*%
X290179300Y-116630200D03*
X290179300Y-113230200D03*
%TD*%
M02*
