%TF.GenerationSoftware,KiCad,Pcbnew,8.0.0*%
%TF.CreationDate,2024-03-10T10:49:13-04:00*%
%TF.ProjectId,Kiwi MKIII,4b697769-204d-44b4-9949-492e6b696361,rev?*%
%TF.SameCoordinates,Original*%
%TF.FileFunction,Copper,L1,Top*%
%TF.FilePolarity,Positive*%
%FSLAX46Y46*%
G04 Gerber Fmt 4.6, Leading zero omitted, Abs format (unit mm)*
G04 Created by KiCad (PCBNEW 8.0.0) date 2024-03-10 10:49:13*
%MOMM*%
%LPD*%
G01*
G04 APERTURE LIST*
%TA.AperFunction,SMDPad,CuDef*%
%ADD10R,0.800000X1.000000*%
%TD*%
%TA.AperFunction,SMDPad,CuDef*%
%ADD11R,1.500000X0.700000*%
%TD*%
%TA.AperFunction,ComponentPad*%
%ADD12R,1.000000X1.000000*%
%TD*%
%TA.AperFunction,ComponentPad*%
%ADD13O,1.000000X1.000000*%
%TD*%
%TA.AperFunction,ComponentPad*%
%ADD14R,1.600000X1.600000*%
%TD*%
%TA.AperFunction,ComponentPad*%
%ADD15C,1.600000*%
%TD*%
%TA.AperFunction,ViaPad*%
%ADD16C,0.685800*%
%TD*%
%TA.AperFunction,Conductor*%
%ADD17C,0.250000*%
%TD*%
%TA.AperFunction,Conductor*%
%ADD18C,0.127000*%
%TD*%
G04 APERTURE END LIST*
D10*
%TO.P,SW315,*%
%TO.N,*%
X59734293Y-137330200D03*
X57524293Y-137330200D03*
X59734293Y-144630200D03*
X57524293Y-144630200D03*
D11*
%TO.P,SW315,1,A*%
%TO.N,unconnected-(SW315-A-Pad1)*%
X60384293Y-138730200D03*
%TO.P,SW315,2,B*%
%TO.N,GND3*%
X60384293Y-141730200D03*
%TO.P,SW315,3,C*%
%TO.N,Net-(BT301--)*%
X60384293Y-143230200D03*
%TD*%
D10*
%TO.P,SW215,*%
%TO.N,*%
X358324307Y-144630200D03*
X360534307Y-144630200D03*
X358324307Y-137330200D03*
X360534307Y-137330200D03*
D11*
%TO.P,SW215,1,A*%
%TO.N,unconnected-(SW215-A-Pad1)*%
X357674307Y-143230200D03*
%TO.P,SW215,2,B*%
%TO.N,GND2*%
X357674307Y-140230200D03*
%TO.P,SW215,3,C*%
%TO.N,Net-(BT201--)*%
X357674307Y-138730200D03*
%TD*%
D12*
%TO.P,BT201,1,+*%
%TO.N,Net-(BT201-+)*%
X359779300Y-127542700D03*
D13*
%TO.P,BT201,2,-*%
%TO.N,Net-(BT201--)*%
X359779300Y-126272700D03*
%TD*%
D14*
%TO.P,U301,1,TX*%
%TO.N,unconnected-(U301-TX-Pad1)*%
X56859300Y-134162700D03*
D15*
%TO.P,U301,2,RX*%
%TO.N,unconnected-(U301-RX-Pad2)*%
X59399300Y-134162700D03*
%TO.P,U301,3,GND*%
%TO.N,GND3*%
X61939300Y-134162700D03*
%TO.P,U301,4,GND*%
X64479300Y-134162700D03*
%TO.P,U301,5,SDA*%
%TO.N,unconnected-(U301-SDA-Pad5)*%
X67019300Y-134162700D03*
%TO.P,U301,6,SCL*%
%TO.N,unconnected-(U301-SCL-Pad6)*%
X69559300Y-134162700D03*
%TO.P,U301,7,D4*%
%TO.N,Row 5*%
X72099300Y-134162700D03*
%TO.P,U301,8,C6*%
%TO.N,Row 4*%
X74639300Y-134162700D03*
%TO.P,U301,9,D7*%
%TO.N,Row 3*%
X77179300Y-134162700D03*
%TO.P,U301,10,E6*%
%TO.N,unconnected-(U301-E6-Pad10)*%
X79719300Y-134162700D03*
%TO.P,U301,11,B4*%
%TO.N,unconnected-(U301-B4-Pad11)*%
X82259300Y-134162700D03*
%TO.P,U301,12,B5*%
%TO.N,unconnected-(U301-B5-Pad12)*%
X84799300Y-134162700D03*
%TO.P,U301,13,B6*%
%TO.N,COLUMN 11*%
X84799300Y-118922700D03*
%TO.P,U301,14,B2*%
%TO.N,COLUMN 10*%
X82259300Y-118922700D03*
%TO.P,U301,15,B3*%
%TO.N,COLUMN 9*%
X79719300Y-118922700D03*
%TO.P,U301,16,B1*%
%TO.N,COLUMN 8*%
X77179300Y-118922700D03*
%TO.P,U301,17,F7*%
%TO.N,COLUMN 7*%
X74639300Y-118922700D03*
%TO.P,U301,18,F6*%
%TO.N,COLUMN 6*%
X72099300Y-118922700D03*
%TO.P,U301,19,F5*%
%TO.N,unconnected-(U301-F5-Pad19)*%
X69559300Y-118922700D03*
%TO.P,U301,20,F4*%
%TO.N,unconnected-(U301-F4-Pad20)*%
X67019300Y-118922700D03*
%TO.P,U301,21,VCC*%
%TO.N,unconnected-(U301-VCC-Pad21)*%
X64479300Y-118922700D03*
%TO.P,U301,22,RST*%
%TO.N,unconnected-(U301-RST-Pad22)*%
X61939300Y-118922700D03*
%TO.P,U301,23,GND*%
%TO.N,GND3*%
X59399300Y-118922700D03*
%TO.P,U301,24,RAW*%
%TO.N,Net-(BT301-+)*%
X56859300Y-118922700D03*
%TD*%
D12*
%TO.P,BT301,1,+*%
%TO.N,Net-(BT301-+)*%
X58279293Y-127167700D03*
D13*
%TO.P,BT301,2,-*%
%TO.N,Net-(BT301--)*%
X58279293Y-125897700D03*
%TD*%
D14*
%TO.P,U201,1,TX*%
%TO.N,unconnected-(U201-TX-Pad1)*%
X361199300Y-118922700D03*
D15*
%TO.P,U201,2,RX*%
%TO.N,unconnected-(U201-RX-Pad2)*%
X358659300Y-118922700D03*
%TO.P,U201,3,GND*%
%TO.N,GND2*%
X356119300Y-118922700D03*
%TO.P,U201,4,GND*%
X353579300Y-118922700D03*
%TO.P,U201,5,SDA*%
%TO.N,unconnected-(U201-SDA-Pad5)*%
X351039300Y-118922700D03*
%TO.P,U201,6,SCL*%
%TO.N,unconnected-(U201-SCL-Pad6)*%
X348499300Y-118922700D03*
%TO.P,U201,7,D4*%
%TO.N,COLUMN 0*%
X345959300Y-118922700D03*
%TO.P,U201,8,C6*%
%TO.N,COLUMN 1*%
X343419300Y-118922700D03*
%TO.P,U201,9,D7*%
%TO.N,COLUMN 2*%
X340879300Y-118922700D03*
%TO.P,U201,10,E6*%
%TO.N,COLUMN 3*%
X338339300Y-118922700D03*
%TO.P,U201,11,B4*%
%TO.N,COLUMN 4*%
X335799300Y-118922700D03*
%TO.P,U201,12,B5*%
%TO.N,COLUMN 5*%
X333259300Y-118922700D03*
%TO.P,U201,13,B6*%
%TO.N,unconnected-(U201-B6-Pad13)*%
X333259300Y-134162700D03*
%TO.P,U201,14,B2*%
%TO.N,unconnected-(U201-B2-Pad14)*%
X335799300Y-134162700D03*
%TO.P,U201,15,B3*%
%TO.N,unconnected-(U201-B3-Pad15)*%
X338339300Y-134162700D03*
%TO.P,U201,16,B1*%
%TO.N,unconnected-(U201-B1-Pad16)*%
X340879300Y-134162700D03*
%TO.P,U201,17,F7*%
%TO.N,Row 0*%
X343419300Y-134162700D03*
%TO.P,U201,18,F6*%
%TO.N,Row 1*%
X345959300Y-134162700D03*
%TO.P,U201,19,F5*%
%TO.N,Row 2*%
X348499300Y-134162700D03*
%TO.P,U201,20,F4*%
%TO.N,unconnected-(U201-F4-Pad20)*%
X351039300Y-134162700D03*
%TO.P,U201,21,VCC*%
%TO.N,unconnected-(U201-VCC-Pad21)*%
X353579300Y-134162700D03*
%TO.P,U201,22,RST*%
%TO.N,unconnected-(U201-RST-Pad22)*%
X356119300Y-134162700D03*
%TO.P,U201,23,GND*%
%TO.N,GND2*%
X358659300Y-134162700D03*
%TO.P,U201,24,RAW*%
%TO.N,Net-(BT201-+)*%
X361199300Y-134162700D03*
%TD*%
D16*
%TO.N,Row 0*%
X252029300Y-128155200D03*
X309229300Y-123442700D03*
X233029300Y-128155200D03*
X290229300Y-123442700D03*
X271129300Y-123442700D03*
X328279300Y-123392700D03*
%TO.N,Row 1*%
X290179300Y-137630200D03*
X252029300Y-147155200D03*
X233029300Y-147155200D03*
X328279300Y-142392700D03*
X271129300Y-142442700D03*
X309229300Y-142442700D03*
%TO.N,Row 2*%
X326528862Y-173441968D03*
X344840897Y-178679077D03*
%TO.N,Row 3*%
X204029300Y-128155200D03*
X108829300Y-123442700D03*
X146929300Y-123442700D03*
X166029300Y-128155200D03*
X127829300Y-123442700D03*
X185029300Y-128155200D03*
%TO.N,Row 4*%
X185029300Y-147155200D03*
X127829300Y-142441993D03*
X146929300Y-142442700D03*
X166029300Y-147155200D03*
X108829300Y-142442700D03*
X204029300Y-147155200D03*
%TO.N,Row 5*%
X72099300Y-173172700D03*
%TD*%
D17*
%TO.N,Row 4*%
X123067153Y-142442346D02*
G75*
G02*
X123066300Y-142442701I-853J846D01*
G01*
X123068006Y-142441993D02*
G75*
G03*
X123067150Y-142442343I-6J-1207D01*
G01*
X74639300Y-134932700D02*
G75*
G03*
X75183781Y-136247163I1858900J0D01*
G01*
X150048008Y-145561406D02*
G75*
G03*
X153895763Y-147155210I3847792J3847806D01*
G01*
X79785508Y-140848906D02*
G75*
G03*
X83633263Y-142442710I3847792J3847806D01*
G01*
X129029653Y-142442346D02*
G75*
G03*
X129028800Y-142441993I-853J-854D01*
G01*
X129029653Y-142442346D02*
G75*
G03*
X129030506Y-142442697I847J846D01*
G01*
%TO.N,Row 3*%
X91099300Y-132366648D02*
G75*
G02*
X89829286Y-135432686I-4336100J48D01*
G01*
X144523073Y-121036473D02*
G75*
G03*
X140675317Y-119442660I-3847773J-3847727D01*
G01*
X77179300Y-134995593D02*
G75*
G03*
X77679298Y-136202702I1707100J-7D01*
G01*
X77679300Y-136202700D02*
G75*
G03*
X78886406Y-136702697I1207100J1207100D01*
G01*
X127846986Y-123374987D02*
G75*
G03*
X127829294Y-123417687I42714J-42713D01*
G01*
X94035523Y-123442700D02*
G75*
G03*
X91959293Y-124302693I-23J-2936200D01*
G01*
X91959300Y-124302700D02*
G75*
G03*
X91099310Y-126378923I2076200J-2076200D01*
G01*
X134033256Y-119442681D02*
G75*
G03*
X130185529Y-121036502I44J-5441519D01*
G01*
X89829300Y-135432700D02*
G75*
G02*
X86763248Y-136702720I-3066100J3066100D01*
G01*
X162910591Y-125036493D02*
G75*
G03*
X159062836Y-123442690I-3847791J-3847807D01*
G01*
%TO.N,GND3*%
X61939300Y-139075637D02*
G75*
G02*
X61161786Y-140952686I-2654600J37D01*
G01*
X60669300Y-120192700D02*
G75*
G02*
X61939320Y-123258751I-3066100J-3066100D01*
G01*
X60614100Y-141500392D02*
G75*
G02*
X60059296Y-141730200I-554800J554792D01*
G01*
%TO.N,GND2*%
X356400912Y-136921112D02*
G75*
G03*
X355979289Y-137938959I1017888J-1017888D01*
G01*
X357199300Y-135260060D02*
G75*
G02*
X356589332Y-136732751I-2082700J-40D01*
G01*
X360017669Y-138896838D02*
G75*
G02*
X360259304Y-139480200I-583369J-583362D01*
G01*
X355979307Y-137938959D02*
G75*
G03*
X356400883Y-138956834I1439493J-41D01*
G01*
X356659300Y-119462700D02*
G75*
G03*
X355355624Y-118922690I-1303700J-1303700D01*
G01*
X356659300Y-119462700D02*
G75*
G02*
X357199310Y-120766375I-1303700J-1303700D01*
G01*
X360017670Y-140063562D02*
G75*
G02*
X359434306Y-140305204I-583370J583362D01*
G01*
X359776033Y-138313473D02*
G75*
G03*
X360017664Y-138896843I824967J-27D01*
G01*
X359217666Y-134721066D02*
G75*
G02*
X359776030Y-136069082I-1348066J-1348034D01*
G01*
X357711807Y-140267700D02*
G75*
G03*
X357802340Y-140305181I90493J90500D01*
G01*
X360259307Y-139480200D02*
G75*
G02*
X360017672Y-140063564I-825007J0D01*
G01*
%TO.N,Net-(BT301-+)*%
X56859300Y-124743615D02*
G75*
G03*
X57569306Y-126457701I2424100J15D01*
G01*
X58146718Y-127035127D02*
G75*
G02*
X58279284Y-127355203I-320118J-320073D01*
G01*
%TO.N,Net-(BT301--)*%
X56729301Y-136442701D02*
G75*
G03*
X56429286Y-137166964I724299J-724299D01*
G01*
X58634607Y-125948007D02*
G75*
G03*
X58410550Y-125855246I-224007J-224093D01*
G01*
X57453564Y-136142700D02*
G75*
G03*
X56729311Y-136442711I36J-1024300D01*
G01*
X56429300Y-142344952D02*
G75*
G03*
X56710536Y-143023964I960200J-48D01*
G01*
X56710550Y-143023950D02*
G75*
G03*
X57389547Y-143305180I678950J678950D01*
G01*
X59610546Y-126923946D02*
G75*
G02*
X60679283Y-129504128I-2580146J-2580154D01*
G01*
X60679293Y-133117297D02*
G75*
G02*
X59793172Y-135256579I-3025393J-3D01*
G01*
X60346793Y-143267700D02*
G75*
G02*
X60256259Y-143305181I-90493J90500D01*
G01*
X59570938Y-135478814D02*
G75*
G02*
X57968176Y-136142667I-1602738J1602814D01*
G01*
%TO.N,Net-(BT201-+)*%
X360489300Y-128252700D02*
G75*
G02*
X361199303Y-129966791I-1714100J-1714100D01*
G01*
%TO.N,Net-(BT201--)*%
X359425747Y-126272700D02*
G75*
G03*
X358822182Y-126522687I-47J-853500D01*
G01*
X357599300Y-138102858D02*
G75*
G03*
X357783032Y-138546468I627300J-42D01*
G01*
X358335747Y-127009147D02*
G75*
G03*
X357599295Y-128787087I1777953J-1777953D01*
G01*
%TO.N,Row 2*%
X348499300Y-172766710D02*
G75*
G02*
X346905513Y-176614472I-5441600J10D01*
G01*
X327684879Y-177523059D02*
G75*
G03*
X330475752Y-178679114I2790921J2790859D01*
G01*
X326528862Y-174904505D02*
G75*
G03*
X327563042Y-177401200I3530838J5D01*
G01*
%TO.N,Row 1*%
X293398008Y-140848906D02*
G75*
G03*
X297245763Y-142442710I3847792J3847806D01*
G01*
X328254300Y-142417700D02*
G75*
G02*
X328193944Y-142442718I-60400J60400D01*
G01*
X341573092Y-140798907D02*
G75*
G02*
X337725336Y-142392710I-3847792J3847807D01*
G01*
X345959300Y-135287700D02*
G75*
G02*
X345163807Y-137208198I-2716000J0D01*
G01*
X286960592Y-140848907D02*
G75*
G02*
X283112836Y-142442710I-3847792J3847807D01*
G01*
X268010592Y-145561407D02*
G75*
G02*
X264162836Y-147155210I-3847792J3847807D01*
G01*
%TO.N,Row 0*%
X330729300Y-134985593D02*
G75*
G03*
X331229298Y-136192702I1707100J-7D01*
G01*
X343049299Y-136322699D02*
G75*
G02*
X342156040Y-136692716I-893299J893299D01*
G01*
X343419300Y-135429440D02*
G75*
G02*
X343049288Y-136322688I-1263300J40D01*
G01*
X331229300Y-136192700D02*
G75*
G03*
X332436406Y-136692697I1207100J1207100D01*
G01*
X328254300Y-123417700D02*
G75*
G02*
X328193944Y-123442718I-60400J60400D01*
G01*
X329504300Y-124617700D02*
G75*
G02*
X330729295Y-127575111I-2957400J-2957400D01*
G01*
X287935611Y-121149011D02*
G75*
G03*
X284087855Y-119555260I-3847711J-3847789D01*
G01*
X277270744Y-119555219D02*
G75*
G03*
X273422960Y-121148983I-44J-5441581D01*
G01*
X268010592Y-126561407D02*
G75*
G02*
X264162836Y-128155210I-3847792J3847807D01*
G01*
X284087855Y-119555219D02*
X277270744Y-119555219D01*
X328279300Y-123392700D02*
X328254300Y-123417700D01*
X271129300Y-123442700D02*
X268010592Y-126561407D01*
X287935611Y-121149011D02*
X290229300Y-123442700D01*
X330729300Y-134985593D02*
X330729300Y-127575111D01*
X343419300Y-135429440D02*
X343419300Y-134162700D01*
X328193944Y-123442700D02*
X309229300Y-123442700D01*
X252029300Y-128155200D02*
X233029300Y-128155200D01*
X342156040Y-136692700D02*
X332436406Y-136692700D01*
X271129300Y-123442700D02*
X273422988Y-121149011D01*
X309229300Y-123442700D02*
X290229300Y-123442700D01*
X252029300Y-128155200D02*
X264162836Y-128155200D01*
X328279300Y-123392700D02*
X329504300Y-124617700D01*
%TO.N,Row 1*%
X264162836Y-147155200D02*
X252029300Y-147155200D01*
X290179300Y-137630200D02*
X286960592Y-140848907D01*
X345959300Y-135287700D02*
X345959300Y-134162700D01*
X271129300Y-142442700D02*
X283112836Y-142442700D01*
X341573092Y-140798907D02*
X345163804Y-137208195D01*
X328279300Y-142392700D02*
X328254300Y-142417700D01*
X271129300Y-142442700D02*
X268010592Y-145561407D01*
X328193944Y-142442700D02*
X309229300Y-142442700D01*
X293398007Y-140848907D02*
X290179300Y-137630200D01*
X297245763Y-142442700D02*
X309229300Y-142442700D01*
X252029300Y-147155200D02*
X233029300Y-147155200D01*
X328279300Y-142392700D02*
X337725336Y-142392700D01*
%TO.N,Row 2*%
X348499300Y-172766710D02*
X348499300Y-134162700D01*
X330475752Y-178679077D02*
X344840897Y-178679077D01*
X346905507Y-176614466D02*
X344840897Y-178679077D01*
X326528862Y-173441968D02*
X326528862Y-174904505D01*
X327684879Y-177523059D02*
X327563031Y-177401211D01*
%TO.N,Net-(BT201--)*%
X357783044Y-138546456D02*
X357966788Y-138730200D01*
X357599300Y-138102858D02*
X357599300Y-128787087D01*
X359425747Y-126272700D02*
X359779300Y-126272700D01*
X358822194Y-126522699D02*
X358335747Y-127009147D01*
%TO.N,Net-(BT201-+)*%
X361199300Y-129966791D02*
X361199300Y-134162700D01*
X360489300Y-128252700D02*
X359779300Y-127542700D01*
%TO.N,Net-(BT301--)*%
X59793172Y-135256579D02*
X59570938Y-135478814D01*
X60346793Y-143267700D02*
X60384293Y-143230200D01*
X57453564Y-136142700D02*
X57968176Y-136142700D01*
X60679293Y-129504128D02*
X60679293Y-133117297D01*
X58410550Y-125855200D02*
X58279300Y-125855200D01*
X58634607Y-125948007D02*
X59610546Y-126923946D01*
X57389547Y-143305200D02*
X60256259Y-143305200D01*
X56429300Y-137166964D02*
X56429300Y-142344952D01*
%TO.N,Net-(BT301-+)*%
X56859300Y-124743615D02*
X56859300Y-118922700D01*
X58279300Y-127355203D02*
X58279300Y-127542700D01*
X57569300Y-126457707D02*
X58146719Y-127035126D01*
%TO.N,GND2*%
X359776033Y-138313473D02*
X359776033Y-136069082D01*
X357199300Y-135260060D02*
X357199300Y-120766375D01*
D18*
X357674307Y-140230200D02*
X357674307Y-140160448D01*
D17*
X357674307Y-140230200D02*
X357711807Y-140267700D01*
X355355624Y-118922700D02*
X353579300Y-118922700D01*
X359434306Y-140305200D02*
X357802340Y-140305200D01*
X357674307Y-140230200D02*
X356400912Y-138956805D01*
X359217666Y-134721066D02*
X358659300Y-134162700D01*
X356400912Y-136921112D02*
X356589303Y-136732722D01*
%TO.N,GND3*%
X61939300Y-134162700D02*
X61939300Y-139075637D01*
X60059296Y-141730200D02*
X59734300Y-141730200D01*
X61939300Y-134162700D02*
X61939300Y-123258751D01*
X60669300Y-120192700D02*
X59399300Y-118922700D01*
X61161796Y-140952696D02*
X60614100Y-141500392D01*
X61939300Y-134162700D02*
X64479300Y-134162700D01*
%TO.N,Row 3*%
X204029300Y-128155200D02*
X185029300Y-128155200D01*
X108829300Y-123442700D02*
X94035523Y-123442700D01*
X91099300Y-132366648D02*
X91099300Y-126378923D01*
X166029300Y-128155200D02*
X162910592Y-125036492D01*
X144523073Y-121036473D02*
X146929300Y-123442700D01*
X108829300Y-123442700D02*
X108779300Y-123392700D01*
X127829300Y-123417687D02*
X127829300Y-123442700D01*
X140675317Y-119442681D02*
X134033256Y-119442681D01*
X77179300Y-134995593D02*
X77179300Y-134162700D01*
X185029300Y-128155200D02*
X166029300Y-128155200D01*
X146929300Y-123442700D02*
X159062836Y-123442700D01*
X78886406Y-136702700D02*
X86763248Y-136702700D01*
X108829300Y-123442700D02*
X127829300Y-123442700D01*
X127846986Y-123374987D02*
X130185500Y-121036473D01*
%TO.N,Row 4*%
X123068006Y-142441993D02*
X127829300Y-142441993D01*
X108829300Y-142442700D02*
X83633263Y-142442700D01*
X129028800Y-142441993D02*
X127829300Y-142441993D01*
X146929300Y-142442700D02*
X129030506Y-142442700D01*
X153895763Y-147155200D02*
X166029300Y-147155200D01*
X185029300Y-147155200D02*
X166029300Y-147155200D01*
X75183772Y-136247172D02*
X79785507Y-140848907D01*
X74639300Y-134932700D02*
X74639300Y-134162700D01*
X204029300Y-147155200D02*
X185029300Y-147155200D01*
X150048007Y-145561407D02*
X146929300Y-142442700D01*
X108829300Y-142442700D02*
X123066300Y-142442700D01*
%TO.N,Row 5*%
X72099300Y-173172700D02*
X72099300Y-134162700D01*
%TD*%
%TA.AperFunction,Conductor*%
%TO.N,Row 4*%
G36*
X75368088Y-134464563D02*
G01*
X75374414Y-134470900D01*
X75374603Y-134479349D01*
X74938495Y-135684432D01*
X74932457Y-135691046D01*
X74931970Y-135691260D01*
X74715006Y-135781130D01*
X74706052Y-135781130D01*
X74700550Y-135776429D01*
X74644240Y-135684432D01*
X73907333Y-134480508D01*
X73905938Y-134471665D01*
X73911205Y-134464423D01*
X73912815Y-134463601D01*
X74634431Y-134163641D01*
X74643382Y-134163631D01*
X75368088Y-134464563D01*
G37*
%TD.AperFunction*%
%TD*%
%TA.AperFunction,Conductor*%
%TO.N,GND2*%
G36*
X356854689Y-118621793D02*
G01*
X356861013Y-118628133D01*
X356861580Y-118629886D01*
X357213893Y-120108914D01*
X357212476Y-120117756D01*
X357206988Y-120122434D01*
X356990020Y-120212307D01*
X356981066Y-120212307D01*
X356980554Y-120212081D01*
X355823232Y-119666555D01*
X355817210Y-119659928D01*
X355817407Y-119651505D01*
X356117062Y-118926267D01*
X356123386Y-118919932D01*
X356845735Y-118621782D01*
X356854689Y-118621793D01*
G37*
%TD.AperFunction*%
%TD*%
%TA.AperFunction,Conductor*%
%TO.N,GND2*%
G36*
X359394806Y-133861744D02*
G01*
X359401130Y-133868084D01*
X359401671Y-133869732D01*
X359766628Y-135341610D01*
X359765293Y-135350465D01*
X359759749Y-135355235D01*
X359542807Y-135445096D01*
X359533853Y-135445096D01*
X359533439Y-135444916D01*
X358363370Y-134906505D01*
X358357287Y-134899933D01*
X358357448Y-134891408D01*
X358657062Y-134166267D01*
X358663386Y-134159932D01*
X359385854Y-133861733D01*
X359394806Y-133861744D01*
G37*
%TD.AperFunction*%
%TD*%
%TA.AperFunction,Conductor*%
%TO.N,Net-(BT201--)*%
G36*
X359432877Y-125926249D02*
G01*
X359673988Y-126166398D01*
X359776569Y-126268570D01*
X359780012Y-126276837D01*
X359780012Y-126276877D01*
X359779320Y-126758492D01*
X359775881Y-126766760D01*
X359767603Y-126770175D01*
X359765359Y-126769954D01*
X358922399Y-126603929D01*
X358916232Y-126600566D01*
X358754611Y-126432731D01*
X358751341Y-126424394D01*
X358754923Y-126416187D01*
X358756066Y-126415219D01*
X359417660Y-125925137D01*
X359426345Y-125922968D01*
X359432877Y-125926249D01*
G37*
%TD.AperFunction*%
%TD*%
%TA.AperFunction,Conductor*%
%TO.N,Net-(BT201--)*%
G36*
X357726972Y-138056477D02*
G01*
X357727813Y-138057414D01*
X357981399Y-138372472D01*
X357983917Y-138381065D01*
X357981013Y-138387599D01*
X357682120Y-138722446D01*
X357674055Y-138726336D01*
X357665601Y-138723383D01*
X357665576Y-138723361D01*
X357290445Y-138386569D01*
X357286578Y-138378492D01*
X357288155Y-138371966D01*
X357470914Y-138058852D01*
X357478044Y-138053434D01*
X357481019Y-138053050D01*
X357718699Y-138053050D01*
X357726972Y-138056477D01*
G37*
%TD.AperFunction*%
%TD*%
%TA.AperFunction,Conductor*%
%TO.N,Row 0*%
G36*
X270822668Y-123315657D02*
G01*
X271125490Y-123440136D01*
X271131839Y-123446451D01*
X271131863Y-123446509D01*
X271256342Y-123749331D01*
X271256318Y-123758285D01*
X271250636Y-123764302D01*
X270740250Y-124012379D01*
X270731311Y-124012913D01*
X270726862Y-124010129D01*
X270561870Y-123845137D01*
X270558443Y-123836864D01*
X270559618Y-123831754D01*
X270807697Y-123321362D01*
X270814396Y-123315421D01*
X270822668Y-123315657D01*
G37*
%TD.AperFunction*%
%TD*%
%TA.AperFunction,Conductor*%
%TO.N,Row 0*%
G36*
X289840246Y-122873019D02*
G01*
X290285677Y-123089523D01*
X290350636Y-123121097D01*
X290356578Y-123127796D01*
X290356342Y-123136068D01*
X290231863Y-123438890D01*
X290225548Y-123445239D01*
X290225490Y-123445263D01*
X289922668Y-123569742D01*
X289913714Y-123569718D01*
X289907697Y-123564036D01*
X289876123Y-123499077D01*
X289659619Y-123053647D01*
X289659086Y-123044711D01*
X289661868Y-123040264D01*
X289826863Y-122875269D01*
X289835135Y-122871843D01*
X289840246Y-122873019D01*
G37*
%TD.AperFunction*%
%TD*%
%TA.AperFunction,Conductor*%
%TO.N,Row 0*%
G36*
X344146778Y-134464014D02*
G01*
X344153102Y-134470354D01*
X344153091Y-134479309D01*
X344152733Y-134480087D01*
X343509876Y-135754510D01*
X343503091Y-135760354D01*
X343495814Y-135760368D01*
X343272345Y-135687754D01*
X343265536Y-135681938D01*
X343265424Y-135681712D01*
X342685573Y-134479991D01*
X342685064Y-134471050D01*
X342691025Y-134464369D01*
X342691607Y-134464107D01*
X343415120Y-134163612D01*
X343424071Y-134163604D01*
X344146778Y-134464014D01*
G37*
%TD.AperFunction*%
%TD*%
%TA.AperFunction,Conductor*%
%TO.N,Row 0*%
G36*
X328152582Y-123086702D02*
G01*
X328152686Y-123086944D01*
X328278419Y-123388194D01*
X328278443Y-123397148D01*
X328278419Y-123397206D01*
X328151991Y-123700121D01*
X328145642Y-123706436D01*
X328138246Y-123706938D01*
X327612198Y-123569978D01*
X327605055Y-123564577D01*
X327603446Y-123558655D01*
X327603446Y-123325306D01*
X327606873Y-123317033D01*
X327610395Y-123314614D01*
X328137142Y-123080756D01*
X328146093Y-123080532D01*
X328152582Y-123086702D01*
G37*
%TD.AperFunction*%
%TD*%
%TA.AperFunction,Conductor*%
%TO.N,Row 0*%
G36*
X309907224Y-123314976D02*
G01*
X309913923Y-123320918D01*
X309915100Y-123326033D01*
X309915100Y-123559366D01*
X309911673Y-123567639D01*
X309907224Y-123570423D01*
X309370909Y-123755905D01*
X309361970Y-123755371D01*
X309356288Y-123749354D01*
X309230179Y-123447204D01*
X309230156Y-123438252D01*
X309356289Y-123136043D01*
X309362637Y-123129730D01*
X309370908Y-123129494D01*
X309907224Y-123314976D01*
G37*
%TD.AperFunction*%
%TD*%
%TA.AperFunction,Conductor*%
%TO.N,Row 0*%
G36*
X233707224Y-128027476D02*
G01*
X233713923Y-128033418D01*
X233715100Y-128038533D01*
X233715100Y-128271866D01*
X233711673Y-128280139D01*
X233707224Y-128282923D01*
X233170909Y-128468405D01*
X233161970Y-128467871D01*
X233156288Y-128461854D01*
X233030179Y-128159704D01*
X233030156Y-128150752D01*
X233156289Y-127848543D01*
X233162637Y-127842230D01*
X233170908Y-127841994D01*
X233707224Y-128027476D01*
G37*
%TD.AperFunction*%
%TD*%
%TA.AperFunction,Conductor*%
%TO.N,Row 0*%
G36*
X251896629Y-127842528D02*
G01*
X251902311Y-127848545D01*
X252028419Y-128150694D01*
X252028443Y-128159648D01*
X252028419Y-128159706D01*
X251902311Y-128461854D01*
X251895962Y-128468169D01*
X251887690Y-128468405D01*
X251351376Y-128282923D01*
X251344677Y-128276981D01*
X251343500Y-128271866D01*
X251343500Y-128038533D01*
X251346927Y-128030260D01*
X251351376Y-128027476D01*
X251887691Y-127841994D01*
X251896629Y-127842528D01*
G37*
%TD.AperFunction*%
%TD*%
%TA.AperFunction,Conductor*%
%TO.N,Row 0*%
G36*
X271531737Y-122875270D02*
G01*
X271696729Y-123040262D01*
X271700156Y-123048535D01*
X271698979Y-123053650D01*
X271450902Y-123564036D01*
X271444203Y-123569978D01*
X271435931Y-123569742D01*
X271133109Y-123445263D01*
X271126760Y-123438948D01*
X271126736Y-123438890D01*
X271002257Y-123136068D01*
X271002281Y-123127114D01*
X271007962Y-123121097D01*
X271518352Y-122873019D01*
X271527288Y-122872486D01*
X271531737Y-122875270D01*
G37*
%TD.AperFunction*%
%TD*%
%TA.AperFunction,Conductor*%
%TO.N,Row 0*%
G36*
X290907224Y-123314976D02*
G01*
X290913923Y-123320918D01*
X290915100Y-123326033D01*
X290915100Y-123559366D01*
X290911673Y-123567639D01*
X290907224Y-123570423D01*
X290370909Y-123755905D01*
X290361970Y-123755371D01*
X290356288Y-123749354D01*
X290230179Y-123447204D01*
X290230156Y-123438252D01*
X290356289Y-123136043D01*
X290362637Y-123129730D01*
X290370908Y-123129494D01*
X290907224Y-123314976D01*
G37*
%TD.AperFunction*%
%TD*%
%TA.AperFunction,Conductor*%
%TO.N,Row 0*%
G36*
X309096629Y-123130028D02*
G01*
X309102311Y-123136045D01*
X309228419Y-123438194D01*
X309228443Y-123447148D01*
X309228419Y-123447206D01*
X309102311Y-123749354D01*
X309095962Y-123755669D01*
X309087690Y-123755905D01*
X308551376Y-123570423D01*
X308544677Y-123564481D01*
X308543500Y-123559366D01*
X308543500Y-123326033D01*
X308546927Y-123317760D01*
X308551376Y-123314976D01*
X309087691Y-123129494D01*
X309096629Y-123130028D01*
G37*
%TD.AperFunction*%
%TD*%
%TA.AperFunction,Conductor*%
%TO.N,Row 0*%
G36*
X252707224Y-128027476D02*
G01*
X252713923Y-128033418D01*
X252715100Y-128038533D01*
X252715100Y-128271866D01*
X252711673Y-128280139D01*
X252707224Y-128282923D01*
X252170909Y-128468405D01*
X252161970Y-128467871D01*
X252156288Y-128461854D01*
X252030179Y-128159704D01*
X252030156Y-128150752D01*
X252156289Y-127848543D01*
X252162637Y-127842230D01*
X252170908Y-127841994D01*
X252707224Y-128027476D01*
G37*
%TD.AperFunction*%
%TD*%
%TA.AperFunction,Conductor*%
%TO.N,Row 0*%
G36*
X328594885Y-123265681D02*
G01*
X328600902Y-123271363D01*
X328745415Y-123568681D01*
X328812939Y-123707603D01*
X328848979Y-123781749D01*
X328849513Y-123790688D01*
X328846729Y-123795137D01*
X328681737Y-123960129D01*
X328673464Y-123963556D01*
X328668350Y-123962379D01*
X328296726Y-123781749D01*
X328157963Y-123714302D01*
X328152021Y-123707603D01*
X328152257Y-123699331D01*
X328276737Y-123396507D01*
X328283050Y-123390160D01*
X328585931Y-123265657D01*
X328594885Y-123265681D01*
G37*
%TD.AperFunction*%
%TD*%
%TA.AperFunction,Conductor*%
%TO.N,Row 1*%
G36*
X252707224Y-147027476D02*
G01*
X252713923Y-147033418D01*
X252715100Y-147038533D01*
X252715100Y-147271866D01*
X252711673Y-147280139D01*
X252707224Y-147282923D01*
X252170909Y-147468405D01*
X252161970Y-147467871D01*
X252156288Y-147461854D01*
X252030179Y-147159704D01*
X252030156Y-147150752D01*
X252156289Y-146848543D01*
X252162637Y-146842230D01*
X252170908Y-146841994D01*
X252707224Y-147027476D01*
G37*
%TD.AperFunction*%
%TD*%
%TA.AperFunction,Conductor*%
%TO.N,Row 1*%
G36*
X289872668Y-137503157D02*
G01*
X290175490Y-137627636D01*
X290181839Y-137633951D01*
X290181863Y-137634009D01*
X290306342Y-137936831D01*
X290306318Y-137945785D01*
X290300636Y-137951802D01*
X289790250Y-138199879D01*
X289781311Y-138200413D01*
X289776862Y-138197629D01*
X289611870Y-138032637D01*
X289608443Y-138024364D01*
X289609618Y-138019254D01*
X289857697Y-137508862D01*
X289864396Y-137502921D01*
X289872668Y-137503157D01*
G37*
%TD.AperFunction*%
%TD*%
%TA.AperFunction,Conductor*%
%TO.N,Row 1*%
G36*
X345964009Y-134163591D02*
G01*
X346686802Y-134464024D01*
X346693126Y-134470364D01*
X346693115Y-134479319D01*
X346692768Y-134480076D01*
X346049113Y-135762633D01*
X346042339Y-135768490D01*
X346036053Y-135768792D01*
X345806847Y-135716479D01*
X345799543Y-135711297D01*
X345798846Y-135710016D01*
X345225353Y-134479910D01*
X345224964Y-134470966D01*
X345231014Y-134464364D01*
X345231442Y-134464175D01*
X345955032Y-134163590D01*
X345963986Y-134163582D01*
X345964009Y-134163591D01*
G37*
%TD.AperFunction*%
%TD*%
%TA.AperFunction,Conductor*%
%TO.N,Row 1*%
G36*
X271807224Y-142314976D02*
G01*
X271813923Y-142320918D01*
X271815100Y-142326033D01*
X271815100Y-142559366D01*
X271811673Y-142567639D01*
X271807224Y-142570423D01*
X271270909Y-142755905D01*
X271261970Y-142755371D01*
X271256288Y-142749354D01*
X271130179Y-142447204D01*
X271130156Y-142438252D01*
X271256289Y-142136043D01*
X271262637Y-142129730D01*
X271270908Y-142129494D01*
X271807224Y-142314976D01*
G37*
%TD.AperFunction*%
%TD*%
%TA.AperFunction,Conductor*%
%TO.N,Row 1*%
G36*
X270822668Y-142315657D02*
G01*
X271125490Y-142440136D01*
X271131839Y-142446451D01*
X271131863Y-142446509D01*
X271256342Y-142749331D01*
X271256318Y-142758285D01*
X271250636Y-142764302D01*
X270740250Y-143012379D01*
X270731311Y-143012913D01*
X270726862Y-143010129D01*
X270561870Y-142845137D01*
X270558443Y-142836864D01*
X270559618Y-142831754D01*
X270807697Y-142321362D01*
X270814396Y-142315421D01*
X270822668Y-142315657D01*
G37*
%TD.AperFunction*%
%TD*%
%TA.AperFunction,Conductor*%
%TO.N,Row 1*%
G36*
X309907224Y-142314976D02*
G01*
X309913923Y-142320918D01*
X309915100Y-142326033D01*
X309915100Y-142559366D01*
X309911673Y-142567639D01*
X309907224Y-142570423D01*
X309370909Y-142755905D01*
X309361970Y-142755371D01*
X309356288Y-142749354D01*
X309230179Y-142447204D01*
X309230156Y-142438252D01*
X309356289Y-142136043D01*
X309362637Y-142129730D01*
X309370908Y-142129494D01*
X309907224Y-142314976D01*
G37*
%TD.AperFunction*%
%TD*%
%TA.AperFunction,Conductor*%
%TO.N,Row 1*%
G36*
X328152582Y-142086702D02*
G01*
X328152686Y-142086944D01*
X328278419Y-142388194D01*
X328278443Y-142397148D01*
X328278419Y-142397206D01*
X328151991Y-142700121D01*
X328145642Y-142706436D01*
X328138246Y-142706938D01*
X327612198Y-142569978D01*
X327605055Y-142564577D01*
X327603446Y-142558655D01*
X327603446Y-142325306D01*
X327606873Y-142317033D01*
X327610395Y-142314614D01*
X328137142Y-142080756D01*
X328146093Y-142080532D01*
X328152582Y-142086702D01*
G37*
%TD.AperFunction*%
%TD*%
%TA.AperFunction,Conductor*%
%TO.N,Row 1*%
G36*
X290494885Y-137503181D02*
G01*
X290500902Y-137508863D01*
X290645415Y-137806181D01*
X290712939Y-137945103D01*
X290748979Y-138019249D01*
X290749513Y-138028188D01*
X290746729Y-138032637D01*
X290581737Y-138197629D01*
X290573464Y-138201056D01*
X290568350Y-138199879D01*
X290196726Y-138019249D01*
X290057963Y-137951802D01*
X290052021Y-137945103D01*
X290052257Y-137936831D01*
X290176737Y-137634007D01*
X290183050Y-137627660D01*
X290485931Y-137503157D01*
X290494885Y-137503181D01*
G37*
%TD.AperFunction*%
%TD*%
%TA.AperFunction,Conductor*%
%TO.N,Row 1*%
G36*
X309096629Y-142130028D02*
G01*
X309102311Y-142136045D01*
X309228419Y-142438194D01*
X309228443Y-142447148D01*
X309228419Y-142447206D01*
X309102311Y-142749354D01*
X309095962Y-142755669D01*
X309087690Y-142755905D01*
X308551376Y-142570423D01*
X308544677Y-142564481D01*
X308543500Y-142559366D01*
X308543500Y-142326033D01*
X308546927Y-142317760D01*
X308551376Y-142314976D01*
X309087691Y-142129494D01*
X309096629Y-142130028D01*
G37*
%TD.AperFunction*%
%TD*%
%TA.AperFunction,Conductor*%
%TO.N,Row 1*%
G36*
X233707224Y-147027476D02*
G01*
X233713923Y-147033418D01*
X233715100Y-147038533D01*
X233715100Y-147271866D01*
X233711673Y-147280139D01*
X233707224Y-147282923D01*
X233170909Y-147468405D01*
X233161970Y-147467871D01*
X233156288Y-147461854D01*
X233030179Y-147159704D01*
X233030156Y-147150752D01*
X233156289Y-146848543D01*
X233162637Y-146842230D01*
X233170908Y-146841994D01*
X233707224Y-147027476D01*
G37*
%TD.AperFunction*%
%TD*%
%TA.AperFunction,Conductor*%
%TO.N,Row 1*%
G36*
X251896629Y-146842528D02*
G01*
X251902311Y-146848545D01*
X252028419Y-147150694D01*
X252028443Y-147159648D01*
X252028419Y-147159706D01*
X251902311Y-147461854D01*
X251895962Y-147468169D01*
X251887690Y-147468405D01*
X251351376Y-147282923D01*
X251344677Y-147276981D01*
X251343500Y-147271866D01*
X251343500Y-147038533D01*
X251346927Y-147030260D01*
X251351376Y-147027476D01*
X251887691Y-146841994D01*
X251896629Y-146842528D01*
G37*
%TD.AperFunction*%
%TD*%
%TA.AperFunction,Conductor*%
%TO.N,Row 1*%
G36*
X328957224Y-142264976D02*
G01*
X328963923Y-142270918D01*
X328965100Y-142276033D01*
X328965100Y-142509366D01*
X328961673Y-142517639D01*
X328957224Y-142520423D01*
X328420909Y-142705905D01*
X328411970Y-142705371D01*
X328406288Y-142699354D01*
X328280179Y-142397204D01*
X328280156Y-142388252D01*
X328406289Y-142086043D01*
X328412637Y-142079730D01*
X328420908Y-142079494D01*
X328957224Y-142264976D01*
G37*
%TD.AperFunction*%
%TD*%
%TA.AperFunction,Conductor*%
%TO.N,Row 2*%
G36*
X349155990Y-134434598D02*
G01*
X349227053Y-134464130D01*
X349233378Y-134470469D01*
X349233367Y-134479424D01*
X349233133Y-134479951D01*
X348627472Y-135756017D01*
X348620829Y-135762021D01*
X348616902Y-135762700D01*
X348381698Y-135762700D01*
X348373425Y-135759273D01*
X348371128Y-135756017D01*
X347765466Y-134479951D01*
X347765015Y-134471007D01*
X347771019Y-134464364D01*
X347771534Y-134464134D01*
X348494812Y-134163564D01*
X348503761Y-134163554D01*
X349155990Y-134434598D01*
G37*
%TD.AperFunction*%
%TD*%
%TA.AperFunction,Conductor*%
%TO.N,Row 2*%
G36*
X344708226Y-178366405D02*
G01*
X344713908Y-178372422D01*
X344840016Y-178674571D01*
X344840040Y-178683525D01*
X344840016Y-178683583D01*
X344713908Y-178985731D01*
X344707559Y-178992046D01*
X344699287Y-178992282D01*
X344162973Y-178806800D01*
X344156274Y-178800858D01*
X344155097Y-178795743D01*
X344155097Y-178562410D01*
X344158524Y-178554137D01*
X344162973Y-178551353D01*
X344699288Y-178365871D01*
X344708226Y-178366405D01*
G37*
%TD.AperFunction*%
%TD*%
%TA.AperFunction,Conductor*%
%TO.N,Row 2*%
G36*
X345243334Y-178111647D02*
G01*
X345408326Y-178276639D01*
X345411753Y-178284912D01*
X345410576Y-178290027D01*
X345162499Y-178800413D01*
X345155800Y-178806355D01*
X345147528Y-178806119D01*
X344844706Y-178681640D01*
X344838357Y-178675325D01*
X344838333Y-178675267D01*
X344713854Y-178372445D01*
X344713878Y-178363491D01*
X344719559Y-178357474D01*
X345229949Y-178109396D01*
X345238885Y-178108863D01*
X345243334Y-178111647D01*
G37*
%TD.AperFunction*%
%TD*%
%TA.AperFunction,Conductor*%
%TO.N,Row 2*%
G36*
X326835516Y-173568956D02*
G01*
X326841831Y-173575305D01*
X326842067Y-173583577D01*
X326656586Y-174119892D01*
X326650644Y-174126591D01*
X326645529Y-174127768D01*
X326412195Y-174127768D01*
X326403922Y-174124341D01*
X326401138Y-174119892D01*
X326215656Y-173583577D01*
X326216190Y-173574638D01*
X326222205Y-173568957D01*
X326524357Y-173442847D01*
X326533308Y-173442824D01*
X326835516Y-173568956D01*
G37*
%TD.AperFunction*%
%TD*%
%TA.AperFunction,Conductor*%
%TO.N,Net-(BT201-+)*%
G36*
X361325175Y-132566127D02*
G01*
X361327472Y-132569383D01*
X361933133Y-133845448D01*
X361933584Y-133854392D01*
X361927580Y-133861035D01*
X361927053Y-133861269D01*
X361203790Y-134161834D01*
X361194836Y-134161844D01*
X361194810Y-134161834D01*
X360471546Y-133861269D01*
X360465221Y-133854930D01*
X360465232Y-133845975D01*
X360465454Y-133845473D01*
X361071128Y-132569382D01*
X361077771Y-132563379D01*
X361081698Y-132562700D01*
X361316902Y-132562700D01*
X361325175Y-132566127D01*
G37*
%TD.AperFunction*%
%TD*%
%TA.AperFunction,Conductor*%
%TO.N,Net-(BT201-+)*%
G36*
X360277690Y-127340429D02*
G01*
X360283896Y-127346518D01*
X360695267Y-128282176D01*
X360695459Y-128291129D01*
X360691678Y-128296167D01*
X360506069Y-128438589D01*
X360497420Y-128440907D01*
X360494319Y-128440053D01*
X359582310Y-128047260D01*
X359576067Y-128040840D01*
X359576124Y-128032046D01*
X359776833Y-127546404D01*
X359783156Y-127540071D01*
X360268737Y-127340406D01*
X360277690Y-127340429D01*
G37*
%TD.AperFunction*%
%TD*%
%TA.AperFunction,Conductor*%
%TO.N,Net-(BT301--)*%
G36*
X58639609Y-125553924D02*
G01*
X58640852Y-125555397D01*
X59183146Y-126317446D01*
X59185150Y-126326174D01*
X59181886Y-126332503D01*
X59016243Y-126498146D01*
X59007970Y-126501573D01*
X59006317Y-126501456D01*
X58289325Y-126399131D01*
X58281619Y-126394569D01*
X58279278Y-126387567D01*
X58278592Y-125901860D01*
X58282006Y-125893586D01*
X58623063Y-125553890D01*
X58631342Y-125550481D01*
X58639609Y-125553924D01*
G37*
%TD.AperFunction*%
%TD*%
%TA.AperFunction,Conductor*%
%TO.N,Net-(BT301--)*%
G36*
X59640222Y-142932911D02*
G01*
X60360144Y-143220165D01*
X60366558Y-143226414D01*
X60366675Y-143235368D01*
X60360750Y-143241637D01*
X59639035Y-143577990D01*
X59630089Y-143578379D01*
X59629484Y-143578139D01*
X59291384Y-143433239D01*
X59285130Y-143426830D01*
X59284293Y-143422485D01*
X59284293Y-143186225D01*
X59287720Y-143177952D01*
X59289194Y-143176703D01*
X59629095Y-142934253D01*
X59637818Y-142932239D01*
X59640222Y-142932911D01*
G37*
%TD.AperFunction*%
%TD*%
%TA.AperFunction,Conductor*%
%TO.N,Net-(BT301-+)*%
G36*
X57515990Y-119194598D02*
G01*
X57587053Y-119224130D01*
X57593378Y-119230469D01*
X57593367Y-119239424D01*
X57593133Y-119239951D01*
X56987472Y-120516017D01*
X56980829Y-120522021D01*
X56976902Y-120522700D01*
X56741698Y-120522700D01*
X56733425Y-120519273D01*
X56731128Y-120516017D01*
X56125466Y-119239951D01*
X56125015Y-119231007D01*
X56131019Y-119224364D01*
X56131534Y-119224134D01*
X56854812Y-118923564D01*
X56863761Y-118923554D01*
X57515990Y-119194598D01*
G37*
%TD.AperFunction*%
%TD*%
%TA.AperFunction,Conductor*%
%TO.N,Net-(BT301-+)*%
G36*
X57564278Y-126270352D02*
G01*
X57980723Y-126449709D01*
X57981480Y-126450070D01*
X58032644Y-126476923D01*
X58055143Y-126488732D01*
X58064220Y-126490969D01*
X58092051Y-126497828D01*
X58093864Y-126498437D01*
X58476282Y-126663139D01*
X58482525Y-126669559D01*
X58482467Y-126678354D01*
X58281760Y-127163993D01*
X58275433Y-127170330D01*
X58275396Y-127170345D01*
X57789856Y-127369993D01*
X57780902Y-127369970D01*
X57774696Y-127363881D01*
X57363331Y-126428230D01*
X57363139Y-126419277D01*
X57366919Y-126414240D01*
X57552529Y-126271817D01*
X57561178Y-126269499D01*
X57564278Y-126270352D01*
G37*
%TD.AperFunction*%
%TD*%
%TA.AperFunction,Conductor*%
%TO.N,GND2*%
G36*
X355817635Y-118194419D02*
G01*
X355817869Y-118194946D01*
X356118434Y-118918210D01*
X356118444Y-118927163D01*
X356118435Y-118927185D01*
X356118434Y-118927190D01*
X355817869Y-119650453D01*
X355811530Y-119656778D01*
X355802575Y-119656767D01*
X355802048Y-119656533D01*
X354525983Y-119050871D01*
X354519979Y-119044228D01*
X354519300Y-119040301D01*
X354519300Y-118805098D01*
X354522727Y-118796825D01*
X354525983Y-118794528D01*
X355802049Y-118188865D01*
X355810992Y-118188415D01*
X355817635Y-118194419D01*
G37*
%TD.AperFunction*%
%TD*%
%TA.AperFunction,Conductor*%
%TO.N,GND2*%
G36*
X353896024Y-118188632D02*
G01*
X353896540Y-118188861D01*
X355172617Y-118794528D01*
X355178621Y-118801171D01*
X355179300Y-118805098D01*
X355179300Y-119040301D01*
X355175873Y-119048574D01*
X355172617Y-119050871D01*
X353896551Y-119656533D01*
X353887607Y-119656984D01*
X353880964Y-119650980D01*
X353880730Y-119650453D01*
X353851198Y-119579390D01*
X353580164Y-118927187D01*
X353580154Y-118918238D01*
X353880730Y-118194945D01*
X353887069Y-118188621D01*
X353896024Y-118188632D01*
G37*
%TD.AperFunction*%
%TD*%
%TA.AperFunction,Conductor*%
%TO.N,GND2*%
G36*
X358427330Y-139933029D02*
G01*
X358429503Y-139934252D01*
X358769401Y-140176701D01*
X358774147Y-140184294D01*
X358774307Y-140186225D01*
X358774307Y-140422485D01*
X358770880Y-140430758D01*
X358767216Y-140433239D01*
X358429115Y-140578139D01*
X358420161Y-140578248D01*
X358419577Y-140577995D01*
X358085896Y-140422485D01*
X357697849Y-140241637D01*
X357691797Y-140235036D01*
X357692186Y-140226090D01*
X357698453Y-140220166D01*
X358418377Y-139932912D01*
X358427330Y-139933029D01*
G37*
%TD.AperFunction*%
%TD*%
%TA.AperFunction,Conductor*%
%TO.N,GND2*%
G36*
X357172794Y-139548221D02*
G01*
X357506169Y-139719413D01*
X357799258Y-139869918D01*
X357809714Y-139875287D01*
X357815508Y-139882115D01*
X357815189Y-139890146D01*
X357679678Y-140219568D01*
X357673362Y-140225915D01*
X357664407Y-140225937D01*
X357663906Y-140225717D01*
X356934351Y-139884892D01*
X356928306Y-139878286D01*
X356928451Y-139869918D01*
X356987542Y-139723308D01*
X356990117Y-139719415D01*
X357159177Y-139550355D01*
X357167449Y-139546929D01*
X357172794Y-139548221D01*
G37*
%TD.AperFunction*%
%TD*%
%TA.AperFunction,Conductor*%
%TO.N,GND3*%
G36*
X62595990Y-134434598D02*
G01*
X62667053Y-134464130D01*
X62673378Y-134470469D01*
X62673367Y-134479424D01*
X62673133Y-134479951D01*
X62067472Y-135756017D01*
X62060829Y-135762021D01*
X62056902Y-135762700D01*
X61821698Y-135762700D01*
X61813425Y-135759273D01*
X61811128Y-135756017D01*
X61205466Y-134479951D01*
X61205015Y-134471007D01*
X61211019Y-134464364D01*
X61211534Y-134464134D01*
X61934812Y-134163564D01*
X61943761Y-134163554D01*
X62595990Y-134434598D01*
G37*
%TD.AperFunction*%
%TD*%
%TA.AperFunction,Conductor*%
%TO.N,GND3*%
G36*
X62065175Y-132566127D02*
G01*
X62067472Y-132569383D01*
X62673133Y-133845448D01*
X62673584Y-133854392D01*
X62667580Y-133861035D01*
X62667053Y-133861269D01*
X61943790Y-134161834D01*
X61934836Y-134161844D01*
X61934810Y-134161834D01*
X61211546Y-133861269D01*
X61205221Y-133854930D01*
X61205232Y-133845975D01*
X61205454Y-133845473D01*
X61811128Y-132569382D01*
X61817771Y-132563379D01*
X61821698Y-132562700D01*
X62056902Y-132562700D01*
X62065175Y-132566127D01*
G37*
%TD.AperFunction*%
%TD*%
%TA.AperFunction,Conductor*%
%TO.N,GND3*%
G36*
X60135998Y-118621254D02*
G01*
X60142323Y-118627593D01*
X60142527Y-118628126D01*
X60510795Y-119661804D01*
X60616575Y-119958712D01*
X60616124Y-119967656D01*
X60613827Y-119970912D01*
X60447512Y-120137227D01*
X60439239Y-120140654D01*
X60435313Y-120139975D01*
X59104730Y-119665928D01*
X59098088Y-119659925D01*
X59097637Y-119650981D01*
X59097836Y-119650460D01*
X59396738Y-118926485D01*
X59403062Y-118920148D01*
X59403064Y-118920146D01*
X60127044Y-118621243D01*
X60135998Y-118621254D01*
G37*
%TD.AperFunction*%
%TD*%
%TA.AperFunction,Conductor*%
%TO.N,GND3*%
G36*
X60899422Y-141050356D02*
G01*
X61068479Y-141219413D01*
X61071058Y-141223312D01*
X61130148Y-141369918D01*
X61130062Y-141378873D01*
X61124248Y-141384892D01*
X60394693Y-141725717D01*
X60385747Y-141726114D01*
X60379141Y-141720069D01*
X60378930Y-141719589D01*
X60243410Y-141390145D01*
X60243432Y-141381191D01*
X60248883Y-141375288D01*
X60885804Y-141048220D01*
X60894729Y-141047490D01*
X60899422Y-141050356D01*
G37*
%TD.AperFunction*%
%TD*%
%TA.AperFunction,Conductor*%
%TO.N,GND3*%
G36*
X64177635Y-133434419D02*
G01*
X64177869Y-133434946D01*
X64478434Y-134158210D01*
X64478444Y-134167163D01*
X64478435Y-134167185D01*
X64478434Y-134167190D01*
X64177869Y-134890453D01*
X64171530Y-134896778D01*
X64162575Y-134896767D01*
X64162048Y-134896533D01*
X62885983Y-134290871D01*
X62879979Y-134284228D01*
X62879300Y-134280301D01*
X62879300Y-134045098D01*
X62882727Y-134036825D01*
X62885983Y-134034528D01*
X64162049Y-133428865D01*
X64170992Y-133428415D01*
X64177635Y-133434419D01*
G37*
%TD.AperFunction*%
%TD*%
%TA.AperFunction,Conductor*%
%TO.N,GND3*%
G36*
X62256024Y-133428632D02*
G01*
X62256540Y-133428861D01*
X63532617Y-134034528D01*
X63538621Y-134041171D01*
X63539300Y-134045098D01*
X63539300Y-134280301D01*
X63535873Y-134288574D01*
X63532617Y-134290871D01*
X62256551Y-134896533D01*
X62247607Y-134896984D01*
X62240964Y-134890980D01*
X62240730Y-134890453D01*
X62211198Y-134819390D01*
X61940164Y-134167187D01*
X61940154Y-134158238D01*
X62240730Y-133434945D01*
X62247069Y-133428621D01*
X62256024Y-133428632D01*
G37*
%TD.AperFunction*%
%TD*%
%TA.AperFunction,Conductor*%
%TO.N,Row 3*%
G36*
X185707224Y-128027476D02*
G01*
X185713923Y-128033418D01*
X185715100Y-128038533D01*
X185715100Y-128271866D01*
X185711673Y-128280139D01*
X185707224Y-128282923D01*
X185170909Y-128468405D01*
X185161970Y-128467871D01*
X185156288Y-128461854D01*
X185030179Y-128159704D01*
X185030156Y-128150752D01*
X185156289Y-127848543D01*
X185162637Y-127842230D01*
X185170908Y-127841994D01*
X185707224Y-128027476D01*
G37*
%TD.AperFunction*%
%TD*%
%TA.AperFunction,Conductor*%
%TO.N,Row 3*%
G36*
X203896629Y-127842528D02*
G01*
X203902311Y-127848545D01*
X204028419Y-128150694D01*
X204028443Y-128159648D01*
X204028419Y-128159706D01*
X203902311Y-128461854D01*
X203895962Y-128468169D01*
X203887690Y-128468405D01*
X203351376Y-128282923D01*
X203344677Y-128276981D01*
X203343500Y-128271866D01*
X203343500Y-128038533D01*
X203346927Y-128030260D01*
X203351376Y-128027476D01*
X203887691Y-127841994D01*
X203896629Y-127842528D01*
G37*
%TD.AperFunction*%
%TD*%
%TA.AperFunction,Conductor*%
%TO.N,Row 3*%
G36*
X108696629Y-123130028D02*
G01*
X108702311Y-123136045D01*
X108828419Y-123438194D01*
X108828443Y-123447148D01*
X108828419Y-123447206D01*
X108702311Y-123749354D01*
X108695962Y-123755669D01*
X108687690Y-123755905D01*
X108151376Y-123570423D01*
X108144677Y-123564481D01*
X108143500Y-123559366D01*
X108143500Y-123326033D01*
X108146927Y-123317760D01*
X108151376Y-123314976D01*
X108687691Y-123129494D01*
X108696629Y-123130028D01*
G37*
%TD.AperFunction*%
%TD*%
%TA.AperFunction,Conductor*%
%TO.N,Row 3*%
G36*
X165640246Y-127585519D02*
G01*
X166085677Y-127802023D01*
X166150636Y-127833597D01*
X166156578Y-127840296D01*
X166156342Y-127848568D01*
X166031863Y-128151390D01*
X166025548Y-128157739D01*
X166025490Y-128157763D01*
X165722668Y-128282242D01*
X165713714Y-128282218D01*
X165707697Y-128276536D01*
X165676123Y-128211577D01*
X165459619Y-127766147D01*
X165459086Y-127757211D01*
X165461868Y-127752764D01*
X165626863Y-127587769D01*
X165635135Y-127584343D01*
X165640246Y-127585519D01*
G37*
%TD.AperFunction*%
%TD*%
%TA.AperFunction,Conductor*%
%TO.N,Row 3*%
G36*
X146540246Y-122873019D02*
G01*
X146985677Y-123089523D01*
X147050636Y-123121097D01*
X147056578Y-123127796D01*
X147056342Y-123136068D01*
X146931863Y-123438890D01*
X146925548Y-123445239D01*
X146925490Y-123445263D01*
X146622668Y-123569742D01*
X146613714Y-123569718D01*
X146607697Y-123564036D01*
X146576123Y-123499077D01*
X146359619Y-123053647D01*
X146359086Y-123044711D01*
X146361868Y-123040264D01*
X146526863Y-122875269D01*
X146535135Y-122871843D01*
X146540246Y-122873019D01*
G37*
%TD.AperFunction*%
%TD*%
%TA.AperFunction,Conductor*%
%TO.N,Row 3*%
G36*
X77828964Y-134431715D02*
G01*
X77907772Y-134464433D01*
X77914099Y-134470770D01*
X77914163Y-134479549D01*
X77450421Y-135649854D01*
X77444856Y-135655969D01*
X77235732Y-135762523D01*
X77226805Y-135763225D01*
X77220411Y-135758155D01*
X76447238Y-134480485D01*
X76445888Y-134471634D01*
X76451192Y-134464419D01*
X76452754Y-134463626D01*
X77174360Y-134163673D01*
X77183313Y-134163663D01*
X77828964Y-134431715D01*
G37*
%TD.AperFunction*%
%TD*%
%TA.AperFunction,Conductor*%
%TO.N,Row 3*%
G36*
X184896629Y-127842528D02*
G01*
X184902311Y-127848545D01*
X185028419Y-128150694D01*
X185028443Y-128159648D01*
X185028419Y-128159706D01*
X184902311Y-128461854D01*
X184895962Y-128468169D01*
X184887690Y-128468405D01*
X184351376Y-128282923D01*
X184344677Y-128276981D01*
X184343500Y-128271866D01*
X184343500Y-128038533D01*
X184346927Y-128030260D01*
X184351376Y-128027476D01*
X184887691Y-127841994D01*
X184896629Y-127842528D01*
G37*
%TD.AperFunction*%
%TD*%
%TA.AperFunction,Conductor*%
%TO.N,Row 3*%
G36*
X166707224Y-128027476D02*
G01*
X166713923Y-128033418D01*
X166715100Y-128038533D01*
X166715100Y-128271866D01*
X166711673Y-128280139D01*
X166707224Y-128282923D01*
X166170909Y-128468405D01*
X166161970Y-128467871D01*
X166156288Y-128461854D01*
X166030179Y-128159704D01*
X166030156Y-128150752D01*
X166156289Y-127848543D01*
X166162637Y-127842230D01*
X166170908Y-127841994D01*
X166707224Y-128027476D01*
G37*
%TD.AperFunction*%
%TD*%
%TA.AperFunction,Conductor*%
%TO.N,Row 3*%
G36*
X147607224Y-123314976D02*
G01*
X147613923Y-123320918D01*
X147615100Y-123326033D01*
X147615100Y-123559366D01*
X147611673Y-123567639D01*
X147607224Y-123570423D01*
X147070909Y-123755905D01*
X147061970Y-123755371D01*
X147056288Y-123749354D01*
X146930179Y-123447204D01*
X146930156Y-123438252D01*
X147056289Y-123136043D01*
X147062637Y-123129730D01*
X147070908Y-123129494D01*
X147607224Y-123314976D01*
G37*
%TD.AperFunction*%
%TD*%
%TA.AperFunction,Conductor*%
%TO.N,Row 3*%
G36*
X127696629Y-123130028D02*
G01*
X127702311Y-123136045D01*
X127828419Y-123438194D01*
X127828443Y-123447148D01*
X127828419Y-123447206D01*
X127702311Y-123749354D01*
X127695962Y-123755669D01*
X127687690Y-123755905D01*
X127151376Y-123570423D01*
X127144677Y-123564481D01*
X127143500Y-123559366D01*
X127143500Y-123326033D01*
X127146927Y-123317760D01*
X127151376Y-123314976D01*
X127687691Y-123129494D01*
X127696629Y-123130028D01*
G37*
%TD.AperFunction*%
%TD*%
%TA.AperFunction,Conductor*%
%TO.N,Row 3*%
G36*
X109507224Y-123314976D02*
G01*
X109513923Y-123320918D01*
X109515100Y-123326033D01*
X109515100Y-123559366D01*
X109511673Y-123567639D01*
X109507224Y-123570423D01*
X108970909Y-123755905D01*
X108961970Y-123755371D01*
X108956288Y-123749354D01*
X108830179Y-123447204D01*
X108830156Y-123438252D01*
X108956289Y-123136043D01*
X108962637Y-123129730D01*
X108970908Y-123129494D01*
X109507224Y-123314976D01*
G37*
%TD.AperFunction*%
%TD*%
%TA.AperFunction,Conductor*%
%TO.N,Row 3*%
G36*
X128202096Y-122855580D02*
G01*
X128367108Y-123020592D01*
X128370535Y-123028865D01*
X128369647Y-123033336D01*
X128150559Y-123563133D01*
X128144231Y-123569469D01*
X128135299Y-123569483D01*
X128119851Y-123563133D01*
X128078784Y-123546251D01*
X127833109Y-123445263D01*
X127826760Y-123438948D01*
X127826736Y-123438890D01*
X127702033Y-123135524D01*
X127702057Y-123126570D01*
X127707171Y-123120849D01*
X128188141Y-122853625D01*
X128197037Y-122852603D01*
X128202096Y-122855580D01*
G37*
%TD.AperFunction*%
%TD*%
%TA.AperFunction,Conductor*%
%TO.N,Row 4*%
G36*
X127696629Y-142129321D02*
G01*
X127702311Y-142135338D01*
X127828419Y-142437487D01*
X127828443Y-142446441D01*
X127828419Y-142446499D01*
X127702311Y-142748647D01*
X127695962Y-142754962D01*
X127687690Y-142755198D01*
X127151376Y-142569716D01*
X127144677Y-142563774D01*
X127143500Y-142558659D01*
X127143500Y-142325326D01*
X127146927Y-142317053D01*
X127151376Y-142314269D01*
X127687691Y-142128787D01*
X127696629Y-142129321D01*
G37*
%TD.AperFunction*%
%TD*%
%TA.AperFunction,Conductor*%
%TO.N,Row 4*%
G36*
X108696629Y-142130028D02*
G01*
X108702311Y-142136045D01*
X108828419Y-142438194D01*
X108828443Y-142447148D01*
X108828419Y-142447206D01*
X108702311Y-142749354D01*
X108695962Y-142755669D01*
X108687690Y-142755905D01*
X108151376Y-142570423D01*
X108144677Y-142564481D01*
X108143500Y-142559366D01*
X108143500Y-142326033D01*
X108146927Y-142317760D01*
X108151376Y-142314976D01*
X108687691Y-142129494D01*
X108696629Y-142130028D01*
G37*
%TD.AperFunction*%
%TD*%
%TA.AperFunction,Conductor*%
%TO.N,Row 4*%
G36*
X128507224Y-142314269D02*
G01*
X128513923Y-142320211D01*
X128515100Y-142325326D01*
X128515100Y-142558659D01*
X128511673Y-142566932D01*
X128507224Y-142569716D01*
X127970909Y-142755198D01*
X127961970Y-142754664D01*
X127956288Y-142748647D01*
X127830179Y-142446497D01*
X127830156Y-142437545D01*
X127956289Y-142135336D01*
X127962637Y-142129023D01*
X127970908Y-142128787D01*
X128507224Y-142314269D01*
G37*
%TD.AperFunction*%
%TD*%
%TA.AperFunction,Conductor*%
%TO.N,Row 4*%
G36*
X146796629Y-142130028D02*
G01*
X146802311Y-142136045D01*
X146928419Y-142438194D01*
X146928443Y-142447148D01*
X146928419Y-142447206D01*
X146802311Y-142749354D01*
X146795962Y-142755669D01*
X146787690Y-142755905D01*
X146251376Y-142570423D01*
X146244677Y-142564481D01*
X146243500Y-142559366D01*
X146243500Y-142326033D01*
X146246927Y-142317760D01*
X146251376Y-142314976D01*
X146787691Y-142129494D01*
X146796629Y-142130028D01*
G37*
%TD.AperFunction*%
%TD*%
%TA.AperFunction,Conductor*%
%TO.N,Row 4*%
G36*
X165896629Y-146842528D02*
G01*
X165902311Y-146848545D01*
X166028419Y-147150694D01*
X166028443Y-147159648D01*
X166028419Y-147159706D01*
X165902311Y-147461854D01*
X165895962Y-147468169D01*
X165887690Y-147468405D01*
X165351376Y-147282923D01*
X165344677Y-147276981D01*
X165343500Y-147271866D01*
X165343500Y-147038533D01*
X165346927Y-147030260D01*
X165351376Y-147027476D01*
X165887691Y-146841994D01*
X165896629Y-146842528D01*
G37*
%TD.AperFunction*%
%TD*%
%TA.AperFunction,Conductor*%
%TO.N,Row 4*%
G36*
X166707224Y-147027476D02*
G01*
X166713923Y-147033418D01*
X166715100Y-147038533D01*
X166715100Y-147271866D01*
X166711673Y-147280139D01*
X166707224Y-147282923D01*
X166170909Y-147468405D01*
X166161970Y-147467871D01*
X166156288Y-147461854D01*
X166030179Y-147159704D01*
X166030156Y-147150752D01*
X166156289Y-146848543D01*
X166162637Y-146842230D01*
X166170908Y-146841994D01*
X166707224Y-147027476D01*
G37*
%TD.AperFunction*%
%TD*%
%TA.AperFunction,Conductor*%
%TO.N,Row 4*%
G36*
X184896629Y-146842528D02*
G01*
X184902311Y-146848545D01*
X185028419Y-147150694D01*
X185028443Y-147159648D01*
X185028419Y-147159706D01*
X184902311Y-147461854D01*
X184895962Y-147468169D01*
X184887690Y-147468405D01*
X184351376Y-147282923D01*
X184344677Y-147276981D01*
X184343500Y-147271866D01*
X184343500Y-147038533D01*
X184346927Y-147030260D01*
X184351376Y-147027476D01*
X184887691Y-146841994D01*
X184896629Y-146842528D01*
G37*
%TD.AperFunction*%
%TD*%
%TA.AperFunction,Conductor*%
%TO.N,Row 4*%
G36*
X203896629Y-146842528D02*
G01*
X203902311Y-146848545D01*
X204028419Y-147150694D01*
X204028443Y-147159648D01*
X204028419Y-147159706D01*
X203902311Y-147461854D01*
X203895962Y-147468169D01*
X203887690Y-147468405D01*
X203351376Y-147282923D01*
X203344677Y-147276981D01*
X203343500Y-147271866D01*
X203343500Y-147038533D01*
X203346927Y-147030260D01*
X203351376Y-147027476D01*
X203887691Y-146841994D01*
X203896629Y-146842528D01*
G37*
%TD.AperFunction*%
%TD*%
%TA.AperFunction,Conductor*%
%TO.N,Row 4*%
G36*
X185707224Y-147027476D02*
G01*
X185713923Y-147033418D01*
X185715100Y-147038533D01*
X185715100Y-147271866D01*
X185711673Y-147280139D01*
X185707224Y-147282923D01*
X185170909Y-147468405D01*
X185161970Y-147467871D01*
X185156288Y-147461854D01*
X185030179Y-147159704D01*
X185030156Y-147150752D01*
X185156289Y-146848543D01*
X185162637Y-146842230D01*
X185170908Y-146841994D01*
X185707224Y-147027476D01*
G37*
%TD.AperFunction*%
%TD*%
%TA.AperFunction,Conductor*%
%TO.N,Row 4*%
G36*
X147244885Y-142315681D02*
G01*
X147250902Y-142321363D01*
X147395415Y-142618681D01*
X147462939Y-142757603D01*
X147498979Y-142831749D01*
X147499513Y-142840688D01*
X147496729Y-142845137D01*
X147331737Y-143010129D01*
X147323464Y-143013556D01*
X147318350Y-143012379D01*
X146946726Y-142831749D01*
X146807963Y-142764302D01*
X146802021Y-142757603D01*
X146802257Y-142749331D01*
X146926737Y-142446507D01*
X146933050Y-142440160D01*
X147235931Y-142315657D01*
X147244885Y-142315681D01*
G37*
%TD.AperFunction*%
%TD*%
%TA.AperFunction,Conductor*%
%TO.N,Row 4*%
G36*
X109507224Y-142314976D02*
G01*
X109513923Y-142320918D01*
X109515100Y-142326033D01*
X109515100Y-142559366D01*
X109511673Y-142567639D01*
X109507224Y-142570423D01*
X108970909Y-142755905D01*
X108961970Y-142755371D01*
X108956288Y-142749354D01*
X108830179Y-142447204D01*
X108830156Y-142438252D01*
X108956289Y-142136043D01*
X108962637Y-142129730D01*
X108970908Y-142129494D01*
X109507224Y-142314976D01*
G37*
%TD.AperFunction*%
%TD*%
%TA.AperFunction,Conductor*%
%TO.N,Row 5*%
G36*
X72755990Y-134434598D02*
G01*
X72827053Y-134464130D01*
X72833378Y-134470469D01*
X72833367Y-134479424D01*
X72833133Y-134479951D01*
X72227472Y-135756017D01*
X72220829Y-135762021D01*
X72216902Y-135762700D01*
X71981698Y-135762700D01*
X71973425Y-135759273D01*
X71971128Y-135756017D01*
X71365466Y-134479951D01*
X71365015Y-134471007D01*
X71371019Y-134464364D01*
X71371534Y-134464134D01*
X72094812Y-134163564D01*
X72103761Y-134163554D01*
X72755990Y-134434598D01*
G37*
%TD.AperFunction*%
%TD*%
%TA.AperFunction,Conductor*%
%TO.N,Row 5*%
G36*
X72224240Y-172490327D02*
G01*
X72227024Y-172494776D01*
X72412505Y-173031090D01*
X72411971Y-173040029D01*
X72405954Y-173045711D01*
X72103806Y-173171819D01*
X72094852Y-173171843D01*
X72094794Y-173171819D01*
X71792645Y-173045711D01*
X71786330Y-173039362D01*
X71786094Y-173031091D01*
X71971576Y-172494775D01*
X71977518Y-172488077D01*
X71982633Y-172486900D01*
X72215967Y-172486900D01*
X72224240Y-172490327D01*
G37*
%TD.AperFunction*%
%TD*%
M02*
