%TF.GenerationSoftware,KiCad,Pcbnew,8.0.0*%
%TF.CreationDate,2024-03-10T10:49:13-04:00*%
%TF.ProjectId,Kiwi MKIII,4b697769-204d-44b4-9949-492e6b696361,rev?*%
%TF.SameCoordinates,Original*%
%TF.FileFunction,Copper,L2,Bot*%
%TF.FilePolarity,Positive*%
%FSLAX46Y46*%
G04 Gerber Fmt 4.6, Leading zero omitted, Abs format (unit mm)*
G04 Created by KiCad (PCBNEW 8.0.0) date 2024-03-10 10:49:13*
%MOMM*%
%LPD*%
G01*
G04 APERTURE LIST*
G04 Aperture macros list*
%AMRoundRect*
0 Rectangle with rounded corners*
0 $1 Rounding radius*
0 $2 $3 $4 $5 $6 $7 $8 $9 X,Y pos of 4 corners*
0 Add a 4 corners polygon primitive as box body*
4,1,4,$2,$3,$4,$5,$6,$7,$8,$9,$2,$3,0*
0 Add four circle primitives for the rounded corners*
1,1,$1+$1,$2,$3*
1,1,$1+$1,$4,$5*
1,1,$1+$1,$6,$7*
1,1,$1+$1,$8,$9*
0 Add four rect primitives between the rounded corners*
20,1,$1+$1,$2,$3,$4,$5,0*
20,1,$1+$1,$4,$5,$6,$7,0*
20,1,$1+$1,$6,$7,$8,$9,0*
20,1,$1+$1,$8,$9,$2,$3,0*%
%AMRotRect*
0 Rectangle, with rotation*
0 The origin of the aperture is its center*
0 $1 length*
0 $2 width*
0 $3 Rotation angle, in degrees counterclockwise*
0 Add horizontal line*
21,1,$1,$2,0,0,$3*%
G04 Aperture macros list end*
%TA.AperFunction,SMDPad,CuDef*%
%ADD10RoundRect,0.250000X-1.025000X-1.000000X1.025000X-1.000000X1.025000X1.000000X-1.025000X1.000000X0*%
%TD*%
%TA.AperFunction,ComponentPad*%
%ADD11R,1.000000X1.000000*%
%TD*%
%TA.AperFunction,ComponentPad*%
%ADD12O,1.000000X1.000000*%
%TD*%
%TA.AperFunction,SMDPad,CuDef*%
%ADD13RoundRect,0.250000X-1.260931X-0.678733X0.709656X-1.243790X1.260931X0.678733X-0.709656X1.243790X0*%
%TD*%
%TA.AperFunction,SMDPad,CuDef*%
%ADD14RoundRect,0.250000X-0.709656X-1.243790X1.260931X-0.678733X0.709656X1.243790X-1.260931X0.678733X0*%
%TD*%
%TA.AperFunction,ComponentPad*%
%ADD15R,1.600000X1.600000*%
%TD*%
%TA.AperFunction,ComponentPad*%
%ADD16C,1.600000*%
%TD*%
%TA.AperFunction,SMDPad,CuDef*%
%ADD17R,0.750000X1.200000*%
%TD*%
%TA.AperFunction,SMDPad,CuDef*%
%ADD18RotRect,0.750000X1.200000X16.000000*%
%TD*%
%TA.AperFunction,SMDPad,CuDef*%
%ADD19RotRect,0.750000X1.200000X344.000000*%
%TD*%
%TA.AperFunction,SMDPad,CuDef*%
%ADD20RotRect,0.750000X1.200000X164.000000*%
%TD*%
%TA.AperFunction,ViaPad*%
%ADD21C,0.685800*%
%TD*%
%TA.AperFunction,Conductor*%
%ADD22C,0.250000*%
%TD*%
G04 APERTURE END LIST*
D10*
%TO.P,SW203,1,1*%
%TO.N,COLUMN 2*%
X258129300Y-111492700D03*
%TO.P,SW203,2,2*%
%TO.N,Net-(D203-A)*%
X270129300Y-113692700D03*
%TD*%
%TO.P,SW209,1,1*%
%TO.N,COLUMN 2*%
X258129300Y-130542700D03*
%TO.P,SW209,2,2*%
%TO.N,Net-(D209-A)*%
X270129300Y-132742700D03*
%TD*%
%TO.P,SW310,1,1*%
%TO.N,COLUMN 9*%
X133879300Y-125780200D03*
%TO.P,SW310,2,2*%
%TO.N,Net-(D310-A)*%
X145879300Y-127980200D03*
%TD*%
%TO.P,SW303,1,1*%
%TO.N,COLUMN 8*%
X152929300Y-111492700D03*
%TO.P,SW303,2,2*%
%TO.N,Net-(D303-A)*%
X164929300Y-113692700D03*
%TD*%
%TO.P,SW201,1,1*%
%TO.N,COLUMN 0*%
X220029300Y-116255200D03*
%TO.P,SW201,2,2*%
%TO.N,Net-(D201-A)*%
X232029300Y-118455200D03*
%TD*%
%TO.P,SW207,1,1*%
%TO.N,COLUMN 0*%
X220029300Y-135305200D03*
%TO.P,SW207,2,2*%
%TO.N,Net-(D207-A)*%
X232029300Y-137505200D03*
%TD*%
%TO.P,SW208,1,1*%
%TO.N,COLUMN 1*%
X239079300Y-135305200D03*
%TO.P,SW208,2,2*%
%TO.N,Net-(D208-A)*%
X251079300Y-137505200D03*
%TD*%
%TO.P,SW302,1,1*%
%TO.N,COLUMN 7*%
X171979300Y-116255200D03*
%TO.P,SW302,2,2*%
%TO.N,Net-(D302-A)*%
X183979300Y-118455200D03*
%TD*%
%TO.P,SW212,1,1*%
%TO.N,COLUMN 5*%
X315279300Y-130542700D03*
%TO.P,SW212,2,2*%
%TO.N,Net-(D212-A)*%
X327279300Y-132742700D03*
%TD*%
%TO.P,SW305,1,1*%
%TO.N,COLUMN 10*%
X114829300Y-111492700D03*
%TO.P,SW305,2,2*%
%TO.N,Net-(D305-A)*%
X126829300Y-113692700D03*
%TD*%
%TO.P,SW206,1,1*%
%TO.N,COLUMN 5*%
X315279300Y-111492700D03*
%TO.P,SW206,2,2*%
%TO.N,Net-(D206-A)*%
X327279300Y-113692700D03*
%TD*%
%TO.P,SW304,1,1*%
%TO.N,COLUMN 9*%
X133879300Y-106730200D03*
%TO.P,SW304,2,2*%
%TO.N,Net-(D304-A)*%
X145879300Y-108930200D03*
%TD*%
%TO.P,SW309,1,1*%
%TO.N,COLUMN 8*%
X152929300Y-130542700D03*
%TO.P,SW309,2,2*%
%TO.N,Net-(D309-A)*%
X164929300Y-132742700D03*
%TD*%
%TO.P,SW202,1,1*%
%TO.N,COLUMN 1*%
X239079300Y-116255200D03*
%TO.P,SW202,2,2*%
%TO.N,Net-(D202-A)*%
X251079300Y-118455200D03*
%TD*%
%TO.P,SW307,1,1*%
%TO.N,COLUMN 6*%
X191029300Y-135305200D03*
%TO.P,SW307,2,2*%
%TO.N,Net-(D307-A)*%
X203029300Y-137505200D03*
%TD*%
%TO.P,SW311,1,1*%
%TO.N,COLUMN 10*%
X114829300Y-130542700D03*
%TO.P,SW311,2,2*%
%TO.N,Net-(D311-A)*%
X126829300Y-132742700D03*
%TD*%
D11*
%TO.P,BT201,1,+*%
%TO.N,Net-(BT201-+)*%
X359779300Y-127542700D03*
D12*
%TO.P,BT201,2,-*%
%TO.N,Net-(BT201--)*%
X359779300Y-126272700D03*
%TD*%
D10*
%TO.P,SW205,1,1*%
%TO.N,COLUMN 4*%
X296229300Y-111492700D03*
%TO.P,SW205,2,2*%
%TO.N,Net-(D205-A)*%
X308229300Y-113692700D03*
%TD*%
D13*
%TO.P,SW214,1,1*%
%TO.N,COLUMN 5*%
X335380743Y-163622508D03*
%TO.P,SW214,2,2*%
%TO.N,Net-(D214-A)*%
X346309481Y-169044932D03*
%TD*%
D14*
%TO.P,SW313,1,1*%
%TO.N,COLUMN 10*%
X94261060Y-160314861D03*
%TO.P,SW313,2,2*%
%TO.N,Net-(D313-A)*%
X106402602Y-159121988D03*
%TD*%
D10*
%TO.P,SW308,1,1*%
%TO.N,COLUMN 7*%
X171979300Y-135305200D03*
%TO.P,SW308,2,2*%
%TO.N,Net-(D308-A)*%
X183979300Y-137505200D03*
%TD*%
D15*
%TO.P,U301,1,TX*%
%TO.N,unconnected-(U301-TX-Pad1)*%
X56859300Y-134162700D03*
D16*
%TO.P,U301,2,RX*%
%TO.N,unconnected-(U301-RX-Pad2)*%
X59399300Y-134162700D03*
%TO.P,U301,3,GND*%
%TO.N,GND3*%
X61939300Y-134162700D03*
%TO.P,U301,4,GND*%
X64479300Y-134162700D03*
%TO.P,U301,5,SDA*%
%TO.N,unconnected-(U301-SDA-Pad5)*%
X67019300Y-134162700D03*
%TO.P,U301,6,SCL*%
%TO.N,unconnected-(U301-SCL-Pad6)*%
X69559300Y-134162700D03*
%TO.P,U301,7,D4*%
%TO.N,Row 5*%
X72099300Y-134162700D03*
%TO.P,U301,8,C6*%
%TO.N,Row 4*%
X74639300Y-134162700D03*
%TO.P,U301,9,D7*%
%TO.N,Row 3*%
X77179300Y-134162700D03*
%TO.P,U301,10,E6*%
%TO.N,unconnected-(U301-E6-Pad10)*%
X79719300Y-134162700D03*
%TO.P,U301,11,B4*%
%TO.N,unconnected-(U301-B4-Pad11)*%
X82259300Y-134162700D03*
%TO.P,U301,12,B5*%
%TO.N,unconnected-(U301-B5-Pad12)*%
X84799300Y-134162700D03*
%TO.P,U301,13,B6*%
%TO.N,COLUMN 11*%
X84799300Y-118922700D03*
%TO.P,U301,14,B2*%
%TO.N,COLUMN 10*%
X82259300Y-118922700D03*
%TO.P,U301,15,B3*%
%TO.N,COLUMN 9*%
X79719300Y-118922700D03*
%TO.P,U301,16,B1*%
%TO.N,COLUMN 8*%
X77179300Y-118922700D03*
%TO.P,U301,17,F7*%
%TO.N,COLUMN 7*%
X74639300Y-118922700D03*
%TO.P,U301,18,F6*%
%TO.N,COLUMN 6*%
X72099300Y-118922700D03*
%TO.P,U301,19,F5*%
%TO.N,unconnected-(U301-F5-Pad19)*%
X69559300Y-118922700D03*
%TO.P,U301,20,F4*%
%TO.N,unconnected-(U301-F4-Pad20)*%
X67019300Y-118922700D03*
%TO.P,U301,21,VCC*%
%TO.N,unconnected-(U301-VCC-Pad21)*%
X64479300Y-118922700D03*
%TO.P,U301,22,RST*%
%TO.N,unconnected-(U301-RST-Pad22)*%
X61939300Y-118922700D03*
%TO.P,U301,23,GND*%
%TO.N,GND3*%
X59399300Y-118922700D03*
%TO.P,U301,24,RAW*%
%TO.N,Net-(BT301-+)*%
X56859300Y-118922700D03*
%TD*%
D10*
%TO.P,SW211,1,1*%
%TO.N,COLUMN 4*%
X296229300Y-130542700D03*
%TO.P,SW211,2,2*%
%TO.N,Net-(D211-A)*%
X308229300Y-132742700D03*
%TD*%
%TO.P,SW312,1,1*%
%TO.N,COLUMN 11*%
X95779300Y-130542700D03*
%TO.P,SW312,2,2*%
%TO.N,Net-(D312-A)*%
X107779300Y-132742700D03*
%TD*%
%TO.P,SW210,1,1*%
%TO.N,COLUMN 3*%
X277179300Y-125780200D03*
%TO.P,SW210,2,2*%
%TO.N,Net-(D210-A)*%
X289179300Y-127980200D03*
%TD*%
D11*
%TO.P,BT301,1,+*%
%TO.N,Net-(BT301-+)*%
X58279293Y-127167700D03*
D12*
%TO.P,BT301,2,-*%
%TO.N,Net-(BT301--)*%
X58279293Y-125897700D03*
%TD*%
D14*
%TO.P,SW314,1,1*%
%TO.N,COLUMN 11*%
X75997088Y-165551971D03*
%TO.P,SW314,2,2*%
%TO.N,Net-(D314-A)*%
X88138630Y-164359098D03*
%TD*%
D13*
%TO.P,SW213,1,1*%
%TO.N,COLUMN 4*%
X317068708Y-158385399D03*
%TO.P,SW213,2,2*%
%TO.N,Net-(D213-A)*%
X327997446Y-163807823D03*
%TD*%
D10*
%TO.P,SW301,1,1*%
%TO.N,COLUMN 6*%
X191029300Y-116255200D03*
%TO.P,SW301,2,2*%
%TO.N,Net-(D301-A)*%
X203029300Y-118455200D03*
%TD*%
D15*
%TO.P,U201,1,TX*%
%TO.N,unconnected-(U201-TX-Pad1)*%
X361199300Y-118922700D03*
D16*
%TO.P,U201,2,RX*%
%TO.N,unconnected-(U201-RX-Pad2)*%
X358659300Y-118922700D03*
%TO.P,U201,3,GND*%
%TO.N,GND2*%
X356119300Y-118922700D03*
%TO.P,U201,4,GND*%
X353579300Y-118922700D03*
%TO.P,U201,5,SDA*%
%TO.N,unconnected-(U201-SDA-Pad5)*%
X351039300Y-118922700D03*
%TO.P,U201,6,SCL*%
%TO.N,unconnected-(U201-SCL-Pad6)*%
X348499300Y-118922700D03*
%TO.P,U201,7,D4*%
%TO.N,COLUMN 0*%
X345959300Y-118922700D03*
%TO.P,U201,8,C6*%
%TO.N,COLUMN 1*%
X343419300Y-118922700D03*
%TO.P,U201,9,D7*%
%TO.N,COLUMN 2*%
X340879300Y-118922700D03*
%TO.P,U201,10,E6*%
%TO.N,COLUMN 3*%
X338339300Y-118922700D03*
%TO.P,U201,11,B4*%
%TO.N,COLUMN 4*%
X335799300Y-118922700D03*
%TO.P,U201,12,B5*%
%TO.N,COLUMN 5*%
X333259300Y-118922700D03*
%TO.P,U201,13,B6*%
%TO.N,unconnected-(U201-B6-Pad13)*%
X333259300Y-134162700D03*
%TO.P,U201,14,B2*%
%TO.N,unconnected-(U201-B2-Pad14)*%
X335799300Y-134162700D03*
%TO.P,U201,15,B3*%
%TO.N,unconnected-(U201-B3-Pad15)*%
X338339300Y-134162700D03*
%TO.P,U201,16,B1*%
%TO.N,unconnected-(U201-B1-Pad16)*%
X340879300Y-134162700D03*
%TO.P,U201,17,F7*%
%TO.N,Row 0*%
X343419300Y-134162700D03*
%TO.P,U201,18,F6*%
%TO.N,Row 1*%
X345959300Y-134162700D03*
%TO.P,U201,19,F5*%
%TO.N,Row 2*%
X348499300Y-134162700D03*
%TO.P,U201,20,F4*%
%TO.N,unconnected-(U201-F4-Pad20)*%
X351039300Y-134162700D03*
%TO.P,U201,21,VCC*%
%TO.N,unconnected-(U201-VCC-Pad21)*%
X353579300Y-134162700D03*
%TO.P,U201,22,RST*%
%TO.N,unconnected-(U201-RST-Pad22)*%
X356119300Y-134162700D03*
%TO.P,U201,23,GND*%
%TO.N,GND2*%
X358659300Y-134162700D03*
%TO.P,U201,24,RAW*%
%TO.N,Net-(BT201-+)*%
X361199300Y-134162700D03*
%TD*%
D10*
%TO.P,SW204,1,1*%
%TO.N,COLUMN 3*%
X277179300Y-106730200D03*
%TO.P,SW204,2,2*%
%TO.N,Net-(D204-A)*%
X289179300Y-108930200D03*
%TD*%
%TO.P,SW306,1,1*%
%TO.N,COLUMN 11*%
X95779300Y-111492700D03*
%TO.P,SW306,2,2*%
%TO.N,Net-(D306-A)*%
X107779300Y-113692700D03*
%TD*%
D17*
%TO.P,D208,1,K*%
%TO.N,Row 1*%
X252079300Y-145205200D03*
%TO.P,D208,2,A*%
%TO.N,Net-(D208-A)*%
X252079300Y-141805200D03*
%TD*%
%TO.P,D206,1,K*%
%TO.N,Row 0*%
X328279300Y-121392700D03*
%TO.P,D206,2,A*%
%TO.N,Net-(D206-A)*%
X328279300Y-117992700D03*
%TD*%
%TO.P,D309,1,K*%
%TO.N,Row 4*%
X165929300Y-140442700D03*
%TO.P,D309,2,A*%
%TO.N,Net-(D309-A)*%
X165929300Y-137042700D03*
%TD*%
%TO.P,D301,1,K*%
%TO.N,Row 3*%
X204029300Y-126155200D03*
%TO.P,D301,2,A*%
%TO.N,Net-(D301-A)*%
X204029300Y-122755200D03*
%TD*%
%TO.P,D310,1,K*%
%TO.N,Row 4*%
X146879300Y-135680200D03*
%TO.P,D310,2,A*%
%TO.N,Net-(D310-A)*%
X146879300Y-132280200D03*
%TD*%
%TO.P,D312,1,K*%
%TO.N,Row 4*%
X108779300Y-140442700D03*
%TO.P,D312,2,A*%
%TO.N,Net-(D312-A)*%
X108779300Y-137042700D03*
%TD*%
%TO.P,D211,1,K*%
%TO.N,Row 1*%
X309229300Y-140442700D03*
%TO.P,D211,2,A*%
%TO.N,Net-(D211-A)*%
X309229300Y-137042700D03*
%TD*%
%TO.P,D201,1,K*%
%TO.N,Row 0*%
X233029300Y-126155200D03*
%TO.P,D201,2,A*%
%TO.N,Net-(D201-A)*%
X233029300Y-122755200D03*
%TD*%
%TO.P,D203,1,K*%
%TO.N,Row 0*%
X271129300Y-121392700D03*
%TO.P,D203,2,A*%
%TO.N,Net-(D203-A)*%
X271129300Y-117992700D03*
%TD*%
D18*
%TO.P,D314,1,K*%
%TO.N,Row 5*%
X90983912Y-170738955D03*
%TO.P,D314,2,A*%
%TO.N,Net-(D314-A)*%
X90046744Y-167470665D03*
%TD*%
D17*
%TO.P,D304,1,K*%
%TO.N,Row 3*%
X146879300Y-116630200D03*
%TO.P,D304,2,A*%
%TO.N,Net-(D304-A)*%
X146879300Y-113230200D03*
%TD*%
%TO.P,D202,1,K*%
%TO.N,Row 0*%
X252079300Y-126155200D03*
%TO.P,D202,2,A*%
%TO.N,Net-(D202-A)*%
X252079300Y-122755200D03*
%TD*%
%TO.P,D305,1,K*%
%TO.N,Row 3*%
X127829300Y-121392700D03*
%TO.P,D305,2,A*%
%TO.N,Net-(D305-A)*%
X127829300Y-117992700D03*
%TD*%
%TO.P,D205,1,K*%
%TO.N,Row 0*%
X309229300Y-121392700D03*
%TO.P,D205,2,A*%
%TO.N,Net-(D205-A)*%
X309229300Y-117992700D03*
%TD*%
%TO.P,D303,1,K*%
%TO.N,Row 3*%
X165929300Y-121392700D03*
%TO.P,D303,2,A*%
%TO.N,Net-(D303-A)*%
X165929300Y-117992700D03*
%TD*%
D18*
%TO.P,D313,1,K*%
%TO.N,Row 5*%
X109183912Y-165488955D03*
%TO.P,D313,2,A*%
%TO.N,Net-(D313-A)*%
X108246744Y-162220665D03*
%TD*%
D17*
%TO.P,D207,1,K*%
%TO.N,Row 1*%
X233029300Y-145205200D03*
%TO.P,D207,2,A*%
%TO.N,Net-(D207-A)*%
X233029300Y-141805200D03*
%TD*%
%TO.P,D311,1,K*%
%TO.N,Row 4*%
X127829300Y-140442700D03*
%TO.P,D311,2,A*%
%TO.N,Net-(D311-A)*%
X127829300Y-137042700D03*
%TD*%
%TO.P,D302,1,K*%
%TO.N,Row 3*%
X184979300Y-126155200D03*
%TO.P,D302,2,A*%
%TO.N,Net-(D302-A)*%
X184979300Y-122755200D03*
%TD*%
%TO.P,D307,1,K*%
%TO.N,Row 4*%
X204029300Y-145205200D03*
%TO.P,D307,2,A*%
%TO.N,Net-(D307-A)*%
X204029300Y-141805200D03*
%TD*%
%TO.P,D209,1,K*%
%TO.N,Row 1*%
X271129300Y-140442700D03*
%TO.P,D209,2,A*%
%TO.N,Net-(D209-A)*%
X271129300Y-137042700D03*
%TD*%
D19*
%TO.P,D213,1,K*%
%TO.N,Row 2*%
X326528862Y-171441968D03*
%TO.P,D213,2,A*%
%TO.N,Net-(D213-A)*%
X327466030Y-168173678D03*
%TD*%
D17*
%TO.P,D306,1,K*%
%TO.N,Row 3*%
X108779300Y-121392700D03*
%TO.P,D306,2,A*%
%TO.N,Net-(D306-A)*%
X108779300Y-117992700D03*
%TD*%
%TO.P,D210,1,K*%
%TO.N,Row 1*%
X290179300Y-135680200D03*
%TO.P,D210,2,A*%
%TO.N,Net-(D210-A)*%
X290179300Y-132280200D03*
%TD*%
D19*
%TO.P,D214,1,K*%
%TO.N,Row 2*%
X344840897Y-176679077D03*
D20*
%TO.P,D214,2,A*%
%TO.N,Net-(D214-A)*%
X345778065Y-173410787D03*
%TD*%
D17*
%TO.P,D308,1,K*%
%TO.N,Row 4*%
X184979300Y-145205200D03*
%TO.P,D308,2,A*%
%TO.N,Net-(D308-A)*%
X184979300Y-141805200D03*
%TD*%
%TO.P,D212,1,K*%
%TO.N,Row 1*%
X328279300Y-140442700D03*
%TO.P,D212,2,A*%
%TO.N,Net-(D212-A)*%
X328279300Y-137042700D03*
%TD*%
%TO.P,D204,1,K*%
%TO.N,Row 0*%
X290179300Y-116630200D03*
%TO.P,D204,2,A*%
%TO.N,Net-(D204-A)*%
X290179300Y-113230200D03*
%TD*%
D21*
%TO.N,Row 0*%
X252029300Y-128155200D03*
X309229300Y-123442700D03*
X233029300Y-128155200D03*
X290229300Y-123442700D03*
X271129300Y-123442700D03*
X328279300Y-123392700D03*
%TO.N,Row 1*%
X290179300Y-137630200D03*
X252029300Y-147155200D03*
X233029300Y-147155200D03*
X328279300Y-142392700D03*
X271129300Y-142442700D03*
X309229300Y-142442700D03*
%TO.N,Row 2*%
X326528862Y-173441968D03*
X344840897Y-178679077D03*
%TO.N,Row 3*%
X204029300Y-128155200D03*
X108829300Y-123442700D03*
X146929300Y-123442700D03*
X166029300Y-128155200D03*
X127829300Y-123442700D03*
X185029300Y-128155200D03*
%TO.N,Row 4*%
X185029300Y-147155200D03*
X127829300Y-142441993D03*
X146929300Y-142442700D03*
X166029300Y-147155200D03*
X108829300Y-142442700D03*
X204029300Y-147155200D03*
%TO.N,Row 5*%
X72099300Y-173172700D03*
%TD*%
D22*
%TO.N,Row 5*%
X88423092Y-172848906D02*
G75*
G02*
X84575336Y-174442709I-3847792J3847806D01*
G01*
X90758478Y-170738955D02*
G75*
G03*
X90373650Y-170898371I22J-544245D01*
G01*
X105527703Y-169145161D02*
G75*
G02*
X101679948Y-170738986I-3847803J3847761D01*
G01*
X72734300Y-173807700D02*
G75*
G03*
X74267325Y-174442689I1533000J1533000D01*
G01*
X91209345Y-170738955D02*
X90758478Y-170738955D01*
%TO.N,Row 4*%
X146879300Y-142357344D02*
G75*
G03*
X146904313Y-142417687I85400J44D01*
G01*
X165979300Y-140492700D02*
G75*
G02*
X166029295Y-140613410I-120700J-120700D01*
G01*
%TO.N,Row 3*%
X165979300Y-128069844D02*
G75*
G03*
X166004313Y-128130187I85400J44D01*
G01*
X146879300Y-123357344D02*
G75*
G03*
X146904313Y-123417687I85400J44D01*
G01*
X165954300Y-121417700D02*
G75*
G02*
X165979318Y-121478055I-60400J-60400D01*
G01*
%TO.N,COLUMN 11*%
X95779300Y-142238736D02*
G75*
G02*
X94185500Y-146086485I-5441600J36D01*
G01*
X92470879Y-109169700D02*
G75*
G03*
X90788674Y-109866511I21J-2379000D01*
G01*
X76448596Y-163823403D02*
G75*
G03*
X75997107Y-164913441I1090004J-1089997D01*
G01*
X85883592Y-114771565D02*
G75*
G03*
X84799283Y-117389279I2617708J-2617735D01*
G01*
X94153097Y-109866497D02*
G75*
G03*
X92470879Y-109169710I-1682197J-1682203D01*
G01*
%TO.N,COLUMN 10*%
X94722065Y-158549934D02*
G75*
G03*
X94261051Y-159662900I1112935J-1112966D01*
G01*
X93583263Y-108792700D02*
G75*
G03*
X89735536Y-110386521I37J-5441500D01*
G01*
X114829300Y-136188736D02*
G75*
G02*
X113235500Y-140036485I-5441600J36D01*
G01*
X82634067Y-117487935D02*
G75*
G03*
X82259291Y-118392700I904733J-904765D01*
G01*
X113479299Y-110142701D02*
G75*
G03*
X110220111Y-108792696I-3259199J-3259199D01*
G01*
%TO.N,COLUMN 9*%
X83416621Y-116172221D02*
G75*
G02*
X81481727Y-116973691I-1934921J1934921D01*
G01*
X127199566Y-106821906D02*
G75*
G02*
X123351810Y-108415691I-3847766J3847806D01*
G01*
X93427105Y-108415700D02*
G75*
G03*
X89579357Y-110009500I-5J-5441500D01*
G01*
X80033796Y-117288177D02*
G75*
G03*
X79719310Y-118047439I759204J-759223D01*
G01*
X80793058Y-116973681D02*
G75*
G03*
X80033826Y-117288207I42J-1073719D01*
G01*
X132976049Y-105826951D02*
G75*
G03*
X130795411Y-104923696I-2180649J-2180649D01*
G01*
X130585287Y-104923700D02*
G75*
G03*
X128045945Y-105975532I13J-3591200D01*
G01*
%TO.N,COLUMN 8*%
X93270947Y-108038700D02*
G75*
G03*
X89423178Y-109632479I-47J-5441500D01*
G01*
X83920490Y-115135192D02*
G75*
G02*
X80392148Y-116596699I-3528390J3528392D01*
G01*
X79135632Y-116596681D02*
G75*
G03*
X77752283Y-117169664I-32J-1956319D01*
G01*
X77596503Y-117325472D02*
G75*
G03*
X77179286Y-118332687I1007197J-1007228D01*
G01*
X147577091Y-106140493D02*
G75*
G03*
X143729336Y-104546690I-3847791J-3847807D01*
G01*
X131195579Y-104546700D02*
G75*
G03*
X127347823Y-106140493I21J-5441600D01*
G01*
X127043408Y-106444907D02*
G75*
G02*
X123195652Y-108038721I-3847808J3847807D01*
G01*
%TO.N,COLUMN 7*%
X77136785Y-116219681D02*
G75*
G03*
X75370797Y-116951178I15J-2497519D01*
G01*
X166487591Y-110763493D02*
G75*
G03*
X162639836Y-109169690I-3847791J-3847807D01*
G01*
X131039421Y-104169700D02*
G75*
G03*
X127191644Y-105763472I-21J-5441600D01*
G01*
X75077716Y-117244259D02*
G75*
G03*
X74639278Y-118302687I1058384J-1058441D01*
G01*
X126887250Y-106067907D02*
G75*
G02*
X123039494Y-107661680I-3847750J3847807D01*
G01*
X93114789Y-107661700D02*
G75*
G03*
X89267049Y-109255508I11J-5441500D01*
G01*
X149545666Y-107575906D02*
G75*
G03*
X153393421Y-109169669I3847734J3847806D01*
G01*
X83896638Y-114625888D02*
G75*
G02*
X80048882Y-116219658I-3847738J3847788D01*
G01*
X147733250Y-105763492D02*
G75*
G03*
X143885494Y-104169719I-3847750J-3847808D01*
G01*
%TO.N,COLUMN 6*%
X166643750Y-110386492D02*
G75*
G03*
X162795994Y-108792719I-3847750J-3847808D01*
G01*
X168256166Y-111998906D02*
G75*
G03*
X172103921Y-113592669I3847734J3847806D01*
G01*
X147889408Y-105386492D02*
G75*
G03*
X144041652Y-103792749I-3847708J-3847808D01*
G01*
X92958631Y-107284700D02*
G75*
G03*
X89110870Y-108878487I-31J-5441500D01*
G01*
X83740479Y-114248888D02*
G75*
G02*
X79892723Y-115842687I-3847779J3847788D01*
G01*
X149701823Y-107198907D02*
G75*
G03*
X153549579Y-108792699I3847777J3847807D01*
G01*
X74967227Y-115842681D02*
G75*
G03*
X72939285Y-116682666I-27J-2867919D01*
G01*
X72594283Y-117027690D02*
G75*
G03*
X72099296Y-118222687I1195017J-1195010D01*
G01*
X130883263Y-103792700D02*
G75*
G03*
X127035515Y-105386501I37J-5441600D01*
G01*
X189698050Y-114923950D02*
G75*
G03*
X186484128Y-113592689I-3213950J-3213950D01*
G01*
X126731092Y-105690907D02*
G75*
G02*
X122883336Y-107284710I-3847792J3847807D01*
G01*
%TO.N,Net-(D314-A)*%
X89621259Y-165841727D02*
G75*
G02*
X90046732Y-166868938I-1027159J-1027173D01*
G01*
%TO.N,Net-(D313-A)*%
X107803197Y-160522585D02*
G75*
G02*
X108246749Y-161593397I-1070797J-1070815D01*
G01*
%TO.N,Net-(D312-A)*%
X108279300Y-133242700D02*
G75*
G02*
X108779297Y-134449806I-1207100J-1207100D01*
G01*
%TO.N,Net-(D311-A)*%
X127329300Y-133242700D02*
G75*
G02*
X127829297Y-134449806I-1207100J-1207100D01*
G01*
%TO.N,Net-(D310-A)*%
X146379300Y-128480200D02*
G75*
G02*
X146879297Y-129687306I-1207100J-1207100D01*
G01*
%TO.N,Net-(D309-A)*%
X165429300Y-133242700D02*
G75*
G02*
X165929297Y-134449806I-1207100J-1207100D01*
G01*
%TO.N,Net-(D308-A)*%
X184479300Y-138005200D02*
G75*
G02*
X184979297Y-139212306I-1207100J-1207100D01*
G01*
%TO.N,Net-(D307-A)*%
X203529300Y-138005200D02*
G75*
G02*
X204029297Y-139212306I-1207100J-1207100D01*
G01*
%TO.N,Net-(D306-A)*%
X108279300Y-114192700D02*
G75*
G02*
X108779297Y-115399806I-1207100J-1207100D01*
G01*
%TO.N,Net-(D305-A)*%
X127329300Y-114192700D02*
G75*
G02*
X127829297Y-115399806I-1207100J-1207100D01*
G01*
%TO.N,Net-(D304-A)*%
X146379300Y-109430200D02*
G75*
G02*
X146879297Y-110637306I-1207100J-1207100D01*
G01*
%TO.N,Net-(D303-A)*%
X164929300Y-116285593D02*
G75*
G03*
X165429298Y-117492702I1707100J-7D01*
G01*
%TO.N,Net-(D302-A)*%
X184479300Y-118955200D02*
G75*
G02*
X184979297Y-120162306I-1207100J-1207100D01*
G01*
%TO.N,Net-(D301-A)*%
X203529300Y-118955200D02*
G75*
G02*
X204029297Y-120162306I-1207100J-1207100D01*
G01*
%TO.N,Net-(D214-A)*%
X346043773Y-169310640D02*
G75*
G03*
X345778062Y-169952115I641427J-641460D01*
G01*
%TO.N,Net-(D213-A)*%
X327731738Y-164073531D02*
G75*
G03*
X327466031Y-164715006I641462J-641469D01*
G01*
%TO.N,Net-(D212-A)*%
X327779300Y-133242700D02*
G75*
G02*
X328279297Y-134449806I-1207100J-1207100D01*
G01*
%TO.N,Net-(D211-A)*%
X308729300Y-133242700D02*
G75*
G02*
X309229297Y-134449806I-1207100J-1207100D01*
G01*
%TO.N,Net-(D210-A)*%
X289679300Y-128480200D02*
G75*
G02*
X290179297Y-129687306I-1207100J-1207100D01*
G01*
%TO.N,Net-(D209-A)*%
X270629300Y-133242700D02*
G75*
G02*
X271129297Y-134449806I-1207100J-1207100D01*
G01*
%TO.N,Net-(D208-A)*%
X251579300Y-138005200D02*
G75*
G02*
X252079297Y-139212306I-1207100J-1207100D01*
G01*
%TO.N,Net-(D207-A)*%
X232529300Y-138005200D02*
G75*
G02*
X233029297Y-139212306I-1207100J-1207100D01*
G01*
%TO.N,Net-(D206-A)*%
X327779300Y-114192700D02*
G75*
G02*
X328279297Y-115399806I-1207100J-1207100D01*
G01*
%TO.N,Net-(D205-A)*%
X308729300Y-114192700D02*
G75*
G02*
X309229297Y-115399806I-1207100J-1207100D01*
G01*
%TO.N,Net-(D204-A)*%
X289679300Y-109430200D02*
G75*
G02*
X290179297Y-110637306I-1207100J-1207100D01*
G01*
%TO.N,Net-(D203-A)*%
X270629300Y-114192700D02*
G75*
G02*
X271129297Y-115399806I-1207100J-1207100D01*
G01*
%TO.N,Net-(D202-A)*%
X251579300Y-118955200D02*
G75*
G02*
X252079297Y-120162306I-1207100J-1207100D01*
G01*
%TO.N,Net-(D201-A)*%
X232529300Y-118955200D02*
G75*
G02*
X233029297Y-120162306I-1207100J-1207100D01*
G01*
%TO.N,Row 2*%
X344820098Y-176699875D02*
G75*
G03*
X344799288Y-176750087I50202J-50225D01*
G01*
X344834273Y-176685700D02*
G75*
G03*
X344832703Y-176683617I-973J900D01*
G01*
X344799300Y-178608066D02*
G75*
G03*
X344820083Y-178658293I71000J-34D01*
G01*
%TO.N,Row 0*%
X252054300Y-126180200D02*
G75*
G02*
X252079318Y-126240555I-60400J-60400D01*
G01*
X252079300Y-128069844D02*
G75*
G02*
X252054287Y-128130187I-85400J44D01*
G01*
X290179300Y-123357344D02*
G75*
G03*
X290204313Y-123417687I85400J44D01*
G01*
%TO.N,COLUMN 5*%
X332204221Y-114883413D02*
G75*
G02*
X333259291Y-117430595I-2547221J-2547187D01*
G01*
X318633764Y-109527700D02*
G75*
G03*
X316261810Y-110510210I36J-3354500D01*
G01*
X315279300Y-141267101D02*
G75*
G03*
X316873082Y-145114867I5441600J1D01*
G01*
X328442302Y-111121492D02*
G75*
G03*
X324594546Y-109527682I-3847802J-3847808D01*
G01*
%TO.N,COLUMN 4*%
X328598460Y-110744492D02*
G75*
G03*
X324750704Y-109150712I-3847760J-3847808D01*
G01*
X300227344Y-109150700D02*
G75*
G03*
X297400287Y-110321687I-44J-3998000D01*
G01*
X296229300Y-135292027D02*
G75*
G03*
X297823095Y-139139780I5441600J27D01*
G01*
X334979065Y-117125095D02*
G75*
G03*
X335262984Y-117242717I283935J283895D01*
G01*
X335546903Y-117360303D02*
G75*
G03*
X335262984Y-117242705I-283903J-283897D01*
G01*
X335614299Y-117427701D02*
G75*
G02*
X335799287Y-117874329I-446599J-446599D01*
G01*
%TO.N,COLUMN 3*%
X337895800Y-117309200D02*
G75*
G03*
X336825096Y-116865702I-1070700J-1070700D01*
G01*
X328754618Y-110367492D02*
G75*
G03*
X324906862Y-108773742I-3847718J-3847808D01*
G01*
X280593513Y-104730200D02*
G75*
G03*
X278179296Y-105730196I-13J-3414200D01*
G01*
X337925642Y-117339042D02*
G75*
G02*
X338339304Y-118337700I-998642J-998658D01*
G01*
X334475194Y-116088068D02*
G75*
G03*
X336352563Y-116865726I1877406J1877368D01*
G01*
X290511118Y-106323992D02*
G75*
G03*
X286663362Y-104730242I-3847718J-3847808D01*
G01*
X291367033Y-107179907D02*
G75*
G03*
X295214789Y-108773692I3847767J3847807D01*
G01*
%TO.N,COLUMN 2*%
X340444429Y-117257829D02*
G75*
G02*
X340879312Y-118307700I-1049829J-1049871D01*
G01*
X262845182Y-108730200D02*
G75*
G03*
X259510555Y-110111455I18J-4715900D01*
G01*
X340265799Y-117079201D02*
G75*
G03*
X338784679Y-116465709I-1481099J-1481099D01*
G01*
X291523191Y-106802907D02*
G75*
G03*
X295370947Y-108396651I3847709J3847807D01*
G01*
X275439079Y-104353200D02*
G75*
G03*
X271591323Y-105946993I21J-5441600D01*
G01*
X333877613Y-114957329D02*
G75*
G03*
X337519142Y-116465670I3641487J3641529D01*
G01*
X270401908Y-107136407D02*
G75*
G02*
X266554152Y-108730221I-3847808J3847807D01*
G01*
X328910776Y-109990492D02*
G75*
G03*
X325063020Y-108396701I-3847776J-3847808D01*
G01*
X290667276Y-105946992D02*
G75*
G03*
X286819520Y-104353201I-3847776J-3847808D01*
G01*
%TO.N,COLUMN 1*%
X291679349Y-106425907D02*
G75*
G03*
X295527105Y-108019681I3847751J3847807D01*
G01*
X250868750Y-112136407D02*
G75*
G02*
X247020994Y-113730180I-3847750J3847807D01*
G01*
X275282921Y-103976200D02*
G75*
G03*
X271435144Y-105569972I-21J-5441600D01*
G01*
X290823433Y-105569993D02*
G75*
G03*
X286975678Y-103976231I-3847733J-3847807D01*
G01*
X243389744Y-113730200D02*
G75*
G03*
X240341787Y-114992687I-44J-4310400D01*
G01*
X329066933Y-109613493D02*
G75*
G03*
X325219178Y-108019731I-3847733J-3847807D01*
G01*
X342963216Y-117176616D02*
G75*
G02*
X343419290Y-118277700I-1101116J-1101084D01*
G01*
X270245750Y-106759407D02*
G75*
G02*
X266397994Y-108353180I-3847750J3847807D01*
G01*
X256905921Y-108353200D02*
G75*
G03*
X253058165Y-109946992I-21J-5441500D01*
G01*
X342647300Y-116860700D02*
G75*
G03*
X340783527Y-116088689I-1863800J-1863800D01*
G01*
X333948349Y-114494907D02*
G75*
G03*
X337796105Y-116088681I3847751J3847807D01*
G01*
%TO.N,COLUMN 0*%
X345506398Y-117188798D02*
G75*
G02*
X345959301Y-118282200I-1093398J-1093402D01*
G01*
X290979591Y-105192993D02*
G75*
G03*
X287131836Y-103599190I-3847791J-3847807D01*
G01*
X270089592Y-106382406D02*
G75*
G02*
X266241836Y-107976209I-3847792J3847806D01*
G01*
X256749763Y-107976200D02*
G75*
G03*
X252902015Y-109570001I37J-5441600D01*
G01*
X275126763Y-103599200D02*
G75*
G03*
X271279036Y-105193021I37J-5441500D01*
G01*
X224983323Y-113353200D02*
G75*
G03*
X221480293Y-114804193I-23J-4954000D01*
G01*
X291835508Y-106048906D02*
G75*
G03*
X295683263Y-107642710I3847792J3847806D01*
G01*
X344994300Y-116676700D02*
G75*
G03*
X342664583Y-115711707I-2329700J-2329700D01*
G01*
X250712592Y-111759407D02*
G75*
G02*
X246864836Y-113353210I-3847792J3847807D01*
G01*
X334104508Y-114117906D02*
G75*
G03*
X337952263Y-115711710I3847792J3847806D01*
G01*
X329223091Y-109236493D02*
G75*
G03*
X325375336Y-107642690I-3847791J-3847807D01*
G01*
X252902006Y-109569992D02*
X250712592Y-111759407D01*
X220029300Y-116255200D02*
X220029300Y-135305200D01*
X345959300Y-118282200D02*
X345959300Y-118922700D01*
X342664583Y-115711700D02*
X337952263Y-115711700D01*
X220029300Y-116255200D02*
X221480300Y-114804200D01*
X270089592Y-106382406D02*
X271279007Y-105192992D01*
X220029300Y-116255200D02*
X220029300Y-135305200D01*
X290979592Y-105192992D02*
X291835507Y-106048907D01*
X287131836Y-103599200D02*
X275126763Y-103599200D01*
X295683263Y-107642700D02*
X325375336Y-107642700D01*
X334104507Y-114117907D02*
X329223092Y-109236492D01*
X224983323Y-113353200D02*
X246864836Y-113353200D01*
X266241836Y-107976200D02*
X256749763Y-107976200D01*
X345506398Y-117188798D02*
X344994300Y-116676700D01*
%TO.N,COLUMN 1*%
X266397994Y-108353200D02*
X256905921Y-108353200D01*
X340783527Y-116088700D02*
X337796105Y-116088700D01*
X240341800Y-114992700D02*
X239079300Y-116255200D01*
X271435164Y-105569992D02*
X270245750Y-106759407D01*
X329066934Y-109613492D02*
X333948349Y-114494907D01*
X239079300Y-135305200D02*
X239079300Y-116255200D01*
X275282921Y-103976200D02*
X286975678Y-103976200D01*
X343419300Y-118277700D02*
X343419300Y-118922700D01*
X295527105Y-108019700D02*
X325219178Y-108019700D01*
X342963216Y-117176616D02*
X342647300Y-116860700D01*
X291679349Y-106425907D02*
X290823434Y-105569992D01*
X239079300Y-135305200D02*
X239079300Y-116255200D01*
X250868750Y-112136407D02*
X253058165Y-109946992D01*
X247020994Y-113730200D02*
X243389744Y-113730200D01*
%TO.N,COLUMN 2*%
X259510550Y-110111450D02*
X258129300Y-111492700D01*
X291523191Y-106802907D02*
X290667276Y-105946992D01*
X258129300Y-111492700D02*
X258129300Y-130542700D01*
X295370947Y-108396700D02*
X325063020Y-108396700D01*
X262845182Y-108730200D02*
X266554152Y-108730200D01*
X340444429Y-117257829D02*
X340265800Y-117079200D01*
X340879300Y-118307700D02*
X340879300Y-118922700D01*
X275439079Y-104353200D02*
X286819520Y-104353200D01*
X338784679Y-116465700D02*
X337519142Y-116465700D01*
X333877613Y-114957329D02*
X328910776Y-109990492D01*
X258129300Y-111492700D02*
X258129300Y-130542700D01*
X271591322Y-105946992D02*
X270401908Y-107136407D01*
%TO.N,COLUMN 3*%
X290511118Y-106323992D02*
X291367033Y-107179907D01*
X336825096Y-116865700D02*
X336352563Y-116865700D01*
X278179300Y-105730200D02*
X277179300Y-106730200D01*
X280593513Y-104730200D02*
X286663362Y-104730200D01*
X337895800Y-117309200D02*
X337925642Y-117339042D01*
X277179300Y-106730200D02*
X277179300Y-125780200D01*
X277179300Y-106730200D02*
X277179300Y-125780200D01*
X324906862Y-108773700D02*
X295214789Y-108773700D01*
X328754618Y-110367492D02*
X334475194Y-116088068D01*
X338339300Y-118337700D02*
X338339300Y-118922700D01*
%TO.N,COLUMN 4*%
X296229300Y-111492700D02*
X296229300Y-130542700D01*
X296229300Y-111492700D02*
X296229300Y-130542700D01*
X296229300Y-135292027D02*
X296229300Y-130542700D01*
X335546903Y-117360303D02*
X335614300Y-117427700D01*
X335799300Y-117874329D02*
X335799300Y-118922700D01*
X324750704Y-109150700D02*
X300227344Y-109150700D01*
X328598460Y-110744492D02*
X334979064Y-117125096D01*
X297823092Y-139139783D02*
X317068708Y-158385399D01*
X297400300Y-110321700D02*
X296229300Y-111492700D01*
%TO.N,COLUMN 5*%
X333259300Y-117430595D02*
X333259300Y-118922700D01*
X318633764Y-109527700D02*
X324594546Y-109527700D01*
X315279300Y-111492700D02*
X315279300Y-130542700D01*
X315279300Y-111492700D02*
X316261800Y-110510200D01*
X332204222Y-114883412D02*
X328442302Y-111121492D01*
X315279300Y-111492700D02*
X315279300Y-130542700D01*
X315279300Y-141267101D02*
X315279300Y-130542700D01*
X316873092Y-145114857D02*
X335380743Y-163622508D01*
%TO.N,Row 0*%
X328279300Y-123392700D02*
X328279300Y-121392700D01*
X252054300Y-128130200D02*
X252029300Y-128155200D01*
X309229300Y-123442700D02*
X309229300Y-121442700D01*
X290179300Y-123357344D02*
X290179300Y-116630200D01*
X271129300Y-123442700D02*
X271129300Y-121442700D01*
X252054300Y-126180200D02*
X252029300Y-126155200D01*
X233029300Y-128155200D02*
X233029300Y-126155200D01*
X252079300Y-126240555D02*
X252079300Y-128069844D01*
X290229300Y-123442700D02*
X290204300Y-123417700D01*
%TO.N,Row 1*%
X290179300Y-137630200D02*
X290179300Y-135630200D01*
X309229300Y-142442700D02*
X309229300Y-140442700D01*
X233029300Y-147155200D02*
X233029300Y-145155200D01*
X328279300Y-142392700D02*
X328279300Y-140392700D01*
X252029300Y-147155200D02*
X252029300Y-145155200D01*
X271129300Y-142442700D02*
X271129300Y-140442700D01*
%TO.N,Row 2*%
X326528862Y-173441968D02*
X326528862Y-171441968D01*
X344799300Y-176750087D02*
X344799300Y-178608066D01*
X344840897Y-178679077D02*
X344820098Y-178658278D01*
X344820098Y-176699875D02*
X344834273Y-176685700D01*
X344832703Y-176683618D02*
X344824510Y-176688159D01*
%TO.N,Net-(D201-A)*%
X233029300Y-120162306D02*
X233029300Y-122755200D01*
X232529300Y-118955200D02*
X232029300Y-118455200D01*
%TO.N,Net-(D202-A)*%
X252079300Y-120162306D02*
X252079300Y-122755200D01*
X251579300Y-118955200D02*
X251079300Y-118455200D01*
%TO.N,Net-(D203-A)*%
X270629300Y-114192700D02*
X270129300Y-113692700D01*
X271129300Y-115399806D02*
X271129300Y-117992700D01*
%TO.N,Net-(D204-A)*%
X289679300Y-109430200D02*
X289179300Y-108930200D01*
X290179300Y-110637306D02*
X290179300Y-113230200D01*
%TO.N,Net-(D205-A)*%
X309229300Y-115399806D02*
X309229300Y-117992700D01*
X308729300Y-114192700D02*
X308229300Y-113692700D01*
%TO.N,Net-(D206-A)*%
X328279300Y-115399806D02*
X328279300Y-117992700D01*
X327779300Y-114192700D02*
X327279300Y-113692700D01*
%TO.N,Net-(D207-A)*%
X232529300Y-138005200D02*
X232029300Y-137505200D01*
X233029300Y-139212306D02*
X233029300Y-141805200D01*
%TO.N,Net-(D208-A)*%
X252079300Y-139212306D02*
X252079300Y-141805200D01*
X251579300Y-138005200D02*
X251079300Y-137505200D01*
%TO.N,Net-(D209-A)*%
X271129300Y-134449806D02*
X271129300Y-137042700D01*
X270629300Y-133242700D02*
X270129300Y-132742700D01*
%TO.N,Net-(D210-A)*%
X290179300Y-129687306D02*
X290179300Y-132280200D01*
X289679300Y-128480200D02*
X289179300Y-127980200D01*
%TO.N,Net-(D211-A)*%
X308729300Y-133242700D02*
X308229300Y-132742700D01*
X309229300Y-134449806D02*
X309229300Y-137042700D01*
%TO.N,Net-(D212-A)*%
X327779300Y-133242700D02*
X327279300Y-132742700D01*
X328279300Y-134449806D02*
X328279300Y-137042700D01*
%TO.N,Net-(D213-A)*%
X327466030Y-164715006D02*
X327466030Y-168173678D01*
X327731738Y-164073531D02*
X327997446Y-163807823D01*
%TO.N,Net-(D214-A)*%
X345778065Y-169952115D02*
X345778065Y-173410787D01*
X346043773Y-169310640D02*
X346309481Y-169044932D01*
%TO.N,Net-(D301-A)*%
X204029300Y-120162306D02*
X204029300Y-122755200D01*
X203529300Y-118955200D02*
X203029300Y-118455200D01*
%TO.N,Net-(D302-A)*%
X184479300Y-118955200D02*
X183979300Y-118455200D01*
X184979300Y-120162306D02*
X184979300Y-122755200D01*
%TO.N,Net-(D303-A)*%
X165429300Y-117492700D02*
X165929300Y-117992700D01*
X164929300Y-116285593D02*
X164929300Y-113692700D01*
%TO.N,Net-(D304-A)*%
X146379300Y-109430200D02*
X145879300Y-108930200D01*
X146879300Y-110637306D02*
X146879300Y-113230200D01*
%TO.N,Net-(D305-A)*%
X127829300Y-115399806D02*
X127829300Y-117992700D01*
X127329300Y-114192700D02*
X126829300Y-113692700D01*
%TO.N,Net-(D306-A)*%
X108279300Y-114192700D02*
X107779300Y-113692700D01*
X108779300Y-115399806D02*
X108779300Y-117992700D01*
%TO.N,Net-(D307-A)*%
X204029300Y-139212306D02*
X204029300Y-141805200D01*
X203529300Y-138005200D02*
X203029300Y-137505200D01*
%TO.N,Net-(D308-A)*%
X184979300Y-139212306D02*
X184979300Y-141805200D01*
X184479300Y-138005200D02*
X183979300Y-137505200D01*
%TO.N,Net-(D309-A)*%
X165929300Y-134449806D02*
X165929300Y-137042700D01*
X165429300Y-133242700D02*
X164929300Y-132742700D01*
%TO.N,Net-(D310-A)*%
X146879300Y-129687306D02*
X146879300Y-132280200D01*
X146379300Y-128480200D02*
X145879300Y-127980200D01*
%TO.N,Net-(D311-A)*%
X127829300Y-134449806D02*
X127829300Y-137042700D01*
X127329300Y-133242700D02*
X126829300Y-132742700D01*
%TO.N,Net-(D312-A)*%
X108279300Y-133242700D02*
X107779300Y-132742700D01*
X108779300Y-134449806D02*
X108779300Y-137042700D01*
%TO.N,Net-(D313-A)*%
X108246744Y-161593397D02*
X108246744Y-162220665D01*
X107803198Y-160522584D02*
X106402602Y-159121988D01*
%TO.N,Net-(D314-A)*%
X89621259Y-165841727D02*
X88138630Y-164359098D01*
X90046744Y-166868938D02*
X90046744Y-167470665D01*
%TO.N,COLUMN 6*%
X144041652Y-103792700D02*
X130883263Y-103792700D01*
X191029300Y-116255200D02*
X191029300Y-135305200D01*
X92958631Y-107284700D02*
X122883336Y-107284700D01*
X191029300Y-116255200D02*
X189698050Y-114923950D01*
X72939296Y-116682677D02*
X72594283Y-117027690D01*
X172103921Y-113592700D02*
X186484128Y-113592700D01*
X162795994Y-108792700D02*
X153549579Y-108792700D01*
X166643750Y-110386492D02*
X168256165Y-111998907D01*
X147889408Y-105386492D02*
X149701823Y-107198907D01*
X89110875Y-108878492D02*
X83740479Y-114248888D01*
X72099300Y-118222687D02*
X72099300Y-118922700D01*
X79892723Y-115842681D02*
X74967227Y-115842681D01*
X127035506Y-105386492D02*
X126731092Y-105690907D01*
%TO.N,COLUMN 7*%
X131039421Y-104169700D02*
X143885494Y-104169700D01*
X149545665Y-107575907D02*
X147733250Y-105763492D01*
X77136785Y-116219681D02*
X80048882Y-116219681D01*
X171979300Y-116255200D02*
X166487592Y-110763492D01*
X75370796Y-116951177D02*
X75077715Y-117244258D01*
X162639836Y-109169700D02*
X153393421Y-109169700D01*
X89267033Y-109255492D02*
X83896638Y-114625888D01*
X171979300Y-116255200D02*
X171979300Y-135305200D01*
X127191664Y-105763492D02*
X126887250Y-106067907D01*
X123039494Y-107661700D02*
X93114789Y-107661700D01*
X74639300Y-118302687D02*
X74639300Y-118922700D01*
%TO.N,COLUMN 8*%
X89423191Y-109632492D02*
X83920491Y-115135193D01*
X77752296Y-117169677D02*
X77596502Y-117325471D01*
X143729336Y-104546700D02*
X131195579Y-104546700D01*
X152929300Y-111492700D02*
X152929300Y-130542700D01*
X77179300Y-118332687D02*
X77179300Y-118922700D01*
X80392148Y-116596681D02*
X79135632Y-116596681D01*
X127347822Y-106140492D02*
X127043408Y-106444907D01*
X93270947Y-108038700D02*
X123195652Y-108038700D01*
X147577092Y-106140492D02*
X152929300Y-111492700D01*
%TO.N,COLUMN 9*%
X132976050Y-105826950D02*
X133879300Y-106730200D01*
X83416621Y-116172221D02*
X89579349Y-110009492D01*
X127199566Y-106821906D02*
X128045943Y-105975530D01*
X133879300Y-106730200D02*
X133879300Y-125780200D01*
X123351810Y-108415700D02*
X93427105Y-108415700D01*
X81481727Y-116973681D02*
X80793058Y-116973681D01*
X130795411Y-104923700D02*
X130585287Y-104923700D01*
X79719300Y-118047439D02*
X79719300Y-118922700D01*
%TO.N,COLUMN 10*%
X94722065Y-158549934D02*
X113235507Y-140036492D01*
X82259300Y-118392700D02*
X82259300Y-118922700D01*
X114829300Y-111492700D02*
X113479300Y-110142700D01*
X94261060Y-159662900D02*
X94261060Y-160314861D01*
X114829300Y-111492700D02*
X114829300Y-130542700D01*
X89735507Y-110386492D02*
X82634066Y-117487934D01*
X93583263Y-108792700D02*
X110220111Y-108792700D01*
X114829300Y-136188736D02*
X114829300Y-130542700D01*
%TO.N,COLUMN 11*%
X95779300Y-142238736D02*
X95779300Y-130542700D01*
X84799300Y-117389279D02*
X84799300Y-118922700D01*
X95779300Y-111492700D02*
X94153097Y-109866497D01*
X75997088Y-164913441D02*
X75997088Y-165551971D01*
X95779300Y-111492700D02*
X95779300Y-130542700D01*
X90788660Y-109866497D02*
X85883592Y-114771565D01*
X94185507Y-146086492D02*
X76448596Y-163823403D01*
%TO.N,Row 3*%
X108829300Y-123442700D02*
X108829300Y-121442700D01*
X185029300Y-128155200D02*
X185029300Y-126155200D01*
X165979300Y-128069844D02*
X165979300Y-121478055D01*
X166004300Y-128130200D02*
X166029300Y-128155200D01*
X127829300Y-123442700D02*
X127829300Y-121392700D01*
X204029300Y-128155200D02*
X204029300Y-126155200D01*
X146929300Y-123442700D02*
X146929300Y-121442700D01*
X165954300Y-121417700D02*
X165929300Y-121392700D01*
X146904300Y-123417700D02*
X146929300Y-123442700D01*
X146879300Y-123357344D02*
X146879300Y-116630200D01*
%TO.N,Row 4*%
X165979300Y-140492700D02*
X165929300Y-140442700D01*
X146879300Y-142357344D02*
X146879300Y-135680200D01*
X127829300Y-142441993D02*
X127829300Y-140442700D01*
X146904300Y-142417700D02*
X146929300Y-142442700D01*
X108829300Y-142442700D02*
X108829300Y-140442700D01*
X166029300Y-140613410D02*
X166029300Y-147155200D01*
X204029300Y-147155200D02*
X204029300Y-145205200D01*
X185029300Y-147155200D02*
X185029300Y-145155200D01*
%TO.N,Row 5*%
X105527704Y-169145162D02*
X109183912Y-165488955D01*
X72099300Y-173172700D02*
X72734300Y-173807700D01*
X88423092Y-172848906D02*
X90373639Y-170898360D01*
X101679948Y-170738955D02*
X91209345Y-170738955D01*
X84575336Y-174442700D02*
X74267325Y-174442700D01*
%TD*%
%TA.AperFunction,Conductor*%
%TO.N,Row 5*%
G36*
X90534149Y-170506047D02*
G01*
X90974196Y-170732875D01*
X90979978Y-170739711D01*
X90979234Y-170748635D01*
X90979221Y-170748659D01*
X90737880Y-171214188D01*
X90731030Y-171219956D01*
X90722830Y-171219534D01*
X90380782Y-171070914D01*
X90377172Y-171068456D01*
X90209497Y-170900781D01*
X90206070Y-170892508D01*
X90208754Y-170885051D01*
X90321576Y-170748635D01*
X90519772Y-170508989D01*
X90527685Y-170504799D01*
X90534149Y-170506047D01*
G37*
%TD.AperFunction*%
%TD*%
%TA.AperFunction,Conductor*%
%TO.N,COLUMN 11*%
G36*
X76815262Y-163294758D02*
G01*
X76981857Y-163461353D01*
X76985175Y-163468035D01*
X77221855Y-165192360D01*
X77219585Y-165201022D01*
X77213476Y-165205201D01*
X76005353Y-165550116D01*
X75996457Y-165549092D01*
X75991887Y-165544500D01*
X75383596Y-164437498D01*
X75382616Y-164428600D01*
X75386547Y-164422726D01*
X76799687Y-163293889D01*
X76808289Y-163291403D01*
X76815262Y-163294758D01*
G37*
%TD.AperFunction*%
%TD*%
%TA.AperFunction,Conductor*%
%TO.N,COLUMN 10*%
G36*
X95059577Y-158050562D02*
G01*
X95226156Y-158217141D01*
X95229458Y-158223711D01*
X95482586Y-159944297D01*
X95480400Y-159952981D01*
X95474323Y-159957221D01*
X94269320Y-160312920D01*
X94260416Y-160311976D01*
X94255793Y-160307404D01*
X94060205Y-159957221D01*
X93638870Y-159202857D01*
X93637829Y-159193965D01*
X93641710Y-159188072D01*
X95043931Y-158049750D01*
X95052513Y-158047198D01*
X95059577Y-158050562D01*
G37*
%TD.AperFunction*%
%TD*%
%TA.AperFunction,Conductor*%
%TO.N,COLUMN 10*%
G36*
X82618079Y-117343717D02*
G01*
X82618540Y-117344154D01*
X82784047Y-117509661D01*
X82787261Y-117515713D01*
X83056610Y-118908791D01*
X83054816Y-118917564D01*
X83047344Y-118922499D01*
X83045133Y-118922712D01*
X82263453Y-118923402D01*
X82255177Y-118919982D01*
X82255160Y-118919965D01*
X81701431Y-118364850D01*
X81698014Y-118356572D01*
X81701003Y-118348776D01*
X82601558Y-117344614D01*
X82609632Y-117340744D01*
X82618079Y-117343717D01*
G37*
%TD.AperFunction*%
%TD*%
%TA.AperFunction,Conductor*%
%TO.N,COLUMN 9*%
G36*
X133900620Y-105477974D02*
G01*
X133907850Y-105483258D01*
X133909554Y-105489619D01*
X133880462Y-106721255D01*
X133876840Y-106729445D01*
X133871163Y-106732431D01*
X132613361Y-106995862D01*
X132604561Y-106994203D01*
X132600371Y-106989377D01*
X131771203Y-105220304D01*
X131770755Y-105211479D01*
X131848247Y-104990022D01*
X131854213Y-104983347D01*
X131862052Y-104982519D01*
X133900620Y-105477974D01*
G37*
%TD.AperFunction*%
%TD*%
%TA.AperFunction,Conductor*%
%TO.N,COLUMN 8*%
G36*
X77453110Y-117310879D02*
G01*
X77453991Y-117311649D01*
X77594282Y-117447278D01*
X77622056Y-117474129D01*
X77625253Y-117479620D01*
X77915867Y-118606716D01*
X77914615Y-118615583D01*
X77909021Y-118620444D01*
X77185839Y-118920417D01*
X77176884Y-118920422D01*
X77173075Y-118917874D01*
X76620948Y-118364366D01*
X76617531Y-118356088D01*
X76620041Y-118348862D01*
X77436679Y-117312824D01*
X77444491Y-117308449D01*
X77453110Y-117310879D01*
G37*
%TD.AperFunction*%
%TD*%
%TA.AperFunction,Conductor*%
%TO.N,COLUMN 7*%
G36*
X74862830Y-117319063D02*
G01*
X75052437Y-117456828D01*
X75056830Y-117463151D01*
X75375622Y-118606575D01*
X75374543Y-118615464D01*
X75368836Y-118620523D01*
X74645948Y-118920506D01*
X74636994Y-118920512D01*
X74633181Y-118917963D01*
X74080756Y-118364174D01*
X74077339Y-118355897D01*
X74079662Y-118348913D01*
X74846577Y-117321528D01*
X74854272Y-117316949D01*
X74862830Y-117319063D01*
G37*
%TD.AperFunction*%
%TD*%
%TA.AperFunction,Conductor*%
%TO.N,COLUMN 6*%
G36*
X72231212Y-117311116D02*
G01*
X72440338Y-117417672D01*
X72446140Y-117424440D01*
X72835013Y-118606249D01*
X72834344Y-118615179D01*
X72828385Y-118620712D01*
X72103335Y-118921727D01*
X72094380Y-118921734D01*
X72094358Y-118921725D01*
X71373246Y-118621977D01*
X71366922Y-118615637D01*
X71366933Y-118606682D01*
X71367959Y-118604748D01*
X72216129Y-117315111D01*
X72223536Y-117310084D01*
X72231212Y-117311116D01*
G37*
%TD.AperFunction*%
%TD*%
%TA.AperFunction,Conductor*%
%TO.N,Net-(D312-A)*%
G36*
X107788667Y-132749568D02*
G01*
X107791312Y-132751131D01*
X109049102Y-133738619D01*
X109053493Y-133746424D01*
X109053488Y-133749259D01*
X108905570Y-134944775D01*
X108901154Y-134952564D01*
X108893959Y-134955038D01*
X108657918Y-134955038D01*
X108651313Y-134952995D01*
X107255096Y-133998112D01*
X107250202Y-133990614D01*
X107250934Y-133983877D01*
X107773322Y-132755752D01*
X107779712Y-132749483D01*
X107788667Y-132749568D01*
G37*
%TD.AperFunction*%
%TD*%
%TA.AperFunction,Conductor*%
%TO.N,Net-(D311-A)*%
G36*
X126838667Y-132749568D02*
G01*
X126841312Y-132751131D01*
X128099102Y-133738619D01*
X128103493Y-133746424D01*
X128103488Y-133749259D01*
X127955570Y-134944775D01*
X127951154Y-134952564D01*
X127943959Y-134955038D01*
X127707918Y-134955038D01*
X127701313Y-134952995D01*
X126305096Y-133998112D01*
X126300202Y-133990614D01*
X126300934Y-133983877D01*
X126823322Y-132755752D01*
X126829712Y-132749483D01*
X126838667Y-132749568D01*
G37*
%TD.AperFunction*%
%TD*%
%TA.AperFunction,Conductor*%
%TO.N,Net-(D310-A)*%
G36*
X145888667Y-127987068D02*
G01*
X145891312Y-127988631D01*
X147149102Y-128976119D01*
X147153493Y-128983924D01*
X147153488Y-128986759D01*
X147005570Y-130182275D01*
X147001154Y-130190064D01*
X146993959Y-130192538D01*
X146757918Y-130192538D01*
X146751313Y-130190495D01*
X145355096Y-129235612D01*
X145350202Y-129228114D01*
X145350934Y-129221377D01*
X145873322Y-127993252D01*
X145879712Y-127986983D01*
X145888667Y-127987068D01*
G37*
%TD.AperFunction*%
%TD*%
%TA.AperFunction,Conductor*%
%TO.N,Net-(D309-A)*%
G36*
X164938667Y-132749568D02*
G01*
X164941312Y-132751131D01*
X166199102Y-133738619D01*
X166203493Y-133746424D01*
X166203488Y-133749259D01*
X166055570Y-134944775D01*
X166051154Y-134952564D01*
X166043959Y-134955038D01*
X165807918Y-134955038D01*
X165801313Y-134952995D01*
X164405096Y-133998112D01*
X164400202Y-133990614D01*
X164400934Y-133983877D01*
X164923322Y-132755752D01*
X164929712Y-132749483D01*
X164938667Y-132749568D01*
G37*
%TD.AperFunction*%
%TD*%
%TA.AperFunction,Conductor*%
%TO.N,Net-(D308-A)*%
G36*
X183988667Y-137512068D02*
G01*
X183991312Y-137513631D01*
X185249102Y-138501119D01*
X185253493Y-138508924D01*
X185253488Y-138511759D01*
X185105570Y-139707275D01*
X185101154Y-139715064D01*
X185093959Y-139717538D01*
X184857918Y-139717538D01*
X184851313Y-139715495D01*
X183455096Y-138760612D01*
X183450202Y-138753114D01*
X183450934Y-138746377D01*
X183973322Y-137518252D01*
X183979712Y-137511983D01*
X183988667Y-137512068D01*
G37*
%TD.AperFunction*%
%TD*%
%TA.AperFunction,Conductor*%
%TO.N,Net-(D307-A)*%
G36*
X203038667Y-137512068D02*
G01*
X203041312Y-137513631D01*
X204299102Y-138501119D01*
X204303493Y-138508924D01*
X204303488Y-138511759D01*
X204155570Y-139707275D01*
X204151154Y-139715064D01*
X204143959Y-139717538D01*
X203907918Y-139717538D01*
X203901313Y-139715495D01*
X202505096Y-138760612D01*
X202500202Y-138753114D01*
X202500934Y-138746377D01*
X203023322Y-137518252D01*
X203029712Y-137511983D01*
X203038667Y-137512068D01*
G37*
%TD.AperFunction*%
%TD*%
%TA.AperFunction,Conductor*%
%TO.N,Net-(D306-A)*%
G36*
X107788667Y-113699568D02*
G01*
X107791312Y-113701131D01*
X109049102Y-114688619D01*
X109053493Y-114696424D01*
X109053488Y-114699259D01*
X108905570Y-115894775D01*
X108901154Y-115902564D01*
X108893959Y-115905038D01*
X108657918Y-115905038D01*
X108651313Y-115902995D01*
X107255096Y-114948112D01*
X107250202Y-114940614D01*
X107250934Y-114933877D01*
X107773322Y-113705752D01*
X107779712Y-113699483D01*
X107788667Y-113699568D01*
G37*
%TD.AperFunction*%
%TD*%
%TA.AperFunction,Conductor*%
%TO.N,Net-(D305-A)*%
G36*
X126838667Y-113699568D02*
G01*
X126841312Y-113701131D01*
X128099102Y-114688619D01*
X128103493Y-114696424D01*
X128103488Y-114699259D01*
X127955570Y-115894775D01*
X127951154Y-115902564D01*
X127943959Y-115905038D01*
X127707918Y-115905038D01*
X127701313Y-115902995D01*
X126305096Y-114948112D01*
X126300202Y-114940614D01*
X126300934Y-114933877D01*
X126823322Y-113705752D01*
X126829712Y-113699483D01*
X126838667Y-113699568D01*
G37*
%TD.AperFunction*%
%TD*%
%TA.AperFunction,Conductor*%
%TO.N,Net-(D304-A)*%
G36*
X145888667Y-108937068D02*
G01*
X145891312Y-108938631D01*
X147149102Y-109926119D01*
X147153493Y-109933924D01*
X147153488Y-109936759D01*
X147005570Y-111132275D01*
X147001154Y-111140064D01*
X146993959Y-111142538D01*
X146757918Y-111142538D01*
X146751313Y-111140495D01*
X145355096Y-110185612D01*
X145350202Y-110178114D01*
X145350934Y-110171377D01*
X145873322Y-108943252D01*
X145879712Y-108936983D01*
X145888667Y-108937068D01*
G37*
%TD.AperFunction*%
%TD*%
%TA.AperFunction,Conductor*%
%TO.N,Net-(D302-A)*%
G36*
X183988667Y-118462068D02*
G01*
X183991312Y-118463631D01*
X185249102Y-119451119D01*
X185253493Y-119458924D01*
X185253488Y-119461759D01*
X185105570Y-120657275D01*
X185101154Y-120665064D01*
X185093959Y-120667538D01*
X184857918Y-120667538D01*
X184851313Y-120665495D01*
X183455096Y-119710612D01*
X183450202Y-119703114D01*
X183450934Y-119696377D01*
X183973322Y-118468252D01*
X183979712Y-118461983D01*
X183988667Y-118462068D01*
G37*
%TD.AperFunction*%
%TD*%
%TA.AperFunction,Conductor*%
%TO.N,Net-(D301-A)*%
G36*
X203038667Y-118462068D02*
G01*
X203041312Y-118463631D01*
X204299102Y-119451119D01*
X204303493Y-119458924D01*
X204303488Y-119461759D01*
X204155570Y-120657275D01*
X204151154Y-120665064D01*
X204143959Y-120667538D01*
X203907918Y-120667538D01*
X203901313Y-120665495D01*
X202505096Y-119710612D01*
X202500202Y-119703114D01*
X202500934Y-119696377D01*
X203023322Y-118468252D01*
X203029712Y-118461983D01*
X203038667Y-118462068D01*
G37*
%TD.AperFunction*%
%TD*%
%TA.AperFunction,Conductor*%
%TO.N,Net-(D212-A)*%
G36*
X327288667Y-132749568D02*
G01*
X327291312Y-132751131D01*
X328549102Y-133738619D01*
X328553493Y-133746424D01*
X328553488Y-133749259D01*
X328405570Y-134944775D01*
X328401154Y-134952564D01*
X328393959Y-134955038D01*
X328157918Y-134955038D01*
X328151313Y-134952995D01*
X326755096Y-133998112D01*
X326750202Y-133990614D01*
X326750934Y-133983877D01*
X327273322Y-132755752D01*
X327279712Y-132749483D01*
X327288667Y-132749568D01*
G37*
%TD.AperFunction*%
%TD*%
%TA.AperFunction,Conductor*%
%TO.N,Net-(D211-A)*%
G36*
X308238667Y-132749568D02*
G01*
X308241312Y-132751131D01*
X309499102Y-133738619D01*
X309503493Y-133746424D01*
X309503488Y-133749259D01*
X309355570Y-134944775D01*
X309351154Y-134952564D01*
X309343959Y-134955038D01*
X309107918Y-134955038D01*
X309101313Y-134952995D01*
X307705096Y-133998112D01*
X307700202Y-133990614D01*
X307700934Y-133983877D01*
X308223322Y-132755752D01*
X308229712Y-132749483D01*
X308238667Y-132749568D01*
G37*
%TD.AperFunction*%
%TD*%
%TA.AperFunction,Conductor*%
%TO.N,Net-(D210-A)*%
G36*
X289188667Y-127987068D02*
G01*
X289191312Y-127988631D01*
X290449102Y-128976119D01*
X290453493Y-128983924D01*
X290453488Y-128986759D01*
X290305570Y-130182275D01*
X290301154Y-130190064D01*
X290293959Y-130192538D01*
X290057918Y-130192538D01*
X290051313Y-130190495D01*
X288655096Y-129235612D01*
X288650202Y-129228114D01*
X288650934Y-129221377D01*
X289173322Y-127993252D01*
X289179712Y-127986983D01*
X289188667Y-127987068D01*
G37*
%TD.AperFunction*%
%TD*%
%TA.AperFunction,Conductor*%
%TO.N,Net-(D209-A)*%
G36*
X270138667Y-132749568D02*
G01*
X270141312Y-132751131D01*
X271399102Y-133738619D01*
X271403493Y-133746424D01*
X271403488Y-133749259D01*
X271255570Y-134944775D01*
X271251154Y-134952564D01*
X271243959Y-134955038D01*
X271007918Y-134955038D01*
X271001313Y-134952995D01*
X269605096Y-133998112D01*
X269600202Y-133990614D01*
X269600934Y-133983877D01*
X270123322Y-132755752D01*
X270129712Y-132749483D01*
X270138667Y-132749568D01*
G37*
%TD.AperFunction*%
%TD*%
%TA.AperFunction,Conductor*%
%TO.N,Net-(D208-A)*%
G36*
X251088667Y-137512068D02*
G01*
X251091312Y-137513631D01*
X252349102Y-138501119D01*
X252353493Y-138508924D01*
X252353488Y-138511759D01*
X252205570Y-139707275D01*
X252201154Y-139715064D01*
X252193959Y-139717538D01*
X251957918Y-139717538D01*
X251951313Y-139715495D01*
X250555096Y-138760612D01*
X250550202Y-138753114D01*
X250550934Y-138746377D01*
X251073322Y-137518252D01*
X251079712Y-137511983D01*
X251088667Y-137512068D01*
G37*
%TD.AperFunction*%
%TD*%
%TA.AperFunction,Conductor*%
%TO.N,Net-(D207-A)*%
G36*
X232038667Y-137512068D02*
G01*
X232041312Y-137513631D01*
X233299102Y-138501119D01*
X233303493Y-138508924D01*
X233303488Y-138511759D01*
X233155570Y-139707275D01*
X233151154Y-139715064D01*
X233143959Y-139717538D01*
X232907918Y-139717538D01*
X232901313Y-139715495D01*
X231505096Y-138760612D01*
X231500202Y-138753114D01*
X231500934Y-138746377D01*
X232023322Y-137518252D01*
X232029712Y-137511983D01*
X232038667Y-137512068D01*
G37*
%TD.AperFunction*%
%TD*%
%TA.AperFunction,Conductor*%
%TO.N,Net-(D206-A)*%
G36*
X327288667Y-113699568D02*
G01*
X327291312Y-113701131D01*
X328549102Y-114688619D01*
X328553493Y-114696424D01*
X328553488Y-114699259D01*
X328405570Y-115894775D01*
X328401154Y-115902564D01*
X328393959Y-115905038D01*
X328157918Y-115905038D01*
X328151313Y-115902995D01*
X326755096Y-114948112D01*
X326750202Y-114940614D01*
X326750934Y-114933877D01*
X327273322Y-113705752D01*
X327279712Y-113699483D01*
X327288667Y-113699568D01*
G37*
%TD.AperFunction*%
%TD*%
%TA.AperFunction,Conductor*%
%TO.N,Net-(D205-A)*%
G36*
X308238667Y-113699568D02*
G01*
X308241312Y-113701131D01*
X309499102Y-114688619D01*
X309503493Y-114696424D01*
X309503488Y-114699259D01*
X309355570Y-115894775D01*
X309351154Y-115902564D01*
X309343959Y-115905038D01*
X309107918Y-115905038D01*
X309101313Y-115902995D01*
X307705096Y-114948112D01*
X307700202Y-114940614D01*
X307700934Y-114933877D01*
X308223322Y-113705752D01*
X308229712Y-113699483D01*
X308238667Y-113699568D01*
G37*
%TD.AperFunction*%
%TD*%
%TA.AperFunction,Conductor*%
%TO.N,Net-(D204-A)*%
G36*
X289188667Y-108937068D02*
G01*
X289191312Y-108938631D01*
X290449102Y-109926119D01*
X290453493Y-109933924D01*
X290453488Y-109936759D01*
X290305570Y-111132275D01*
X290301154Y-111140064D01*
X290293959Y-111142538D01*
X290057918Y-111142538D01*
X290051313Y-111140495D01*
X288655096Y-110185612D01*
X288650202Y-110178114D01*
X288650934Y-110171377D01*
X289173322Y-108943252D01*
X289179712Y-108936983D01*
X289188667Y-108937068D01*
G37*
%TD.AperFunction*%
%TD*%
%TA.AperFunction,Conductor*%
%TO.N,Net-(D203-A)*%
G36*
X270138667Y-113699568D02*
G01*
X270141312Y-113701131D01*
X271399102Y-114688619D01*
X271403493Y-114696424D01*
X271403488Y-114699259D01*
X271255570Y-115894775D01*
X271251154Y-115902564D01*
X271243959Y-115905038D01*
X271007918Y-115905038D01*
X271001313Y-115902995D01*
X269605096Y-114948112D01*
X269600202Y-114940614D01*
X269600934Y-114933877D01*
X270123322Y-113705752D01*
X270129712Y-113699483D01*
X270138667Y-113699568D01*
G37*
%TD.AperFunction*%
%TD*%
%TA.AperFunction,Conductor*%
%TO.N,Net-(D202-A)*%
G36*
X251088667Y-118462068D02*
G01*
X251091312Y-118463631D01*
X252349102Y-119451119D01*
X252353493Y-119458924D01*
X252353488Y-119461759D01*
X252205570Y-120657275D01*
X252201154Y-120665064D01*
X252193959Y-120667538D01*
X251957918Y-120667538D01*
X251951313Y-120665495D01*
X250555096Y-119710612D01*
X250550202Y-119703114D01*
X250550934Y-119696377D01*
X251073322Y-118468252D01*
X251079712Y-118461983D01*
X251088667Y-118462068D01*
G37*
%TD.AperFunction*%
%TD*%
%TA.AperFunction,Conductor*%
%TO.N,Net-(D201-A)*%
G36*
X232038667Y-118462068D02*
G01*
X232041312Y-118463631D01*
X233299102Y-119451119D01*
X233303493Y-119458924D01*
X233303488Y-119461759D01*
X233155570Y-120657275D01*
X233151154Y-120665064D01*
X233143959Y-120667538D01*
X232907918Y-120667538D01*
X232901313Y-120665495D01*
X231505096Y-119710612D01*
X231500202Y-119703114D01*
X231500934Y-119696377D01*
X232023322Y-118468252D01*
X232029712Y-118461983D01*
X232038667Y-118462068D01*
G37*
%TD.AperFunction*%
%TD*%
%TA.AperFunction,Conductor*%
%TO.N,COLUMN 3*%
G36*
X338074769Y-117315139D02*
G01*
X338075509Y-117315981D01*
X338898480Y-118348851D01*
X338900955Y-118357457D01*
X338897612Y-118364405D01*
X338345526Y-118917873D01*
X338337258Y-118921310D01*
X338332760Y-118920417D01*
X337609535Y-118620426D01*
X337603206Y-118614091D01*
X337602675Y-118606752D01*
X337886948Y-117482915D01*
X337890155Y-117477378D01*
X338058226Y-117314860D01*
X338066555Y-117311574D01*
X338074769Y-117315139D01*
G37*
%TD.AperFunction*%
%TD*%
%TA.AperFunction,Conductor*%
%TO.N,COLUMN 2*%
G36*
X340667034Y-117323487D02*
G01*
X341438879Y-118348903D01*
X341441116Y-118357574D01*
X341437814Y-118364202D01*
X340885418Y-118917963D01*
X340877149Y-118921400D01*
X340872651Y-118920506D01*
X340149729Y-118620509D01*
X340143401Y-118614173D01*
X340142932Y-118606601D01*
X340209584Y-118364202D01*
X340456778Y-117465198D01*
X340461180Y-117458837D01*
X340650809Y-117321057D01*
X340659516Y-117318967D01*
X340667034Y-117323487D01*
G37*
%TD.AperFunction*%
%TD*%
%TA.AperFunction,Conductor*%
%TO.N,COLUMN 1*%
G36*
X343236779Y-117311751D02*
G01*
X343236827Y-117311818D01*
X343979217Y-118348957D01*
X343981246Y-118357679D01*
X343977986Y-118364030D01*
X343425418Y-118917963D01*
X343417149Y-118921400D01*
X343412651Y-118920506D01*
X342689933Y-118620593D01*
X342683605Y-118614257D01*
X342683203Y-118606451D01*
X343026583Y-117452978D01*
X343030918Y-117446852D01*
X343220438Y-117309161D01*
X343229143Y-117307072D01*
X343236779Y-117311751D01*
G37*
%TD.AperFunction*%
%TD*%
%TA.AperFunction,Conductor*%
%TO.N,COLUMN 0*%
G36*
X345772444Y-117313500D02*
G01*
X345772469Y-117313533D01*
X346519168Y-118348949D01*
X346521227Y-118357664D01*
X346517961Y-118364056D01*
X345965418Y-118917963D01*
X345957149Y-118921400D01*
X345952651Y-118920506D01*
X345229903Y-118620581D01*
X345223575Y-118614245D01*
X345223163Y-118606474D01*
X345562225Y-117454775D01*
X345566569Y-117448618D01*
X345756104Y-117310911D01*
X345764809Y-117308821D01*
X345772444Y-117313500D01*
G37*
%TD.AperFunction*%
%TD*%
%TA.AperFunction,Conductor*%
%TO.N,COLUMN 0*%
G36*
X220036605Y-116263798D02*
G01*
X220038435Y-116265628D01*
X221023189Y-117497555D01*
X221025678Y-117506157D01*
X221022855Y-117512564D01*
X220157796Y-118501204D01*
X220149769Y-118505174D01*
X220148991Y-118505200D01*
X219909609Y-118505200D01*
X219901336Y-118501773D01*
X219900804Y-118501205D01*
X219900804Y-118501204D01*
X219035743Y-117512564D01*
X219032875Y-117504082D01*
X219035408Y-117497557D01*
X220020162Y-116265631D01*
X220028003Y-116261309D01*
X220036605Y-116263798D01*
G37*
%TD.AperFunction*%
%TD*%
%TA.AperFunction,Conductor*%
%TO.N,COLUMN 0*%
G36*
X220157264Y-133058627D02*
G01*
X220157796Y-133059195D01*
X221022855Y-134047834D01*
X221025724Y-134056317D01*
X221023189Y-134062844D01*
X220038439Y-135294767D01*
X220030597Y-135299090D01*
X220021995Y-135296601D01*
X220020161Y-135294767D01*
X219035410Y-134062844D01*
X219032921Y-134054242D01*
X219035742Y-134047836D01*
X219900804Y-133059194D01*
X219908831Y-133055226D01*
X219909609Y-133055200D01*
X220148991Y-133055200D01*
X220157264Y-133058627D01*
G37*
%TD.AperFunction*%
%TD*%
%TA.AperFunction,Conductor*%
%TO.N,COLUMN 0*%
G36*
X221584012Y-114536783D02*
G01*
X221587191Y-114539433D01*
X221739171Y-114720556D01*
X221741863Y-114729097D01*
X221741525Y-114731047D01*
X221306864Y-116387229D01*
X221301449Y-116394361D01*
X221294260Y-116395888D01*
X220037676Y-116256853D01*
X220029830Y-116252537D01*
X220027359Y-116246720D01*
X219868854Y-115015278D01*
X219871196Y-115006637D01*
X219877354Y-115002506D01*
X221575127Y-114535673D01*
X221584012Y-114536783D01*
G37*
%TD.AperFunction*%
%TD*%
%TA.AperFunction,Conductor*%
%TO.N,COLUMN 0*%
G36*
X220036605Y-116263798D02*
G01*
X220038435Y-116265628D01*
X221023189Y-117497555D01*
X221025678Y-117506157D01*
X221022855Y-117512564D01*
X220157796Y-118501204D01*
X220149769Y-118505174D01*
X220148991Y-118505200D01*
X219909609Y-118505200D01*
X219901336Y-118501773D01*
X219900804Y-118501205D01*
X219900804Y-118501204D01*
X219035743Y-117512564D01*
X219032875Y-117504082D01*
X219035408Y-117497557D01*
X220020162Y-116265631D01*
X220028003Y-116261309D01*
X220036605Y-116263798D01*
G37*
%TD.AperFunction*%
%TD*%
%TA.AperFunction,Conductor*%
%TO.N,COLUMN 0*%
G36*
X220157264Y-133058627D02*
G01*
X220157796Y-133059195D01*
X221022855Y-134047834D01*
X221025724Y-134056317D01*
X221023189Y-134062844D01*
X220038439Y-135294767D01*
X220030597Y-135299090D01*
X220021995Y-135296601D01*
X220020161Y-135294767D01*
X219035410Y-134062844D01*
X219032921Y-134054242D01*
X219035742Y-134047836D01*
X219900804Y-133059194D01*
X219908831Y-133055226D01*
X219909609Y-133055200D01*
X220148991Y-133055200D01*
X220157264Y-133058627D01*
G37*
%TD.AperFunction*%
%TD*%
%TA.AperFunction,Conductor*%
%TO.N,COLUMN 1*%
G36*
X240877574Y-114391471D02*
G01*
X240881941Y-114395370D01*
X241012652Y-114590993D01*
X241014399Y-114599776D01*
X241013927Y-114601470D01*
X240357506Y-116417570D01*
X240351471Y-116424186D01*
X240344952Y-116425190D01*
X239087586Y-116256974D01*
X239079840Y-116252480D01*
X239077502Y-116246606D01*
X238947330Y-115014669D01*
X238949868Y-115006085D01*
X238955400Y-115002300D01*
X240868652Y-114390726D01*
X240877574Y-114391471D01*
G37*
%TD.AperFunction*%
%TD*%
%TA.AperFunction,Conductor*%
%TO.N,COLUMN 1*%
G36*
X239207264Y-133058627D02*
G01*
X239207796Y-133059195D01*
X240072855Y-134047834D01*
X240075724Y-134056317D01*
X240073189Y-134062844D01*
X239088439Y-135294767D01*
X239080597Y-135299090D01*
X239071995Y-135296601D01*
X239070161Y-135294767D01*
X238085410Y-134062844D01*
X238082921Y-134054242D01*
X238085742Y-134047836D01*
X238950804Y-133059194D01*
X238958831Y-133055226D01*
X238959609Y-133055200D01*
X239198991Y-133055200D01*
X239207264Y-133058627D01*
G37*
%TD.AperFunction*%
%TD*%
%TA.AperFunction,Conductor*%
%TO.N,COLUMN 1*%
G36*
X239086605Y-116263798D02*
G01*
X239088435Y-116265628D01*
X240073189Y-117497555D01*
X240075678Y-117506157D01*
X240072855Y-117512564D01*
X239207796Y-118501204D01*
X239199769Y-118505174D01*
X239198991Y-118505200D01*
X238959609Y-118505200D01*
X238951336Y-118501773D01*
X238950804Y-118501205D01*
X238950804Y-118501204D01*
X238085743Y-117512564D01*
X238082875Y-117504082D01*
X238085408Y-117497557D01*
X239070162Y-116265631D01*
X239078003Y-116261309D01*
X239086605Y-116263798D01*
G37*
%TD.AperFunction*%
%TD*%
%TA.AperFunction,Conductor*%
%TO.N,COLUMN 1*%
G36*
X239207264Y-133058627D02*
G01*
X239207796Y-133059195D01*
X240072855Y-134047834D01*
X240075724Y-134056317D01*
X240073189Y-134062844D01*
X239088439Y-135294767D01*
X239080597Y-135299090D01*
X239071995Y-135296601D01*
X239070161Y-135294767D01*
X238085410Y-134062844D01*
X238082921Y-134054242D01*
X238085742Y-134047836D01*
X238950804Y-133059194D01*
X238958831Y-133055226D01*
X238959609Y-133055200D01*
X239198991Y-133055200D01*
X239207264Y-133058627D01*
G37*
%TD.AperFunction*%
%TD*%
%TA.AperFunction,Conductor*%
%TO.N,COLUMN 1*%
G36*
X239086605Y-116263798D02*
G01*
X239088435Y-116265628D01*
X240073189Y-117497555D01*
X240075678Y-117506157D01*
X240072855Y-117512564D01*
X239207796Y-118501204D01*
X239199769Y-118505174D01*
X239198991Y-118505200D01*
X238959609Y-118505200D01*
X238951336Y-118501773D01*
X238950804Y-118501205D01*
X238950804Y-118501204D01*
X238085743Y-117512564D01*
X238082875Y-117504082D01*
X238085408Y-117497557D01*
X239070162Y-116265631D01*
X239078003Y-116261309D01*
X239086605Y-116263798D01*
G37*
%TD.AperFunction*%
%TD*%
%TA.AperFunction,Conductor*%
%TO.N,COLUMN 2*%
G36*
X259901882Y-109603895D02*
G01*
X259906244Y-109607654D01*
X260041197Y-109800385D01*
X260043135Y-109809128D01*
X260042665Y-109810935D01*
X259407396Y-111639578D01*
X259401444Y-111646269D01*
X259394931Y-111647353D01*
X258137611Y-111494383D01*
X258129812Y-111489982D01*
X258127404Y-111484138D01*
X257982207Y-110252147D01*
X257984642Y-110243530D01*
X257990114Y-110239683D01*
X259892951Y-109603269D01*
X259901882Y-109603895D01*
G37*
%TD.AperFunction*%
%TD*%
%TA.AperFunction,Conductor*%
%TO.N,COLUMN 2*%
G36*
X258257264Y-128296127D02*
G01*
X258257796Y-128296695D01*
X259122855Y-129285334D01*
X259125724Y-129293817D01*
X259123189Y-129300344D01*
X258138439Y-130532267D01*
X258130597Y-130536590D01*
X258121995Y-130534101D01*
X258120161Y-130532267D01*
X257135410Y-129300344D01*
X257132921Y-129291742D01*
X257135742Y-129285336D01*
X258000804Y-128296694D01*
X258008831Y-128292726D01*
X258009609Y-128292700D01*
X258248991Y-128292700D01*
X258257264Y-128296127D01*
G37*
%TD.AperFunction*%
%TD*%
%TA.AperFunction,Conductor*%
%TO.N,COLUMN 2*%
G36*
X258136605Y-111501298D02*
G01*
X258138435Y-111503128D01*
X259123189Y-112735055D01*
X259125678Y-112743657D01*
X259122855Y-112750064D01*
X258257796Y-113738704D01*
X258249769Y-113742674D01*
X258248991Y-113742700D01*
X258009609Y-113742700D01*
X258001336Y-113739273D01*
X258000804Y-113738705D01*
X258000804Y-113738704D01*
X257135743Y-112750064D01*
X257132875Y-112741582D01*
X257135408Y-112735057D01*
X258120162Y-111503131D01*
X258128003Y-111498809D01*
X258136605Y-111501298D01*
G37*
%TD.AperFunction*%
%TD*%
%TA.AperFunction,Conductor*%
%TO.N,COLUMN 2*%
G36*
X258257264Y-128296127D02*
G01*
X258257796Y-128296695D01*
X259122855Y-129285334D01*
X259125724Y-129293817D01*
X259123189Y-129300344D01*
X258138439Y-130532267D01*
X258130597Y-130536590D01*
X258121995Y-130534101D01*
X258120161Y-130532267D01*
X257135410Y-129300344D01*
X257132921Y-129291742D01*
X257135742Y-129285336D01*
X258000804Y-128296694D01*
X258008831Y-128292726D01*
X258009609Y-128292700D01*
X258248991Y-128292700D01*
X258257264Y-128296127D01*
G37*
%TD.AperFunction*%
%TD*%
%TA.AperFunction,Conductor*%
%TO.N,COLUMN 2*%
G36*
X258136605Y-111501298D02*
G01*
X258138435Y-111503128D01*
X259123189Y-112735055D01*
X259125678Y-112743657D01*
X259122855Y-112750064D01*
X258257796Y-113738704D01*
X258249769Y-113742674D01*
X258248991Y-113742700D01*
X258009609Y-113742700D01*
X258001336Y-113739273D01*
X258000804Y-113738705D01*
X258000804Y-113738704D01*
X257135743Y-112750064D01*
X257132875Y-112741582D01*
X257135408Y-112735057D01*
X258120162Y-111503131D01*
X258128003Y-111498809D01*
X258136605Y-111501298D01*
G37*
%TD.AperFunction*%
%TD*%
%TA.AperFunction,Conductor*%
%TO.N,COLUMN 3*%
G36*
X277307264Y-123533627D02*
G01*
X277307796Y-123534195D01*
X278172855Y-124522834D01*
X278175724Y-124531317D01*
X278173189Y-124537844D01*
X277188439Y-125769767D01*
X277180597Y-125774090D01*
X277171995Y-125771601D01*
X277170161Y-125769767D01*
X276185410Y-124537844D01*
X276182921Y-124529242D01*
X276185742Y-124522836D01*
X277050804Y-123534194D01*
X277058831Y-123530226D01*
X277059609Y-123530200D01*
X277298991Y-123530200D01*
X277307264Y-123533627D01*
G37*
%TD.AperFunction*%
%TD*%
%TA.AperFunction,Conductor*%
%TO.N,COLUMN 3*%
G36*
X277186605Y-106738798D02*
G01*
X277188435Y-106740628D01*
X278173189Y-107972555D01*
X278175678Y-107981157D01*
X278172855Y-107987564D01*
X277307796Y-108976204D01*
X277299769Y-108980174D01*
X277298991Y-108980200D01*
X277059609Y-108980200D01*
X277051336Y-108976773D01*
X277050804Y-108976205D01*
X277050804Y-108976204D01*
X276185743Y-107987564D01*
X276182875Y-107979082D01*
X276185408Y-107972557D01*
X277170162Y-106740631D01*
X277178003Y-106736309D01*
X277186605Y-106738798D01*
G37*
%TD.AperFunction*%
%TD*%
%TA.AperFunction,Conductor*%
%TO.N,COLUMN 3*%
G36*
X277307264Y-123533627D02*
G01*
X277307796Y-123534195D01*
X278172855Y-124522834D01*
X278175724Y-124531317D01*
X278173189Y-124537844D01*
X277188439Y-125769767D01*
X277180597Y-125774090D01*
X277171995Y-125771601D01*
X277170161Y-125769767D01*
X276185410Y-124537844D01*
X276182921Y-124529242D01*
X276185742Y-124522836D01*
X277050804Y-123534194D01*
X277058831Y-123530226D01*
X277059609Y-123530200D01*
X277298991Y-123530200D01*
X277307264Y-123533627D01*
G37*
%TD.AperFunction*%
%TD*%
%TA.AperFunction,Conductor*%
%TO.N,COLUMN 3*%
G36*
X277186605Y-106738798D02*
G01*
X277188435Y-106740628D01*
X278173189Y-107972555D01*
X278175678Y-107981157D01*
X278172855Y-107987564D01*
X277307796Y-108976204D01*
X277299769Y-108980174D01*
X277298991Y-108980200D01*
X277059609Y-108980200D01*
X277051336Y-108976773D01*
X277050804Y-108976205D01*
X277050804Y-108976204D01*
X276185743Y-107987564D01*
X276182875Y-107979082D01*
X276185408Y-107972557D01*
X277170162Y-106740631D01*
X277178003Y-106736309D01*
X277186605Y-106738798D01*
G37*
%TD.AperFunction*%
%TD*%
%TA.AperFunction,Conductor*%
%TO.N,COLUMN 4*%
G36*
X296357264Y-128296127D02*
G01*
X296357796Y-128296695D01*
X297222855Y-129285334D01*
X297225724Y-129293817D01*
X297223189Y-129300344D01*
X296238439Y-130532267D01*
X296230597Y-130536590D01*
X296221995Y-130534101D01*
X296220161Y-130532267D01*
X295235410Y-129300344D01*
X295232921Y-129291742D01*
X295235742Y-129285336D01*
X296100804Y-128296694D01*
X296108831Y-128292726D01*
X296109609Y-128292700D01*
X296348991Y-128292700D01*
X296357264Y-128296127D01*
G37*
%TD.AperFunction*%
%TD*%
%TA.AperFunction,Conductor*%
%TO.N,COLUMN 4*%
G36*
X296236605Y-111501298D02*
G01*
X296238435Y-111503128D01*
X297223189Y-112735055D01*
X297225678Y-112743657D01*
X297222855Y-112750064D01*
X296357796Y-113738704D01*
X296349769Y-113742674D01*
X296348991Y-113742700D01*
X296109609Y-113742700D01*
X296101336Y-113739273D01*
X296100804Y-113738705D01*
X296100804Y-113738704D01*
X295235743Y-112750064D01*
X295232875Y-112741582D01*
X295235408Y-112735057D01*
X296220162Y-111503131D01*
X296228003Y-111498809D01*
X296236605Y-111501298D01*
G37*
%TD.AperFunction*%
%TD*%
%TA.AperFunction,Conductor*%
%TO.N,COLUMN 4*%
G36*
X296357264Y-128296127D02*
G01*
X296357796Y-128296695D01*
X297222855Y-129285334D01*
X297225724Y-129293817D01*
X297223189Y-129300344D01*
X296238439Y-130532267D01*
X296230597Y-130536590D01*
X296221995Y-130534101D01*
X296220161Y-130532267D01*
X295235410Y-129300344D01*
X295232921Y-129291742D01*
X295235742Y-129285336D01*
X296100804Y-128296694D01*
X296108831Y-128292726D01*
X296109609Y-128292700D01*
X296348991Y-128292700D01*
X296357264Y-128296127D01*
G37*
%TD.AperFunction*%
%TD*%
%TA.AperFunction,Conductor*%
%TO.N,COLUMN 4*%
G36*
X296236605Y-111501298D02*
G01*
X296238435Y-111503128D01*
X297223189Y-112735055D01*
X297225678Y-112743657D01*
X297222855Y-112750064D01*
X296357796Y-113738704D01*
X296349769Y-113742674D01*
X296348991Y-113742700D01*
X296109609Y-113742700D01*
X296101336Y-113739273D01*
X296100804Y-113738705D01*
X296100804Y-113738704D01*
X295235743Y-112750064D01*
X295232875Y-112741582D01*
X295235408Y-112735057D01*
X296220162Y-111503131D01*
X296228003Y-111498809D01*
X296236605Y-111501298D01*
G37*
%TD.AperFunction*%
%TD*%
%TA.AperFunction,Conductor*%
%TO.N,COLUMN 4*%
G36*
X296236605Y-130551298D02*
G01*
X296238435Y-130553128D01*
X297223189Y-131785055D01*
X297225678Y-131793657D01*
X297222855Y-131800064D01*
X296357796Y-132788704D01*
X296349769Y-132792674D01*
X296348991Y-132792700D01*
X296109609Y-132792700D01*
X296101336Y-132789273D01*
X296100804Y-132788705D01*
X296100804Y-132788704D01*
X295235743Y-131800064D01*
X295232875Y-131791582D01*
X295235408Y-131785057D01*
X296220162Y-130553131D01*
X296228003Y-130548809D01*
X296236605Y-130551298D01*
G37*
%TD.AperFunction*%
%TD*%
%TA.AperFunction,Conductor*%
%TO.N,COLUMN 4*%
G36*
X315425957Y-156561240D02*
G01*
X317219007Y-157127850D01*
X317225862Y-157133609D01*
X317227088Y-157140474D01*
X317070645Y-158376381D01*
X317066207Y-158384159D01*
X317059624Y-158386597D01*
X315732089Y-158453189D01*
X315723655Y-158450181D01*
X315720235Y-158444655D01*
X315244251Y-156742462D01*
X315245324Y-156733574D01*
X315247242Y-156731045D01*
X315414164Y-156564123D01*
X315422436Y-156560697D01*
X315425957Y-156561240D01*
G37*
%TD.AperFunction*%
%TD*%
%TA.AperFunction,Conductor*%
%TO.N,COLUMN 5*%
G36*
X333385388Y-117432530D02*
G01*
X333387605Y-117435525D01*
X333992560Y-118605254D01*
X333993317Y-118614177D01*
X333987543Y-118621021D01*
X333986658Y-118621433D01*
X333263800Y-118921833D01*
X333254847Y-118921843D01*
X333056212Y-118839299D01*
X332531953Y-118621438D01*
X332525628Y-118615099D01*
X332525639Y-118606144D01*
X332526054Y-118605254D01*
X333131079Y-117438302D01*
X333137928Y-117432536D01*
X333141320Y-117431991D01*
X333377075Y-117429201D01*
X333385388Y-117432530D01*
G37*
%TD.AperFunction*%
%TD*%
%TA.AperFunction,Conductor*%
%TO.N,COLUMN 5*%
G36*
X315407264Y-128296127D02*
G01*
X315407796Y-128296695D01*
X316272855Y-129285334D01*
X316275724Y-129293817D01*
X316273189Y-129300344D01*
X315288439Y-130532267D01*
X315280597Y-130536590D01*
X315271995Y-130534101D01*
X315270161Y-130532267D01*
X314285410Y-129300344D01*
X314282921Y-129291742D01*
X314285742Y-129285336D01*
X315150804Y-128296694D01*
X315158831Y-128292726D01*
X315159609Y-128292700D01*
X315398991Y-128292700D01*
X315407264Y-128296127D01*
G37*
%TD.AperFunction*%
%TD*%
%TA.AperFunction,Conductor*%
%TO.N,COLUMN 5*%
G36*
X315286605Y-111501298D02*
G01*
X315288435Y-111503128D01*
X316273189Y-112735055D01*
X316275678Y-112743657D01*
X316272855Y-112750064D01*
X315407796Y-113738704D01*
X315399769Y-113742674D01*
X315398991Y-113742700D01*
X315159609Y-113742700D01*
X315151336Y-113739273D01*
X315150804Y-113738705D01*
X315150804Y-113738704D01*
X314285743Y-112750064D01*
X314282875Y-112741582D01*
X314285408Y-112735057D01*
X315270162Y-111503131D01*
X315278003Y-111498809D01*
X315286605Y-111501298D01*
G37*
%TD.AperFunction*%
%TD*%
%TA.AperFunction,Conductor*%
%TO.N,COLUMN 5*%
G36*
X315407264Y-128296127D02*
G01*
X315407796Y-128296695D01*
X316272855Y-129285334D01*
X316275724Y-129293817D01*
X316273189Y-129300344D01*
X315288439Y-130532267D01*
X315280597Y-130536590D01*
X315271995Y-130534101D01*
X315270161Y-130532267D01*
X314285410Y-129300344D01*
X314282921Y-129291742D01*
X314285742Y-129285336D01*
X315150804Y-128296694D01*
X315158831Y-128292726D01*
X315159609Y-128292700D01*
X315398991Y-128292700D01*
X315407264Y-128296127D01*
G37*
%TD.AperFunction*%
%TD*%
%TA.AperFunction,Conductor*%
%TO.N,COLUMN 5*%
G36*
X315286605Y-111501298D02*
G01*
X315288435Y-111503128D01*
X316273189Y-112735055D01*
X316275678Y-112743657D01*
X316272855Y-112750064D01*
X315407796Y-113738704D01*
X315399769Y-113742674D01*
X315398991Y-113742700D01*
X315159609Y-113742700D01*
X315151336Y-113739273D01*
X315150804Y-113738705D01*
X315150804Y-113738704D01*
X314285743Y-112750064D01*
X314282875Y-112741582D01*
X314285408Y-112735057D01*
X315270162Y-111503131D01*
X315278003Y-111498809D01*
X315286605Y-111501298D01*
G37*
%TD.AperFunction*%
%TD*%
%TA.AperFunction,Conductor*%
%TO.N,COLUMN 5*%
G36*
X315286605Y-130551298D02*
G01*
X315288435Y-130553128D01*
X316273189Y-131785055D01*
X316275678Y-131793657D01*
X316272855Y-131800064D01*
X315407796Y-132788704D01*
X315399769Y-132792674D01*
X315398991Y-132792700D01*
X315159609Y-132792700D01*
X315151336Y-132789273D01*
X315150804Y-132788705D01*
X315150804Y-132788704D01*
X314285743Y-131800064D01*
X314282875Y-131791582D01*
X314285408Y-131785057D01*
X315270162Y-130553131D01*
X315278003Y-130548809D01*
X315286605Y-130551298D01*
G37*
%TD.AperFunction*%
%TD*%
%TA.AperFunction,Conductor*%
%TO.N,COLUMN 5*%
G36*
X333737992Y-161798349D02*
G01*
X335531042Y-162364959D01*
X335537897Y-162370718D01*
X335539123Y-162377583D01*
X335382680Y-163613490D01*
X335378242Y-163621268D01*
X335371659Y-163623706D01*
X334044124Y-163690298D01*
X334035690Y-163687290D01*
X334032270Y-163681764D01*
X333556286Y-161979571D01*
X333557359Y-161970683D01*
X333559277Y-161968154D01*
X333726199Y-161801232D01*
X333734471Y-161797806D01*
X333737992Y-161798349D01*
G37*
%TD.AperFunction*%
%TD*%
%TA.AperFunction,Conductor*%
%TO.N,Row 0*%
G36*
X328285494Y-121403876D02*
G01*
X328289226Y-121407608D01*
X328650304Y-121986296D01*
X328651776Y-121995129D01*
X328650113Y-121998980D01*
X328407773Y-122362490D01*
X328400333Y-122367473D01*
X328398038Y-122367700D01*
X328160562Y-122367700D01*
X328152289Y-122364273D01*
X328150827Y-122362490D01*
X328070046Y-122241320D01*
X327908485Y-121998978D01*
X327906748Y-121990195D01*
X327908293Y-121986299D01*
X328269374Y-121407607D01*
X328276661Y-121402404D01*
X328285494Y-121403876D01*
G37*
%TD.AperFunction*%
%TD*%
%TA.AperFunction,Conductor*%
%TO.N,Row 0*%
G36*
X328404240Y-122710327D02*
G01*
X328407024Y-122714776D01*
X328592505Y-123251090D01*
X328591971Y-123260029D01*
X328585954Y-123265711D01*
X328283806Y-123391819D01*
X328274852Y-123391843D01*
X328274794Y-123391819D01*
X327972645Y-123265711D01*
X327966330Y-123259362D01*
X327966094Y-123251091D01*
X328151576Y-122714775D01*
X328157518Y-122708077D01*
X328162633Y-122706900D01*
X328395967Y-122706900D01*
X328404240Y-122710327D01*
G37*
%TD.AperFunction*%
%TD*%
%TA.AperFunction,Conductor*%
%TO.N,Row 0*%
G36*
X309235494Y-121403876D02*
G01*
X309239226Y-121407608D01*
X309600304Y-121986296D01*
X309601776Y-121995129D01*
X309600113Y-121998980D01*
X309357773Y-122362490D01*
X309350333Y-122367473D01*
X309348038Y-122367700D01*
X309110562Y-122367700D01*
X309102289Y-122364273D01*
X309100827Y-122362490D01*
X309020046Y-122241320D01*
X308858485Y-121998978D01*
X308856748Y-121990195D01*
X308858293Y-121986299D01*
X309219374Y-121407607D01*
X309226661Y-121402404D01*
X309235494Y-121403876D01*
G37*
%TD.AperFunction*%
%TD*%
%TA.AperFunction,Conductor*%
%TO.N,Row 0*%
G36*
X309354240Y-122760327D02*
G01*
X309357024Y-122764776D01*
X309542505Y-123301090D01*
X309541971Y-123310029D01*
X309535954Y-123315711D01*
X309233806Y-123441819D01*
X309224852Y-123441843D01*
X309224794Y-123441819D01*
X308922645Y-123315711D01*
X308916330Y-123309362D01*
X308916094Y-123301091D01*
X309101576Y-122764775D01*
X309107518Y-122758077D01*
X309112633Y-122756900D01*
X309345967Y-122756900D01*
X309354240Y-122760327D01*
G37*
%TD.AperFunction*%
%TD*%
%TA.AperFunction,Conductor*%
%TO.N,Row 0*%
G36*
X290185494Y-116641376D02*
G01*
X290189226Y-116645108D01*
X290550304Y-117223796D01*
X290551776Y-117232629D01*
X290550113Y-117236480D01*
X290307773Y-117599990D01*
X290300333Y-117604973D01*
X290298038Y-117605200D01*
X290060562Y-117605200D01*
X290052289Y-117601773D01*
X290050827Y-117599990D01*
X289970046Y-117478820D01*
X289808485Y-117236478D01*
X289806748Y-117227695D01*
X289808293Y-117223799D01*
X290169374Y-116645107D01*
X290176661Y-116639904D01*
X290185494Y-116641376D01*
G37*
%TD.AperFunction*%
%TD*%
%TA.AperFunction,Conductor*%
%TO.N,Row 0*%
G36*
X290304966Y-122770273D02*
G01*
X290307386Y-122773798D01*
X290541242Y-123300541D01*
X290541467Y-123309493D01*
X290535297Y-123315982D01*
X290535055Y-123316086D01*
X290233806Y-123441819D01*
X290224852Y-123441843D01*
X290224794Y-123441819D01*
X289921878Y-123315391D01*
X289915563Y-123309042D01*
X289915061Y-123301648D01*
X290052021Y-122775597D01*
X290057422Y-122768455D01*
X290063344Y-122766846D01*
X290296693Y-122766846D01*
X290304966Y-122770273D01*
G37*
%TD.AperFunction*%
%TD*%
%TA.AperFunction,Conductor*%
%TO.N,Row 0*%
G36*
X271135494Y-121403876D02*
G01*
X271139226Y-121407608D01*
X271500304Y-121986296D01*
X271501776Y-121995129D01*
X271500113Y-121998980D01*
X271257773Y-122362490D01*
X271250333Y-122367473D01*
X271248038Y-122367700D01*
X271010562Y-122367700D01*
X271002289Y-122364273D01*
X271000827Y-122362490D01*
X270920046Y-122241320D01*
X270758485Y-121998978D01*
X270756748Y-121990195D01*
X270758293Y-121986299D01*
X271119374Y-121407607D01*
X271126661Y-121402404D01*
X271135494Y-121403876D01*
G37*
%TD.AperFunction*%
%TD*%
%TA.AperFunction,Conductor*%
%TO.N,Row 0*%
G36*
X271254240Y-122760327D02*
G01*
X271257024Y-122764776D01*
X271442505Y-123301090D01*
X271441971Y-123310029D01*
X271435954Y-123315711D01*
X271133806Y-123441819D01*
X271124852Y-123441843D01*
X271124794Y-123441819D01*
X270822645Y-123315711D01*
X270816330Y-123309362D01*
X270816094Y-123301091D01*
X271001576Y-122764775D01*
X271007518Y-122758077D01*
X271012633Y-122756900D01*
X271245967Y-122756900D01*
X271254240Y-122760327D01*
G37*
%TD.AperFunction*%
%TD*%
%TA.AperFunction,Conductor*%
%TO.N,Row 0*%
G36*
X233035494Y-126166376D02*
G01*
X233039226Y-126170108D01*
X233400304Y-126748796D01*
X233401776Y-126757629D01*
X233400113Y-126761480D01*
X233157773Y-127124990D01*
X233150333Y-127129973D01*
X233148038Y-127130200D01*
X232910562Y-127130200D01*
X232902289Y-127126773D01*
X232900827Y-127124990D01*
X232820046Y-127003820D01*
X232658485Y-126761478D01*
X232656748Y-126752695D01*
X232658293Y-126748799D01*
X233019374Y-126170107D01*
X233026661Y-126164904D01*
X233035494Y-126166376D01*
G37*
%TD.AperFunction*%
%TD*%
%TA.AperFunction,Conductor*%
%TO.N,Row 0*%
G36*
X233154240Y-127472827D02*
G01*
X233157024Y-127477276D01*
X233342505Y-128013590D01*
X233341971Y-128022529D01*
X233335954Y-128028211D01*
X233033806Y-128154319D01*
X233024852Y-128154343D01*
X233024794Y-128154319D01*
X232722645Y-128028211D01*
X232716330Y-128021862D01*
X232716094Y-128013591D01*
X232901576Y-127477275D01*
X232907518Y-127470577D01*
X232912633Y-127469400D01*
X233145967Y-127469400D01*
X233154240Y-127472827D01*
G37*
%TD.AperFunction*%
%TD*%
%TA.AperFunction,Conductor*%
%TO.N,Row 0*%
G36*
X252085494Y-126166376D02*
G01*
X252089226Y-126170108D01*
X252450304Y-126748796D01*
X252451776Y-126757629D01*
X252450113Y-126761480D01*
X252207773Y-127124990D01*
X252200333Y-127129973D01*
X252198038Y-127130200D01*
X251960562Y-127130200D01*
X251952289Y-127126773D01*
X251950827Y-127124990D01*
X251870046Y-127003820D01*
X251708485Y-126761478D01*
X251706748Y-126752695D01*
X251708293Y-126748799D01*
X252069374Y-126170107D01*
X252076661Y-126164904D01*
X252085494Y-126166376D01*
G37*
%TD.AperFunction*%
%TD*%
%TA.AperFunction,Conductor*%
%TO.N,Row 0*%
G36*
X252203529Y-127482773D02*
G01*
X252206579Y-127488098D01*
X252343538Y-128014146D01*
X252342306Y-128023016D01*
X252336721Y-128027891D01*
X252033806Y-128154319D01*
X252024852Y-128154343D01*
X252024794Y-128154319D01*
X251723544Y-128028586D01*
X251717229Y-128022237D01*
X251717253Y-128013283D01*
X251717337Y-128013087D01*
X251855860Y-127701074D01*
X251951214Y-127486298D01*
X251957703Y-127480128D01*
X251961907Y-127479346D01*
X252195256Y-127479346D01*
X252203529Y-127482773D01*
G37*
%TD.AperFunction*%
%TD*%
%TA.AperFunction,Conductor*%
%TO.N,Row 1*%
G36*
X290185494Y-135691376D02*
G01*
X290189226Y-135695108D01*
X290550304Y-136273796D01*
X290551776Y-136282629D01*
X290550113Y-136286480D01*
X290307773Y-136649990D01*
X290300333Y-136654973D01*
X290298038Y-136655200D01*
X290060562Y-136655200D01*
X290052289Y-136651773D01*
X290050827Y-136649990D01*
X289970046Y-136528820D01*
X289808485Y-136286478D01*
X289806748Y-136277695D01*
X289808293Y-136273799D01*
X290169374Y-135695107D01*
X290176661Y-135689904D01*
X290185494Y-135691376D01*
G37*
%TD.AperFunction*%
%TD*%
%TA.AperFunction,Conductor*%
%TO.N,Row 1*%
G36*
X290304240Y-136947827D02*
G01*
X290307024Y-136952276D01*
X290492505Y-137488590D01*
X290491971Y-137497529D01*
X290485954Y-137503211D01*
X290183806Y-137629319D01*
X290174852Y-137629343D01*
X290174794Y-137629319D01*
X289872645Y-137503211D01*
X289866330Y-137496862D01*
X289866094Y-137488591D01*
X290051576Y-136952275D01*
X290057518Y-136945577D01*
X290062633Y-136944400D01*
X290295967Y-136944400D01*
X290304240Y-136947827D01*
G37*
%TD.AperFunction*%
%TD*%
%TA.AperFunction,Conductor*%
%TO.N,Row 1*%
G36*
X309235494Y-140453876D02*
G01*
X309239226Y-140457608D01*
X309600304Y-141036296D01*
X309601776Y-141045129D01*
X309600113Y-141048980D01*
X309357773Y-141412490D01*
X309350333Y-141417473D01*
X309348038Y-141417700D01*
X309110562Y-141417700D01*
X309102289Y-141414273D01*
X309100827Y-141412490D01*
X309020046Y-141291320D01*
X308858485Y-141048978D01*
X308856748Y-141040195D01*
X308858293Y-141036299D01*
X309219374Y-140457607D01*
X309226661Y-140452404D01*
X309235494Y-140453876D01*
G37*
%TD.AperFunction*%
%TD*%
%TA.AperFunction,Conductor*%
%TO.N,Row 1*%
G36*
X309354240Y-141760327D02*
G01*
X309357024Y-141764776D01*
X309542505Y-142301090D01*
X309541971Y-142310029D01*
X309535954Y-142315711D01*
X309233806Y-142441819D01*
X309224852Y-142441843D01*
X309224794Y-142441819D01*
X308922645Y-142315711D01*
X308916330Y-142309362D01*
X308916094Y-142301091D01*
X309101576Y-141764775D01*
X309107518Y-141758077D01*
X309112633Y-141756900D01*
X309345967Y-141756900D01*
X309354240Y-141760327D01*
G37*
%TD.AperFunction*%
%TD*%
%TA.AperFunction,Conductor*%
%TO.N,Row 1*%
G36*
X233035494Y-145216376D02*
G01*
X233039226Y-145220108D01*
X233400304Y-145798796D01*
X233401776Y-145807629D01*
X233400113Y-145811480D01*
X233157773Y-146174990D01*
X233150333Y-146179973D01*
X233148038Y-146180200D01*
X232910562Y-146180200D01*
X232902289Y-146176773D01*
X232900827Y-146174990D01*
X232820046Y-146053820D01*
X232658485Y-145811478D01*
X232656748Y-145802695D01*
X232658293Y-145798799D01*
X233019374Y-145220107D01*
X233026661Y-145214904D01*
X233035494Y-145216376D01*
G37*
%TD.AperFunction*%
%TD*%
%TA.AperFunction,Conductor*%
%TO.N,Row 1*%
G36*
X233154240Y-146472827D02*
G01*
X233157024Y-146477276D01*
X233342505Y-147013590D01*
X233341971Y-147022529D01*
X233335954Y-147028211D01*
X233033806Y-147154319D01*
X233024852Y-147154343D01*
X233024794Y-147154319D01*
X232722645Y-147028211D01*
X232716330Y-147021862D01*
X232716094Y-147013591D01*
X232901576Y-146477275D01*
X232907518Y-146470577D01*
X232912633Y-146469400D01*
X233145967Y-146469400D01*
X233154240Y-146472827D01*
G37*
%TD.AperFunction*%
%TD*%
%TA.AperFunction,Conductor*%
%TO.N,Row 1*%
G36*
X328285494Y-140453876D02*
G01*
X328289226Y-140457608D01*
X328650304Y-141036296D01*
X328651776Y-141045129D01*
X328650113Y-141048980D01*
X328407773Y-141412490D01*
X328400333Y-141417473D01*
X328398038Y-141417700D01*
X328160562Y-141417700D01*
X328152289Y-141414273D01*
X328150827Y-141412490D01*
X328070046Y-141291320D01*
X327908485Y-141048978D01*
X327906748Y-141040195D01*
X327908293Y-141036299D01*
X328269374Y-140457607D01*
X328276661Y-140452404D01*
X328285494Y-140453876D01*
G37*
%TD.AperFunction*%
%TD*%
%TA.AperFunction,Conductor*%
%TO.N,Row 1*%
G36*
X328404240Y-141710327D02*
G01*
X328407024Y-141714776D01*
X328592505Y-142251090D01*
X328591971Y-142260029D01*
X328585954Y-142265711D01*
X328283806Y-142391819D01*
X328274852Y-142391843D01*
X328274794Y-142391819D01*
X327972645Y-142265711D01*
X327966330Y-142259362D01*
X327966094Y-142251091D01*
X328151576Y-141714775D01*
X328157518Y-141708077D01*
X328162633Y-141706900D01*
X328395967Y-141706900D01*
X328404240Y-141710327D01*
G37*
%TD.AperFunction*%
%TD*%
%TA.AperFunction,Conductor*%
%TO.N,Row 1*%
G36*
X252085071Y-145217053D02*
G01*
X252089026Y-145221158D01*
X252420254Y-145798664D01*
X252421398Y-145807545D01*
X252419604Y-145811316D01*
X252157802Y-146175331D01*
X252150189Y-146180047D01*
X252148303Y-146180200D01*
X251911321Y-146180200D01*
X251903048Y-146176773D01*
X251900997Y-146174006D01*
X251829701Y-146040327D01*
X251707479Y-145811162D01*
X251706611Y-145802251D01*
X251707875Y-145799470D01*
X252068952Y-145220784D01*
X252076238Y-145215581D01*
X252085071Y-145217053D01*
G37*
%TD.AperFunction*%
%TD*%
%TA.AperFunction,Conductor*%
%TO.N,Row 1*%
G36*
X252154240Y-146472827D02*
G01*
X252157024Y-146477276D01*
X252342505Y-147013590D01*
X252341971Y-147022529D01*
X252335954Y-147028211D01*
X252033806Y-147154319D01*
X252024852Y-147154343D01*
X252024794Y-147154319D01*
X251722645Y-147028211D01*
X251716330Y-147021862D01*
X251716094Y-147013591D01*
X251901576Y-146477275D01*
X251907518Y-146470577D01*
X251912633Y-146469400D01*
X252145967Y-146469400D01*
X252154240Y-146472827D01*
G37*
%TD.AperFunction*%
%TD*%
%TA.AperFunction,Conductor*%
%TO.N,Row 1*%
G36*
X271135494Y-140453876D02*
G01*
X271139226Y-140457608D01*
X271500304Y-141036296D01*
X271501776Y-141045129D01*
X271500113Y-141048980D01*
X271257773Y-141412490D01*
X271250333Y-141417473D01*
X271248038Y-141417700D01*
X271010562Y-141417700D01*
X271002289Y-141414273D01*
X271000827Y-141412490D01*
X270920046Y-141291320D01*
X270758485Y-141048978D01*
X270756748Y-141040195D01*
X270758293Y-141036299D01*
X271119374Y-140457607D01*
X271126661Y-140452404D01*
X271135494Y-140453876D01*
G37*
%TD.AperFunction*%
%TD*%
%TA.AperFunction,Conductor*%
%TO.N,Row 1*%
G36*
X271254240Y-141760327D02*
G01*
X271257024Y-141764776D01*
X271442505Y-142301090D01*
X271441971Y-142310029D01*
X271435954Y-142315711D01*
X271133806Y-142441819D01*
X271124852Y-142441843D01*
X271124794Y-142441819D01*
X270822645Y-142315711D01*
X270816330Y-142309362D01*
X270816094Y-142301091D01*
X271001576Y-141764775D01*
X271007518Y-141758077D01*
X271012633Y-141756900D01*
X271245967Y-141756900D01*
X271254240Y-141760327D01*
G37*
%TD.AperFunction*%
%TD*%
%TA.AperFunction,Conductor*%
%TO.N,Row 2*%
G36*
X326890853Y-171492809D02*
G01*
X326898555Y-171497373D01*
X326900775Y-171506049D01*
X326900505Y-171507378D01*
X326656163Y-172432436D01*
X326650737Y-172439560D01*
X326644851Y-172441148D01*
X326410977Y-172441148D01*
X326402704Y-172437721D01*
X326400589Y-172434830D01*
X326157180Y-171965022D01*
X326156416Y-171956100D01*
X326158090Y-171952781D01*
X326524719Y-171446685D01*
X326532347Y-171441998D01*
X326535852Y-171441969D01*
X326890853Y-171492809D01*
G37*
%TD.AperFunction*%
%TD*%
%TA.AperFunction,Conductor*%
%TO.N,Row 2*%
G36*
X326653802Y-172759595D02*
G01*
X326656586Y-172764044D01*
X326842067Y-173300358D01*
X326841533Y-173309297D01*
X326835516Y-173314979D01*
X326533368Y-173441087D01*
X326524414Y-173441111D01*
X326524356Y-173441087D01*
X326222207Y-173314979D01*
X326215892Y-173308630D01*
X326215656Y-173300359D01*
X326401138Y-172764043D01*
X326407080Y-172757345D01*
X326412195Y-172756168D01*
X326645529Y-172756168D01*
X326653802Y-172759595D01*
G37*
%TD.AperFunction*%
%TD*%
%TA.AperFunction,Conductor*%
%TO.N,Row 2*%
G36*
X344843172Y-176694227D02*
G01*
X344847247Y-176700248D01*
X345034942Y-177355546D01*
X345034690Y-177362767D01*
X344927100Y-177658628D01*
X344921052Y-177665231D01*
X344916104Y-177666329D01*
X344681643Y-177666329D01*
X344673370Y-177662902D01*
X344671107Y-177659716D01*
X344447193Y-177195989D01*
X344446682Y-177187049D01*
X344448484Y-177183732D01*
X344826758Y-176696295D01*
X344834535Y-176691862D01*
X344843172Y-176694227D01*
G37*
%TD.AperFunction*%
%TD*%
%TA.AperFunction,Conductor*%
%TO.N,Row 2*%
G36*
X344924849Y-178004978D02*
G01*
X344927333Y-178008652D01*
X345019622Y-178224671D01*
X345153059Y-178537005D01*
X345153158Y-178545960D01*
X345146897Y-178552361D01*
X345146806Y-178552399D01*
X344845403Y-178678196D01*
X344836449Y-178678220D01*
X344836391Y-178678196D01*
X344533604Y-178551822D01*
X344527289Y-178545473D01*
X344526829Y-178537925D01*
X344671936Y-178010148D01*
X344677433Y-178003081D01*
X344683217Y-178001551D01*
X344916576Y-178001551D01*
X344924849Y-178004978D01*
G37*
%TD.AperFunction*%
%TD*%
%TA.AperFunction,Conductor*%
%TO.N,Net-(D201-A)*%
G36*
X233156311Y-121783627D02*
G01*
X233157773Y-121785410D01*
X233400113Y-122148919D01*
X233401851Y-122157704D01*
X233400304Y-122161603D01*
X233039226Y-122740291D01*
X233031939Y-122745495D01*
X233023106Y-122744023D01*
X233019374Y-122740291D01*
X232658295Y-122161603D01*
X232656823Y-122152770D01*
X232658483Y-122148924D01*
X232900827Y-121785410D01*
X232908267Y-121780427D01*
X232910562Y-121780200D01*
X233148038Y-121780200D01*
X233156311Y-121783627D01*
G37*
%TD.AperFunction*%
%TD*%
%TA.AperFunction,Conductor*%
%TO.N,Net-(D202-A)*%
G36*
X252206311Y-121783627D02*
G01*
X252207773Y-121785410D01*
X252450113Y-122148919D01*
X252451851Y-122157704D01*
X252450304Y-122161603D01*
X252089226Y-122740291D01*
X252081939Y-122745495D01*
X252073106Y-122744023D01*
X252069374Y-122740291D01*
X251708295Y-122161603D01*
X251706823Y-122152770D01*
X251708483Y-122148924D01*
X251950827Y-121785410D01*
X251958267Y-121780427D01*
X251960562Y-121780200D01*
X252198038Y-121780200D01*
X252206311Y-121783627D01*
G37*
%TD.AperFunction*%
%TD*%
%TA.AperFunction,Conductor*%
%TO.N,Net-(D203-A)*%
G36*
X271256311Y-117021127D02*
G01*
X271257773Y-117022910D01*
X271500113Y-117386419D01*
X271501851Y-117395204D01*
X271500304Y-117399103D01*
X271139226Y-117977791D01*
X271131939Y-117982995D01*
X271123106Y-117981523D01*
X271119374Y-117977791D01*
X270758295Y-117399103D01*
X270756823Y-117390270D01*
X270758483Y-117386424D01*
X271000827Y-117022910D01*
X271008267Y-117017927D01*
X271010562Y-117017700D01*
X271248038Y-117017700D01*
X271256311Y-117021127D01*
G37*
%TD.AperFunction*%
%TD*%
%TA.AperFunction,Conductor*%
%TO.N,Net-(D204-A)*%
G36*
X290306311Y-112258627D02*
G01*
X290307773Y-112260410D01*
X290550113Y-112623919D01*
X290551851Y-112632704D01*
X290550304Y-112636603D01*
X290189226Y-113215291D01*
X290181939Y-113220495D01*
X290173106Y-113219023D01*
X290169374Y-113215291D01*
X289808295Y-112636603D01*
X289806823Y-112627770D01*
X289808483Y-112623924D01*
X290050827Y-112260410D01*
X290058267Y-112255427D01*
X290060562Y-112255200D01*
X290298038Y-112255200D01*
X290306311Y-112258627D01*
G37*
%TD.AperFunction*%
%TD*%
%TA.AperFunction,Conductor*%
%TO.N,Net-(D205-A)*%
G36*
X309356311Y-117021127D02*
G01*
X309357773Y-117022910D01*
X309600113Y-117386419D01*
X309601851Y-117395204D01*
X309600304Y-117399103D01*
X309239226Y-117977791D01*
X309231939Y-117982995D01*
X309223106Y-117981523D01*
X309219374Y-117977791D01*
X308858295Y-117399103D01*
X308856823Y-117390270D01*
X308858483Y-117386424D01*
X309100827Y-117022910D01*
X309108267Y-117017927D01*
X309110562Y-117017700D01*
X309348038Y-117017700D01*
X309356311Y-117021127D01*
G37*
%TD.AperFunction*%
%TD*%
%TA.AperFunction,Conductor*%
%TO.N,Net-(D206-A)*%
G36*
X328406311Y-117021127D02*
G01*
X328407773Y-117022910D01*
X328650113Y-117386419D01*
X328651851Y-117395204D01*
X328650304Y-117399103D01*
X328289226Y-117977791D01*
X328281939Y-117982995D01*
X328273106Y-117981523D01*
X328269374Y-117977791D01*
X327908295Y-117399103D01*
X327906823Y-117390270D01*
X327908483Y-117386424D01*
X328150827Y-117022910D01*
X328158267Y-117017927D01*
X328160562Y-117017700D01*
X328398038Y-117017700D01*
X328406311Y-117021127D01*
G37*
%TD.AperFunction*%
%TD*%
%TA.AperFunction,Conductor*%
%TO.N,Net-(D207-A)*%
G36*
X233156311Y-140833627D02*
G01*
X233157773Y-140835410D01*
X233400113Y-141198919D01*
X233401851Y-141207704D01*
X233400304Y-141211603D01*
X233039226Y-141790291D01*
X233031939Y-141795495D01*
X233023106Y-141794023D01*
X233019374Y-141790291D01*
X232658295Y-141211603D01*
X232656823Y-141202770D01*
X232658483Y-141198924D01*
X232900827Y-140835410D01*
X232908267Y-140830427D01*
X232910562Y-140830200D01*
X233148038Y-140830200D01*
X233156311Y-140833627D01*
G37*
%TD.AperFunction*%
%TD*%
%TA.AperFunction,Conductor*%
%TO.N,Net-(D208-A)*%
G36*
X252206311Y-140833627D02*
G01*
X252207773Y-140835410D01*
X252450113Y-141198919D01*
X252451851Y-141207704D01*
X252450304Y-141211603D01*
X252089226Y-141790291D01*
X252081939Y-141795495D01*
X252073106Y-141794023D01*
X252069374Y-141790291D01*
X251708295Y-141211603D01*
X251706823Y-141202770D01*
X251708483Y-141198924D01*
X251950827Y-140835410D01*
X251958267Y-140830427D01*
X251960562Y-140830200D01*
X252198038Y-140830200D01*
X252206311Y-140833627D01*
G37*
%TD.AperFunction*%
%TD*%
%TA.AperFunction,Conductor*%
%TO.N,Net-(D209-A)*%
G36*
X271256311Y-136071127D02*
G01*
X271257773Y-136072910D01*
X271500113Y-136436419D01*
X271501851Y-136445204D01*
X271500304Y-136449103D01*
X271139226Y-137027791D01*
X271131939Y-137032995D01*
X271123106Y-137031523D01*
X271119374Y-137027791D01*
X270758295Y-136449103D01*
X270756823Y-136440270D01*
X270758483Y-136436424D01*
X271000827Y-136072910D01*
X271008267Y-136067927D01*
X271010562Y-136067700D01*
X271248038Y-136067700D01*
X271256311Y-136071127D01*
G37*
%TD.AperFunction*%
%TD*%
%TA.AperFunction,Conductor*%
%TO.N,Net-(D210-A)*%
G36*
X290306311Y-131308627D02*
G01*
X290307773Y-131310410D01*
X290550113Y-131673919D01*
X290551851Y-131682704D01*
X290550304Y-131686603D01*
X290189226Y-132265291D01*
X290181939Y-132270495D01*
X290173106Y-132269023D01*
X290169374Y-132265291D01*
X289808295Y-131686603D01*
X289806823Y-131677770D01*
X289808483Y-131673924D01*
X290050827Y-131310410D01*
X290058267Y-131305427D01*
X290060562Y-131305200D01*
X290298038Y-131305200D01*
X290306311Y-131308627D01*
G37*
%TD.AperFunction*%
%TD*%
%TA.AperFunction,Conductor*%
%TO.N,Net-(D211-A)*%
G36*
X309356311Y-136071127D02*
G01*
X309357773Y-136072910D01*
X309600113Y-136436419D01*
X309601851Y-136445204D01*
X309600304Y-136449103D01*
X309239226Y-137027791D01*
X309231939Y-137032995D01*
X309223106Y-137031523D01*
X309219374Y-137027791D01*
X308858295Y-136449103D01*
X308856823Y-136440270D01*
X308858483Y-136436424D01*
X309100827Y-136072910D01*
X309108267Y-136067927D01*
X309110562Y-136067700D01*
X309348038Y-136067700D01*
X309356311Y-136071127D01*
G37*
%TD.AperFunction*%
%TD*%
%TA.AperFunction,Conductor*%
%TO.N,Net-(D212-A)*%
G36*
X328406311Y-136071127D02*
G01*
X328407773Y-136072910D01*
X328650113Y-136436419D01*
X328651851Y-136445204D01*
X328650304Y-136449103D01*
X328289226Y-137027791D01*
X328281939Y-137032995D01*
X328273106Y-137031523D01*
X328269374Y-137027791D01*
X327908295Y-136449103D01*
X327906823Y-136440270D01*
X327908483Y-136436424D01*
X328150827Y-136072910D01*
X328158267Y-136067927D01*
X328160562Y-136067700D01*
X328398038Y-136067700D01*
X328406311Y-136071127D01*
G37*
%TD.AperFunction*%
%TD*%
%TA.AperFunction,Conductor*%
%TO.N,Net-(D213-A)*%
G36*
X328002092Y-163817948D02*
G01*
X328003393Y-163820172D01*
X328655719Y-165284400D01*
X328655956Y-165293351D01*
X328651193Y-165299107D01*
X327908607Y-165759095D01*
X327596563Y-165952389D01*
X327593862Y-165954062D01*
X327587701Y-165955816D01*
X327348255Y-165955816D01*
X327339982Y-165952389D01*
X327337794Y-165949357D01*
X326739422Y-164754975D01*
X326738780Y-164746043D01*
X326742896Y-164740349D01*
X327985722Y-163815546D01*
X327994404Y-163813357D01*
X328002092Y-163817948D01*
G37*
%TD.AperFunction*%
%TD*%
%TA.AperFunction,Conductor*%
%TO.N,Net-(D213-A)*%
G36*
X327592188Y-167177925D02*
G01*
X327594303Y-167180816D01*
X327837711Y-167650622D01*
X327838475Y-167659544D01*
X327836798Y-167662868D01*
X327470173Y-168168958D01*
X327462544Y-168173647D01*
X327459039Y-168173676D01*
X327104039Y-168122836D01*
X327096336Y-168118271D01*
X327094116Y-168109595D01*
X327094386Y-168108266D01*
X327215268Y-167650622D01*
X327338729Y-167183210D01*
X327344155Y-167176086D01*
X327350041Y-167174498D01*
X327583915Y-167174498D01*
X327592188Y-167177925D01*
G37*
%TD.AperFunction*%
%TD*%
%TA.AperFunction,Conductor*%
%TO.N,Net-(D214-A)*%
G36*
X345904223Y-172415034D02*
G01*
X345906338Y-172417925D01*
X346149746Y-172887731D01*
X346150510Y-172896653D01*
X346148833Y-172899977D01*
X345782208Y-173406067D01*
X345774579Y-173410756D01*
X345771074Y-173410785D01*
X345416074Y-173359945D01*
X345408371Y-173355380D01*
X345406151Y-173346704D01*
X345406421Y-173345375D01*
X345527303Y-172887731D01*
X345650764Y-172420319D01*
X345656190Y-172413195D01*
X345662076Y-172411607D01*
X345895950Y-172411607D01*
X345904223Y-172415034D01*
G37*
%TD.AperFunction*%
%TD*%
%TA.AperFunction,Conductor*%
%TO.N,Net-(D214-A)*%
G36*
X346314127Y-169055057D02*
G01*
X346315428Y-169057281D01*
X346967754Y-170521509D01*
X346967991Y-170530460D01*
X346963228Y-170536216D01*
X346220642Y-170996204D01*
X345908598Y-171189498D01*
X345905897Y-171191171D01*
X345899736Y-171192925D01*
X345660290Y-171192925D01*
X345652017Y-171189498D01*
X345649829Y-171186466D01*
X345051457Y-169992084D01*
X345050815Y-169983152D01*
X345054931Y-169977458D01*
X346297757Y-169052655D01*
X346306439Y-169050466D01*
X346314127Y-169055057D01*
G37*
%TD.AperFunction*%
%TD*%
%TA.AperFunction,Conductor*%
%TO.N,Net-(D301-A)*%
G36*
X204156311Y-121783627D02*
G01*
X204157773Y-121785410D01*
X204400113Y-122148919D01*
X204401851Y-122157704D01*
X204400304Y-122161603D01*
X204039226Y-122740291D01*
X204031939Y-122745495D01*
X204023106Y-122744023D01*
X204019374Y-122740291D01*
X203658295Y-122161603D01*
X203656823Y-122152770D01*
X203658483Y-122148924D01*
X203900827Y-121785410D01*
X203908267Y-121780427D01*
X203910562Y-121780200D01*
X204148038Y-121780200D01*
X204156311Y-121783627D01*
G37*
%TD.AperFunction*%
%TD*%
%TA.AperFunction,Conductor*%
%TO.N,Net-(D302-A)*%
G36*
X185106311Y-121783627D02*
G01*
X185107773Y-121785410D01*
X185350113Y-122148919D01*
X185351851Y-122157704D01*
X185350304Y-122161603D01*
X184989226Y-122740291D01*
X184981939Y-122745495D01*
X184973106Y-122744023D01*
X184969374Y-122740291D01*
X184608295Y-122161603D01*
X184606823Y-122152770D01*
X184608483Y-122148924D01*
X184850827Y-121785410D01*
X184858267Y-121780427D01*
X184860562Y-121780200D01*
X185098038Y-121780200D01*
X185106311Y-121783627D01*
G37*
%TD.AperFunction*%
%TD*%
%TA.AperFunction,Conductor*%
%TO.N,Net-(D303-A)*%
G36*
X165852637Y-117391261D02*
G01*
X165860241Y-117395989D01*
X165862357Y-117401479D01*
X165928884Y-117984717D01*
X165926416Y-117993325D01*
X165921700Y-117996867D01*
X165564586Y-118143388D01*
X165555631Y-118143358D01*
X165549561Y-118137550D01*
X165239047Y-117478439D01*
X165238621Y-117469495D01*
X165242754Y-117463988D01*
X165433218Y-117325607D01*
X165441923Y-117323516D01*
X165852637Y-117391261D01*
G37*
%TD.AperFunction*%
%TD*%
%TA.AperFunction,Conductor*%
%TO.N,Net-(D303-A)*%
G36*
X164936605Y-113701298D02*
G01*
X164938435Y-113703128D01*
X165923189Y-114935055D01*
X165925678Y-114943657D01*
X165922855Y-114950064D01*
X165057796Y-115938704D01*
X165049769Y-115942674D01*
X165048991Y-115942700D01*
X164809609Y-115942700D01*
X164801336Y-115939273D01*
X164800804Y-115938705D01*
X164800804Y-115938704D01*
X163935743Y-114950064D01*
X163932875Y-114941582D01*
X163935408Y-114935057D01*
X164920162Y-113703131D01*
X164928003Y-113698809D01*
X164936605Y-113701298D01*
G37*
%TD.AperFunction*%
%TD*%
%TA.AperFunction,Conductor*%
%TO.N,Net-(D304-A)*%
G36*
X147006311Y-112258627D02*
G01*
X147007773Y-112260410D01*
X147250113Y-112623919D01*
X147251851Y-112632704D01*
X147250304Y-112636603D01*
X146889226Y-113215291D01*
X146881939Y-113220495D01*
X146873106Y-113219023D01*
X146869374Y-113215291D01*
X146508295Y-112636603D01*
X146506823Y-112627770D01*
X146508483Y-112623924D01*
X146750827Y-112260410D01*
X146758267Y-112255427D01*
X146760562Y-112255200D01*
X146998038Y-112255200D01*
X147006311Y-112258627D01*
G37*
%TD.AperFunction*%
%TD*%
%TA.AperFunction,Conductor*%
%TO.N,Net-(D305-A)*%
G36*
X127956311Y-117021127D02*
G01*
X127957773Y-117022910D01*
X128200113Y-117386419D01*
X128201851Y-117395204D01*
X128200304Y-117399103D01*
X127839226Y-117977791D01*
X127831939Y-117982995D01*
X127823106Y-117981523D01*
X127819374Y-117977791D01*
X127458295Y-117399103D01*
X127456823Y-117390270D01*
X127458483Y-117386424D01*
X127700827Y-117022910D01*
X127708267Y-117017927D01*
X127710562Y-117017700D01*
X127948038Y-117017700D01*
X127956311Y-117021127D01*
G37*
%TD.AperFunction*%
%TD*%
%TA.AperFunction,Conductor*%
%TO.N,Net-(D306-A)*%
G36*
X108906311Y-117021127D02*
G01*
X108907773Y-117022910D01*
X109150113Y-117386419D01*
X109151851Y-117395204D01*
X109150304Y-117399103D01*
X108789226Y-117977791D01*
X108781939Y-117982995D01*
X108773106Y-117981523D01*
X108769374Y-117977791D01*
X108408295Y-117399103D01*
X108406823Y-117390270D01*
X108408483Y-117386424D01*
X108650827Y-117022910D01*
X108658267Y-117017927D01*
X108660562Y-117017700D01*
X108898038Y-117017700D01*
X108906311Y-117021127D01*
G37*
%TD.AperFunction*%
%TD*%
%TA.AperFunction,Conductor*%
%TO.N,Net-(D307-A)*%
G36*
X204156311Y-140833627D02*
G01*
X204157773Y-140835410D01*
X204400113Y-141198919D01*
X204401851Y-141207704D01*
X204400304Y-141211603D01*
X204039226Y-141790291D01*
X204031939Y-141795495D01*
X204023106Y-141794023D01*
X204019374Y-141790291D01*
X203658295Y-141211603D01*
X203656823Y-141202770D01*
X203658483Y-141198924D01*
X203900827Y-140835410D01*
X203908267Y-140830427D01*
X203910562Y-140830200D01*
X204148038Y-140830200D01*
X204156311Y-140833627D01*
G37*
%TD.AperFunction*%
%TD*%
%TA.AperFunction,Conductor*%
%TO.N,Net-(D308-A)*%
G36*
X185106311Y-140833627D02*
G01*
X185107773Y-140835410D01*
X185350113Y-141198919D01*
X185351851Y-141207704D01*
X185350304Y-141211603D01*
X184989226Y-141790291D01*
X184981939Y-141795495D01*
X184973106Y-141794023D01*
X184969374Y-141790291D01*
X184608295Y-141211603D01*
X184606823Y-141202770D01*
X184608483Y-141198924D01*
X184850827Y-140835410D01*
X184858267Y-140830427D01*
X184860562Y-140830200D01*
X185098038Y-140830200D01*
X185106311Y-140833627D01*
G37*
%TD.AperFunction*%
%TD*%
%TA.AperFunction,Conductor*%
%TO.N,Net-(D309-A)*%
G36*
X166056311Y-136071127D02*
G01*
X166057773Y-136072910D01*
X166300113Y-136436419D01*
X166301851Y-136445204D01*
X166300304Y-136449103D01*
X165939226Y-137027791D01*
X165931939Y-137032995D01*
X165923106Y-137031523D01*
X165919374Y-137027791D01*
X165558295Y-136449103D01*
X165556823Y-136440270D01*
X165558483Y-136436424D01*
X165800827Y-136072910D01*
X165808267Y-136067927D01*
X165810562Y-136067700D01*
X166048038Y-136067700D01*
X166056311Y-136071127D01*
G37*
%TD.AperFunction*%
%TD*%
%TA.AperFunction,Conductor*%
%TO.N,Net-(D310-A)*%
G36*
X147006311Y-131308627D02*
G01*
X147007773Y-131310410D01*
X147250113Y-131673919D01*
X147251851Y-131682704D01*
X147250304Y-131686603D01*
X146889226Y-132265291D01*
X146881939Y-132270495D01*
X146873106Y-132269023D01*
X146869374Y-132265291D01*
X146508295Y-131686603D01*
X146506823Y-131677770D01*
X146508483Y-131673924D01*
X146750827Y-131310410D01*
X146758267Y-131305427D01*
X146760562Y-131305200D01*
X146998038Y-131305200D01*
X147006311Y-131308627D01*
G37*
%TD.AperFunction*%
%TD*%
%TA.AperFunction,Conductor*%
%TO.N,Net-(D311-A)*%
G36*
X127956311Y-136071127D02*
G01*
X127957773Y-136072910D01*
X128200113Y-136436419D01*
X128201851Y-136445204D01*
X128200304Y-136449103D01*
X127839226Y-137027791D01*
X127831939Y-137032995D01*
X127823106Y-137031523D01*
X127819374Y-137027791D01*
X127458295Y-136449103D01*
X127456823Y-136440270D01*
X127458483Y-136436424D01*
X127700827Y-136072910D01*
X127708267Y-136067927D01*
X127710562Y-136067700D01*
X127948038Y-136067700D01*
X127956311Y-136071127D01*
G37*
%TD.AperFunction*%
%TD*%
%TA.AperFunction,Conductor*%
%TO.N,Net-(D312-A)*%
G36*
X108906311Y-136071127D02*
G01*
X108907773Y-136072910D01*
X109150113Y-136436419D01*
X109151851Y-136445204D01*
X109150304Y-136449103D01*
X108789226Y-137027791D01*
X108781939Y-137032995D01*
X108773106Y-137031523D01*
X108769374Y-137027791D01*
X108408295Y-136449103D01*
X108406823Y-136440270D01*
X108408483Y-136436424D01*
X108650827Y-136072910D01*
X108658267Y-136067927D01*
X108660562Y-136067700D01*
X108898038Y-136067700D01*
X108906311Y-136071127D01*
G37*
%TD.AperFunction*%
%TD*%
%TA.AperFunction,Conductor*%
%TO.N,Net-(D313-A)*%
G36*
X108320444Y-161192979D02*
G01*
X108326212Y-161199646D01*
X108440661Y-161537082D01*
X108440830Y-161544057D01*
X108253388Y-162199462D01*
X108247818Y-162206474D01*
X108238922Y-162207494D01*
X108232904Y-162203429D01*
X107854011Y-161716403D01*
X107851636Y-161707769D01*
X107852904Y-161703746D01*
X108082524Y-161270147D01*
X108089244Y-161264499D01*
X108311517Y-161192277D01*
X108320444Y-161192979D01*
G37*
%TD.AperFunction*%
%TD*%
%TA.AperFunction,Conductor*%
%TO.N,Net-(D313-A)*%
G36*
X106416974Y-159127126D02*
G01*
X107898220Y-159729523D01*
X107904592Y-159735814D01*
X107905213Y-159737732D01*
X108135185Y-160735098D01*
X108133704Y-160743930D01*
X108129096Y-160748152D01*
X107918394Y-160855512D01*
X107910237Y-160856436D01*
X106307750Y-160454712D01*
X106300558Y-160449376D01*
X106298931Y-160442455D01*
X106400902Y-159137051D01*
X106404962Y-159129072D01*
X106413477Y-159126300D01*
X106416974Y-159127126D01*
G37*
%TD.AperFunction*%
%TD*%
%TA.AperFunction,Conductor*%
%TO.N,Net-(D314-A)*%
G36*
X88153042Y-164364387D02*
G01*
X89633934Y-164966506D01*
X89640306Y-164972795D01*
X89641034Y-164975229D01*
X89800432Y-165843100D01*
X89798556Y-165851857D01*
X89795801Y-165854679D01*
X89603666Y-165994275D01*
X89594959Y-165996366D01*
X89594479Y-165996280D01*
X88059474Y-165687073D01*
X88052040Y-165682080D01*
X88050110Y-165674823D01*
X88136963Y-164374444D01*
X88140934Y-164366420D01*
X88149417Y-164363552D01*
X88153042Y-164364387D01*
G37*
%TD.AperFunction*%
%TD*%
%TA.AperFunction,Conductor*%
%TO.N,COLUMN 6*%
G36*
X191157264Y-133058627D02*
G01*
X191157796Y-133059195D01*
X192022855Y-134047834D01*
X192025724Y-134056317D01*
X192023189Y-134062844D01*
X191038439Y-135294767D01*
X191030597Y-135299090D01*
X191021995Y-135296601D01*
X191020161Y-135294767D01*
X190035410Y-134062844D01*
X190032921Y-134054242D01*
X190035742Y-134047836D01*
X190900804Y-133059194D01*
X190908831Y-133055226D01*
X190909609Y-133055200D01*
X191148991Y-133055200D01*
X191157264Y-133058627D01*
G37*
%TD.AperFunction*%
%TD*%
%TA.AperFunction,Conductor*%
%TO.N,COLUMN 6*%
G36*
X191036605Y-116263798D02*
G01*
X191038435Y-116265628D01*
X192023189Y-117497555D01*
X192025678Y-117506157D01*
X192022855Y-117512564D01*
X191157796Y-118501204D01*
X191149769Y-118505174D01*
X191148991Y-118505200D01*
X190909609Y-118505200D01*
X190901336Y-118501773D01*
X190900804Y-118501205D01*
X190900804Y-118501204D01*
X190035743Y-117512564D01*
X190032875Y-117504082D01*
X190035408Y-117497557D01*
X191020162Y-116265631D01*
X191028003Y-116261309D01*
X191036605Y-116263798D01*
G37*
%TD.AperFunction*%
%TD*%
%TA.AperFunction,Conductor*%
%TO.N,COLUMN 6*%
G36*
X189271237Y-114383713D02*
G01*
X191164722Y-115002233D01*
X191171522Y-115008060D01*
X191172713Y-115014690D01*
X191031180Y-116246617D01*
X191026831Y-116254445D01*
X191021003Y-116256892D01*
X189763710Y-116413603D01*
X189755077Y-116411226D01*
X189751205Y-116405813D01*
X189125810Y-114594314D01*
X189126349Y-114585377D01*
X189127137Y-114584003D01*
X189257878Y-114388335D01*
X189265323Y-114383361D01*
X189271237Y-114383713D01*
G37*
%TD.AperFunction*%
%TD*%
%TA.AperFunction,Conductor*%
%TO.N,COLUMN 7*%
G36*
X170180825Y-114275529D02*
G01*
X172134782Y-115001954D01*
X172141342Y-115008048D01*
X172142305Y-115014437D01*
X171981199Y-116246784D01*
X171976729Y-116254543D01*
X171970861Y-116256899D01*
X170713421Y-116393422D01*
X170704826Y-116390908D01*
X170701163Y-116385789D01*
X169999560Y-114456691D01*
X169999952Y-114447748D01*
X170002279Y-114444425D01*
X170168481Y-114278223D01*
X170176753Y-114274797D01*
X170180825Y-114275529D01*
G37*
%TD.AperFunction*%
%TD*%
%TA.AperFunction,Conductor*%
%TO.N,COLUMN 7*%
G36*
X171986605Y-116263798D02*
G01*
X171988435Y-116265628D01*
X172973189Y-117497555D01*
X172975678Y-117506157D01*
X172972855Y-117512564D01*
X172107796Y-118501204D01*
X172099769Y-118505174D01*
X172098991Y-118505200D01*
X171859609Y-118505200D01*
X171851336Y-118501773D01*
X171850804Y-118501205D01*
X171850804Y-118501204D01*
X170985743Y-117512564D01*
X170982875Y-117504082D01*
X170985408Y-117497557D01*
X171970162Y-116265631D01*
X171978003Y-116261309D01*
X171986605Y-116263798D01*
G37*
%TD.AperFunction*%
%TD*%
%TA.AperFunction,Conductor*%
%TO.N,COLUMN 7*%
G36*
X172107264Y-133058627D02*
G01*
X172107796Y-133059195D01*
X172972855Y-134047834D01*
X172975724Y-134056317D01*
X172973189Y-134062844D01*
X171988439Y-135294767D01*
X171980597Y-135299090D01*
X171971995Y-135296601D01*
X171970161Y-135294767D01*
X170985410Y-134062844D01*
X170982921Y-134054242D01*
X170985742Y-134047836D01*
X171850804Y-133059194D01*
X171858831Y-133055226D01*
X171859609Y-133055200D01*
X172098991Y-133055200D01*
X172107264Y-133058627D01*
G37*
%TD.AperFunction*%
%TD*%
%TA.AperFunction,Conductor*%
%TO.N,COLUMN 8*%
G36*
X152936605Y-111501298D02*
G01*
X152938435Y-111503128D01*
X153923189Y-112735055D01*
X153925678Y-112743657D01*
X153922855Y-112750064D01*
X153057796Y-113738704D01*
X153049769Y-113742674D01*
X153048991Y-113742700D01*
X152809609Y-113742700D01*
X152801336Y-113739273D01*
X152800804Y-113738705D01*
X152800804Y-113738704D01*
X151935743Y-112750064D01*
X151932875Y-112741582D01*
X151935408Y-112735057D01*
X152920162Y-111503131D01*
X152928003Y-111498809D01*
X152936605Y-111501298D01*
G37*
%TD.AperFunction*%
%TD*%
%TA.AperFunction,Conductor*%
%TO.N,COLUMN 8*%
G36*
X153057264Y-128296127D02*
G01*
X153057796Y-128296695D01*
X153922855Y-129285334D01*
X153925724Y-129293817D01*
X153923189Y-129300344D01*
X152938439Y-130532267D01*
X152930597Y-130536590D01*
X152921995Y-130534101D01*
X152920161Y-130532267D01*
X151935410Y-129300344D01*
X151932921Y-129291742D01*
X151935742Y-129285336D01*
X152800804Y-128296694D01*
X152808831Y-128292726D01*
X152809609Y-128292700D01*
X153048991Y-128292700D01*
X153057264Y-128296127D01*
G37*
%TD.AperFunction*%
%TD*%
%TA.AperFunction,Conductor*%
%TO.N,COLUMN 8*%
G36*
X151130825Y-109513029D02*
G01*
X153084782Y-110239454D01*
X153091342Y-110245548D01*
X153092305Y-110251937D01*
X152931199Y-111484284D01*
X152926729Y-111492043D01*
X152920861Y-111494399D01*
X151663421Y-111630922D01*
X151654826Y-111628408D01*
X151651163Y-111623289D01*
X150949560Y-109694191D01*
X150949952Y-109685248D01*
X150952279Y-109681925D01*
X151118481Y-109515723D01*
X151126753Y-109512297D01*
X151130825Y-109513029D01*
G37*
%TD.AperFunction*%
%TD*%
%TA.AperFunction,Conductor*%
%TO.N,COLUMN 9*%
G36*
X134007264Y-123533627D02*
G01*
X134007796Y-123534195D01*
X134872855Y-124522834D01*
X134875724Y-124531317D01*
X134873189Y-124537844D01*
X133888439Y-125769767D01*
X133880597Y-125774090D01*
X133871995Y-125771601D01*
X133870161Y-125769767D01*
X132885410Y-124537844D01*
X132882921Y-124529242D01*
X132885742Y-124522836D01*
X133750804Y-123534194D01*
X133758831Y-123530226D01*
X133759609Y-123530200D01*
X133998991Y-123530200D01*
X134007264Y-123533627D01*
G37*
%TD.AperFunction*%
%TD*%
%TA.AperFunction,Conductor*%
%TO.N,COLUMN 9*%
G36*
X133886605Y-106738798D02*
G01*
X133888435Y-106740628D01*
X134873189Y-107972555D01*
X134875678Y-107981157D01*
X134872855Y-107987564D01*
X134007796Y-108976204D01*
X133999769Y-108980174D01*
X133998991Y-108980200D01*
X133759609Y-108980200D01*
X133751336Y-108976773D01*
X133750804Y-108976205D01*
X133750804Y-108976204D01*
X132885743Y-107987564D01*
X132882875Y-107979082D01*
X132885408Y-107972557D01*
X133870162Y-106740631D01*
X133878003Y-106736309D01*
X133886605Y-106738798D01*
G37*
%TD.AperFunction*%
%TD*%
%TA.AperFunction,Conductor*%
%TO.N,COLUMN 9*%
G36*
X79878986Y-117286057D02*
G01*
X79880615Y-117287365D01*
X80048735Y-117448976D01*
X80051671Y-117453549D01*
X80454754Y-118606119D01*
X80454250Y-118615059D01*
X80448193Y-118620788D01*
X79723094Y-118921558D01*
X79714139Y-118921563D01*
X79714121Y-118921555D01*
X78993316Y-118622005D01*
X78986991Y-118615666D01*
X78987002Y-118606711D01*
X78988063Y-118604722D01*
X79862765Y-117289320D01*
X79870199Y-117284330D01*
X79878986Y-117286057D01*
G37*
%TD.AperFunction*%
%TD*%
%TA.AperFunction,Conductor*%
%TO.N,COLUMN 10*%
G36*
X113107283Y-109643619D02*
G01*
X114968327Y-110239760D01*
X114975160Y-110245546D01*
X114976377Y-110252270D01*
X114831195Y-111484138D01*
X114826823Y-111491954D01*
X114820988Y-111494383D01*
X113563800Y-111647338D01*
X113555174Y-111644936D01*
X113551284Y-111639413D01*
X112957536Y-109851357D01*
X112958181Y-109842426D01*
X112959052Y-109840965D01*
X113094133Y-109648050D01*
X113101685Y-109643240D01*
X113107283Y-109643619D01*
G37*
%TD.AperFunction*%
%TD*%
%TA.AperFunction,Conductor*%
%TO.N,COLUMN 10*%
G36*
X114836605Y-111501298D02*
G01*
X114838435Y-111503128D01*
X115823189Y-112735055D01*
X115825678Y-112743657D01*
X115822855Y-112750064D01*
X114957796Y-113738704D01*
X114949769Y-113742674D01*
X114948991Y-113742700D01*
X114709609Y-113742700D01*
X114701336Y-113739273D01*
X114700804Y-113738705D01*
X114700804Y-113738704D01*
X113835743Y-112750064D01*
X113832875Y-112741582D01*
X113835408Y-112735057D01*
X114820162Y-111503131D01*
X114828003Y-111498809D01*
X114836605Y-111501298D01*
G37*
%TD.AperFunction*%
%TD*%
%TA.AperFunction,Conductor*%
%TO.N,COLUMN 10*%
G36*
X114957264Y-128296127D02*
G01*
X114957796Y-128296695D01*
X115822855Y-129285334D01*
X115825724Y-129293817D01*
X115823189Y-129300344D01*
X114838439Y-130532267D01*
X114830597Y-130536590D01*
X114821995Y-130534101D01*
X114820161Y-130532267D01*
X113835410Y-129300344D01*
X113832921Y-129291742D01*
X113835742Y-129285336D01*
X114700804Y-128296694D01*
X114708831Y-128292726D01*
X114709609Y-128292700D01*
X114948991Y-128292700D01*
X114957264Y-128296127D01*
G37*
%TD.AperFunction*%
%TD*%
%TA.AperFunction,Conductor*%
%TO.N,COLUMN 10*%
G36*
X114836605Y-130551298D02*
G01*
X114838435Y-130553128D01*
X115823189Y-131785055D01*
X115825678Y-131793657D01*
X115822855Y-131800064D01*
X114957796Y-132788704D01*
X114949769Y-132792674D01*
X114948991Y-132792700D01*
X114709609Y-132792700D01*
X114701336Y-132789273D01*
X114700804Y-132788705D01*
X114700804Y-132788704D01*
X113835743Y-131800064D01*
X113832875Y-131791582D01*
X113835408Y-131785057D01*
X114820162Y-130553131D01*
X114828003Y-130548809D01*
X114836605Y-130551298D01*
G37*
%TD.AperFunction*%
%TD*%
%TA.AperFunction,Conductor*%
%TO.N,COLUMN 11*%
G36*
X95786605Y-130551298D02*
G01*
X95788435Y-130553128D01*
X96773189Y-131785055D01*
X96775678Y-131793657D01*
X96772855Y-131800064D01*
X95907796Y-132788704D01*
X95899769Y-132792674D01*
X95898991Y-132792700D01*
X95659609Y-132792700D01*
X95651336Y-132789273D01*
X95650804Y-132788705D01*
X95650804Y-132788704D01*
X94785743Y-131800064D01*
X94782875Y-131791582D01*
X94785408Y-131785057D01*
X95770162Y-130553131D01*
X95778003Y-130548809D01*
X95786605Y-130551298D01*
G37*
%TD.AperFunction*%
%TD*%
%TA.AperFunction,Conductor*%
%TO.N,COLUMN 11*%
G36*
X84917163Y-117390676D02*
G01*
X84925394Y-117394201D01*
X84927484Y-117397134D01*
X85532779Y-118605326D01*
X85533421Y-118614258D01*
X85527559Y-118621028D01*
X85526808Y-118621371D01*
X84803779Y-118921833D01*
X84794825Y-118921843D01*
X84071779Y-118621366D01*
X84065455Y-118615028D01*
X84065466Y-118606073D01*
X84065804Y-118605332D01*
X84065807Y-118605326D01*
X84671034Y-117394348D01*
X84677796Y-117388483D01*
X84681631Y-117387883D01*
X84917163Y-117390676D01*
G37*
%TD.AperFunction*%
%TD*%
%TA.AperFunction,Conductor*%
%TO.N,COLUMN 11*%
G36*
X94125250Y-109661307D02*
G01*
X95933329Y-110239726D01*
X95940165Y-110245511D01*
X95941366Y-110252378D01*
X95781278Y-111484185D01*
X95776814Y-111491947D01*
X95770948Y-111494308D01*
X94513947Y-111631796D01*
X94505350Y-111629289D01*
X94501480Y-111623564D01*
X94462240Y-111494308D01*
X93966972Y-109862890D01*
X93967847Y-109853979D01*
X93968885Y-109852370D01*
X94112404Y-109665330D01*
X94120159Y-109660852D01*
X94125250Y-109661307D01*
G37*
%TD.AperFunction*%
%TD*%
%TA.AperFunction,Conductor*%
%TO.N,COLUMN 11*%
G36*
X95907264Y-128296127D02*
G01*
X95907796Y-128296695D01*
X96772855Y-129285334D01*
X96775724Y-129293817D01*
X96773189Y-129300344D01*
X95788439Y-130532267D01*
X95780597Y-130536590D01*
X95771995Y-130534101D01*
X95770161Y-130532267D01*
X94785410Y-129300344D01*
X94782921Y-129291742D01*
X94785742Y-129285336D01*
X95650804Y-128296694D01*
X95658831Y-128292726D01*
X95659609Y-128292700D01*
X95898991Y-128292700D01*
X95907264Y-128296127D01*
G37*
%TD.AperFunction*%
%TD*%
%TA.AperFunction,Conductor*%
%TO.N,COLUMN 11*%
G36*
X95786605Y-111501298D02*
G01*
X95788435Y-111503128D01*
X96773189Y-112735055D01*
X96775678Y-112743657D01*
X96772855Y-112750064D01*
X95907796Y-113738704D01*
X95899769Y-113742674D01*
X95898991Y-113742700D01*
X95659609Y-113742700D01*
X95651336Y-113739273D01*
X95650804Y-113738705D01*
X95650804Y-113738704D01*
X94785743Y-112750064D01*
X94782875Y-112741582D01*
X94785408Y-112735057D01*
X95770162Y-111503131D01*
X95778003Y-111498809D01*
X95786605Y-111501298D01*
G37*
%TD.AperFunction*%
%TD*%
%TA.AperFunction,Conductor*%
%TO.N,Row 3*%
G36*
X108785543Y-121404330D02*
G01*
X108789648Y-121408285D01*
X109150721Y-121986964D01*
X109152193Y-121995797D01*
X109151119Y-121998664D01*
X108957603Y-122361506D01*
X108950686Y-122367193D01*
X108947279Y-122367700D01*
X108710297Y-122367700D01*
X108702024Y-122364273D01*
X108700798Y-122362831D01*
X108699845Y-122361506D01*
X108438994Y-121998814D01*
X108436947Y-121990099D01*
X108438343Y-121986167D01*
X108769574Y-121408656D01*
X108776662Y-121403186D01*
X108785543Y-121404330D01*
G37*
%TD.AperFunction*%
%TD*%
%TA.AperFunction,Conductor*%
%TO.N,Row 3*%
G36*
X108954240Y-122760327D02*
G01*
X108957024Y-122764776D01*
X109142505Y-123301090D01*
X109141971Y-123310029D01*
X109135954Y-123315711D01*
X108833806Y-123441819D01*
X108824852Y-123441843D01*
X108824794Y-123441819D01*
X108522645Y-123315711D01*
X108516330Y-123309362D01*
X108516094Y-123301091D01*
X108701576Y-122764775D01*
X108707518Y-122758077D01*
X108712633Y-122756900D01*
X108945967Y-122756900D01*
X108954240Y-122760327D01*
G37*
%TD.AperFunction*%
%TD*%
%TA.AperFunction,Conductor*%
%TO.N,Row 3*%
G36*
X184985543Y-126166830D02*
G01*
X184989648Y-126170785D01*
X185350721Y-126749464D01*
X185352193Y-126758297D01*
X185351119Y-126761164D01*
X185157603Y-127124006D01*
X185150686Y-127129693D01*
X185147279Y-127130200D01*
X184910297Y-127130200D01*
X184902024Y-127126773D01*
X184900798Y-127125331D01*
X184899845Y-127124006D01*
X184638994Y-126761314D01*
X184636947Y-126752599D01*
X184638343Y-126748667D01*
X184969574Y-126171156D01*
X184976662Y-126165686D01*
X184985543Y-126166830D01*
G37*
%TD.AperFunction*%
%TD*%
%TA.AperFunction,Conductor*%
%TO.N,Row 3*%
G36*
X185154240Y-127472827D02*
G01*
X185157024Y-127477276D01*
X185342505Y-128013590D01*
X185341971Y-128022529D01*
X185335954Y-128028211D01*
X185033806Y-128154319D01*
X185024852Y-128154343D01*
X185024794Y-128154319D01*
X184722645Y-128028211D01*
X184716330Y-128021862D01*
X184716094Y-128013591D01*
X184901576Y-127477275D01*
X184907518Y-127470577D01*
X184912633Y-127469400D01*
X185145967Y-127469400D01*
X185154240Y-127472827D01*
G37*
%TD.AperFunction*%
%TD*%
%TA.AperFunction,Conductor*%
%TO.N,Row 3*%
G36*
X165935543Y-121404330D02*
G01*
X165939648Y-121408285D01*
X166300721Y-121986964D01*
X166302193Y-121995797D01*
X166301119Y-121998664D01*
X166107603Y-122361506D01*
X166100686Y-122367193D01*
X166097279Y-122367700D01*
X165860297Y-122367700D01*
X165852024Y-122364273D01*
X165850798Y-122362831D01*
X165849845Y-122361506D01*
X165588994Y-121998814D01*
X165586947Y-121990099D01*
X165588343Y-121986167D01*
X165919574Y-121408656D01*
X165926662Y-121403186D01*
X165935543Y-121404330D01*
G37*
%TD.AperFunction*%
%TD*%
%TA.AperFunction,Conductor*%
%TO.N,Row 3*%
G36*
X166104966Y-127482773D02*
G01*
X166107386Y-127486298D01*
X166341242Y-128013041D01*
X166341467Y-128021993D01*
X166335297Y-128028482D01*
X166335055Y-128028586D01*
X166033806Y-128154319D01*
X166024852Y-128154343D01*
X166024794Y-128154319D01*
X165721878Y-128027891D01*
X165715563Y-128021542D01*
X165715061Y-128014148D01*
X165852021Y-127488097D01*
X165857422Y-127480955D01*
X165863344Y-127479346D01*
X166096693Y-127479346D01*
X166104966Y-127482773D01*
G37*
%TD.AperFunction*%
%TD*%
%TA.AperFunction,Conductor*%
%TO.N,Row 3*%
G36*
X127835494Y-121403876D02*
G01*
X127839226Y-121407608D01*
X128200304Y-121986296D01*
X128201776Y-121995129D01*
X128200113Y-121998980D01*
X127957773Y-122362490D01*
X127950333Y-122367473D01*
X127948038Y-122367700D01*
X127710562Y-122367700D01*
X127702289Y-122364273D01*
X127700827Y-122362490D01*
X127620046Y-122241320D01*
X127458485Y-121998978D01*
X127456748Y-121990195D01*
X127458293Y-121986299D01*
X127819374Y-121407607D01*
X127826661Y-121402404D01*
X127835494Y-121403876D01*
G37*
%TD.AperFunction*%
%TD*%
%TA.AperFunction,Conductor*%
%TO.N,Row 3*%
G36*
X127954240Y-122760327D02*
G01*
X127957024Y-122764776D01*
X128142505Y-123301090D01*
X128141971Y-123310029D01*
X128135954Y-123315711D01*
X127833806Y-123441819D01*
X127824852Y-123441843D01*
X127824794Y-123441819D01*
X127522645Y-123315711D01*
X127516330Y-123309362D01*
X127516094Y-123301091D01*
X127701576Y-122764775D01*
X127707518Y-122758077D01*
X127712633Y-122756900D01*
X127945967Y-122756900D01*
X127954240Y-122760327D01*
G37*
%TD.AperFunction*%
%TD*%
%TA.AperFunction,Conductor*%
%TO.N,Row 3*%
G36*
X204035494Y-126166376D02*
G01*
X204039226Y-126170108D01*
X204400304Y-126748796D01*
X204401776Y-126757629D01*
X204400113Y-126761480D01*
X204157773Y-127124990D01*
X204150333Y-127129973D01*
X204148038Y-127130200D01*
X203910562Y-127130200D01*
X203902289Y-127126773D01*
X203900827Y-127124990D01*
X203820046Y-127003820D01*
X203658485Y-126761478D01*
X203656748Y-126752695D01*
X203658293Y-126748799D01*
X204019374Y-126170107D01*
X204026661Y-126164904D01*
X204035494Y-126166376D01*
G37*
%TD.AperFunction*%
%TD*%
%TA.AperFunction,Conductor*%
%TO.N,Row 3*%
G36*
X204154240Y-127472827D02*
G01*
X204157024Y-127477276D01*
X204342505Y-128013590D01*
X204341971Y-128022529D01*
X204335954Y-128028211D01*
X204033806Y-128154319D01*
X204024852Y-128154343D01*
X204024794Y-128154319D01*
X203722645Y-128028211D01*
X203716330Y-128021862D01*
X203716094Y-128013591D01*
X203901576Y-127477275D01*
X203907518Y-127470577D01*
X203912633Y-127469400D01*
X204145967Y-127469400D01*
X204154240Y-127472827D01*
G37*
%TD.AperFunction*%
%TD*%
%TA.AperFunction,Conductor*%
%TO.N,Row 3*%
G36*
X147054240Y-122760327D02*
G01*
X147057024Y-122764776D01*
X147242505Y-123301090D01*
X147241971Y-123310029D01*
X147235954Y-123315711D01*
X146933806Y-123441819D01*
X146924852Y-123441843D01*
X146924794Y-123441819D01*
X146622645Y-123315711D01*
X146616330Y-123309362D01*
X146616094Y-123301091D01*
X146801576Y-122764775D01*
X146807518Y-122758077D01*
X146812633Y-122756900D01*
X147045967Y-122756900D01*
X147054240Y-122760327D01*
G37*
%TD.AperFunction*%
%TD*%
%TA.AperFunction,Conductor*%
%TO.N,Row 3*%
G36*
X146885494Y-116641376D02*
G01*
X146889226Y-116645108D01*
X147250304Y-117223796D01*
X147251776Y-117232629D01*
X147250113Y-117236480D01*
X147007773Y-117599990D01*
X147000333Y-117604973D01*
X146998038Y-117605200D01*
X146760562Y-117605200D01*
X146752289Y-117601773D01*
X146750827Y-117599990D01*
X146670046Y-117478820D01*
X146508485Y-117236478D01*
X146506748Y-117227695D01*
X146508293Y-117223799D01*
X146869374Y-116645107D01*
X146876661Y-116639904D01*
X146885494Y-116641376D01*
G37*
%TD.AperFunction*%
%TD*%
%TA.AperFunction,Conductor*%
%TO.N,Row 3*%
G36*
X147004966Y-122770273D02*
G01*
X147007386Y-122773798D01*
X147241242Y-123300541D01*
X147241467Y-123309493D01*
X147235297Y-123315982D01*
X147235055Y-123316086D01*
X146933806Y-123441819D01*
X146924852Y-123441843D01*
X146924794Y-123441819D01*
X146621878Y-123315391D01*
X146615563Y-123309042D01*
X146615061Y-123301648D01*
X146752021Y-122775597D01*
X146757422Y-122768455D01*
X146763344Y-122766846D01*
X146996693Y-122766846D01*
X147004966Y-122770273D01*
G37*
%TD.AperFunction*%
%TD*%
%TA.AperFunction,Conductor*%
%TO.N,Row 4*%
G36*
X146885494Y-135691376D02*
G01*
X146889226Y-135695108D01*
X147250304Y-136273796D01*
X147251776Y-136282629D01*
X147250113Y-136286480D01*
X147007773Y-136649990D01*
X147000333Y-136654973D01*
X146998038Y-136655200D01*
X146760562Y-136655200D01*
X146752289Y-136651773D01*
X146750827Y-136649990D01*
X146670046Y-136528820D01*
X146508485Y-136286478D01*
X146506748Y-136277695D01*
X146508293Y-136273799D01*
X146869374Y-135695107D01*
X146876661Y-135689904D01*
X146885494Y-135691376D01*
G37*
%TD.AperFunction*%
%TD*%
%TA.AperFunction,Conductor*%
%TO.N,Row 4*%
G36*
X147004966Y-141770273D02*
G01*
X147007386Y-141773798D01*
X147241242Y-142300541D01*
X147241467Y-142309493D01*
X147235297Y-142315982D01*
X147235055Y-142316086D01*
X146933806Y-142441819D01*
X146924852Y-142441843D01*
X146924794Y-142441819D01*
X146621878Y-142315391D01*
X146615563Y-142309042D01*
X146615061Y-142301648D01*
X146752021Y-141775597D01*
X146757422Y-141768455D01*
X146763344Y-141766846D01*
X146996693Y-141766846D01*
X147004966Y-141770273D01*
G37*
%TD.AperFunction*%
%TD*%
%TA.AperFunction,Conductor*%
%TO.N,Row 4*%
G36*
X127835494Y-140453876D02*
G01*
X127839226Y-140457608D01*
X128200304Y-141036296D01*
X128201776Y-141045129D01*
X128200113Y-141048980D01*
X127957773Y-141412490D01*
X127950333Y-141417473D01*
X127948038Y-141417700D01*
X127710562Y-141417700D01*
X127702289Y-141414273D01*
X127700827Y-141412490D01*
X127620046Y-141291320D01*
X127458485Y-141048978D01*
X127456748Y-141040195D01*
X127458293Y-141036299D01*
X127819374Y-140457607D01*
X127826661Y-140452404D01*
X127835494Y-140453876D01*
G37*
%TD.AperFunction*%
%TD*%
%TA.AperFunction,Conductor*%
%TO.N,Row 4*%
G36*
X127954240Y-141759620D02*
G01*
X127957024Y-141764069D01*
X128142505Y-142300383D01*
X128141971Y-142309322D01*
X128135954Y-142315004D01*
X127833806Y-142441112D01*
X127824852Y-142441136D01*
X127824794Y-142441112D01*
X127522645Y-142315004D01*
X127516330Y-142308655D01*
X127516094Y-142300384D01*
X127701576Y-141764068D01*
X127707518Y-141757370D01*
X127712633Y-141756193D01*
X127945967Y-141756193D01*
X127954240Y-141759620D01*
G37*
%TD.AperFunction*%
%TD*%
%TA.AperFunction,Conductor*%
%TO.N,Row 4*%
G36*
X108785543Y-140454330D02*
G01*
X108789648Y-140458285D01*
X109150721Y-141036964D01*
X109152193Y-141045797D01*
X109151119Y-141048664D01*
X108957603Y-141411506D01*
X108950686Y-141417193D01*
X108947279Y-141417700D01*
X108710297Y-141417700D01*
X108702024Y-141414273D01*
X108700798Y-141412831D01*
X108699845Y-141411506D01*
X108438994Y-141048814D01*
X108436947Y-141040099D01*
X108438343Y-141036167D01*
X108769574Y-140458656D01*
X108776662Y-140453186D01*
X108785543Y-140454330D01*
G37*
%TD.AperFunction*%
%TD*%
%TA.AperFunction,Conductor*%
%TO.N,Row 4*%
G36*
X108954240Y-141760327D02*
G01*
X108957024Y-141764776D01*
X109142505Y-142301090D01*
X109141971Y-142310029D01*
X109135954Y-142315711D01*
X108833806Y-142441819D01*
X108824852Y-142441843D01*
X108824794Y-142441819D01*
X108522645Y-142315711D01*
X108516330Y-142309362D01*
X108516094Y-142301091D01*
X108701576Y-141764775D01*
X108707518Y-141758077D01*
X108712633Y-141756900D01*
X108945967Y-141756900D01*
X108954240Y-141760327D01*
G37*
%TD.AperFunction*%
%TD*%
%TA.AperFunction,Conductor*%
%TO.N,Row 4*%
G36*
X165935614Y-140454847D02*
G01*
X165940102Y-140459012D01*
X166300146Y-141036043D01*
X166301160Y-141037667D01*
X166302632Y-141046500D01*
X166302097Y-141048206D01*
X166157242Y-141410345D01*
X166150988Y-141416754D01*
X166146379Y-141417700D01*
X165910038Y-141417700D01*
X165901765Y-141414273D01*
X165900787Y-141413163D01*
X165618517Y-141048643D01*
X165616161Y-141040004D01*
X165617408Y-141036043D01*
X165919817Y-140459770D01*
X165926696Y-140454037D01*
X165935614Y-140454847D01*
G37*
%TD.AperFunction*%
%TD*%
%TA.AperFunction,Conductor*%
%TO.N,Row 4*%
G36*
X166154240Y-146472827D02*
G01*
X166157024Y-146477276D01*
X166342505Y-147013590D01*
X166341971Y-147022529D01*
X166335954Y-147028211D01*
X166033806Y-147154319D01*
X166024852Y-147154343D01*
X166024794Y-147154319D01*
X165722645Y-147028211D01*
X165716330Y-147021862D01*
X165716094Y-147013591D01*
X165901576Y-146477275D01*
X165907518Y-146470577D01*
X165912633Y-146469400D01*
X166145967Y-146469400D01*
X166154240Y-146472827D01*
G37*
%TD.AperFunction*%
%TD*%
%TA.AperFunction,Conductor*%
%TO.N,Row 4*%
G36*
X204035494Y-145216376D02*
G01*
X204039226Y-145220108D01*
X204400304Y-145798796D01*
X204401776Y-145807629D01*
X204400113Y-145811480D01*
X204157773Y-146174990D01*
X204150333Y-146179973D01*
X204148038Y-146180200D01*
X203910562Y-146180200D01*
X203902289Y-146176773D01*
X203900827Y-146174990D01*
X203820046Y-146053820D01*
X203658485Y-145811478D01*
X203656748Y-145802695D01*
X203658293Y-145798799D01*
X204019374Y-145220107D01*
X204026661Y-145214904D01*
X204035494Y-145216376D01*
G37*
%TD.AperFunction*%
%TD*%
%TA.AperFunction,Conductor*%
%TO.N,Row 4*%
G36*
X204154240Y-146472827D02*
G01*
X204157024Y-146477276D01*
X204342505Y-147013590D01*
X204341971Y-147022529D01*
X204335954Y-147028211D01*
X204033806Y-147154319D01*
X204024852Y-147154343D01*
X204024794Y-147154319D01*
X203722645Y-147028211D01*
X203716330Y-147021862D01*
X203716094Y-147013591D01*
X203901576Y-146477275D01*
X203907518Y-146470577D01*
X203912633Y-146469400D01*
X204145967Y-146469400D01*
X204154240Y-146472827D01*
G37*
%TD.AperFunction*%
%TD*%
%TA.AperFunction,Conductor*%
%TO.N,Row 4*%
G36*
X184985543Y-145216830D02*
G01*
X184989648Y-145220785D01*
X185350721Y-145799464D01*
X185352193Y-145808297D01*
X185351119Y-145811164D01*
X185157603Y-146174006D01*
X185150686Y-146179693D01*
X185147279Y-146180200D01*
X184910297Y-146180200D01*
X184902024Y-146176773D01*
X184900798Y-146175331D01*
X184899845Y-146174006D01*
X184638994Y-145811314D01*
X184636947Y-145802599D01*
X184638343Y-145798667D01*
X184969574Y-145221156D01*
X184976662Y-145215686D01*
X184985543Y-145216830D01*
G37*
%TD.AperFunction*%
%TD*%
%TA.AperFunction,Conductor*%
%TO.N,Row 4*%
G36*
X185154240Y-146472827D02*
G01*
X185157024Y-146477276D01*
X185342505Y-147013590D01*
X185341971Y-147022529D01*
X185335954Y-147028211D01*
X185033806Y-147154319D01*
X185024852Y-147154343D01*
X185024794Y-147154319D01*
X184722645Y-147028211D01*
X184716330Y-147021862D01*
X184716094Y-147013591D01*
X184901576Y-146477275D01*
X184907518Y-146470577D01*
X184912633Y-146469400D01*
X185145967Y-146469400D01*
X185154240Y-146472827D01*
G37*
%TD.AperFunction*%
%TD*%
%TA.AperFunction,Conductor*%
%TO.N,Row 5*%
G36*
X109172954Y-165485255D02*
G01*
X109180115Y-165490630D01*
X109181379Y-165499495D01*
X109181290Y-165499822D01*
X108991470Y-166159864D01*
X108985890Y-166166867D01*
X108979269Y-166168291D01*
X108708237Y-166146037D01*
X108700921Y-166142649D01*
X108532634Y-165974362D01*
X108529207Y-165966089D01*
X108530043Y-165961747D01*
X108714657Y-165499822D01*
X108758738Y-165389526D01*
X108764989Y-165383117D01*
X108772505Y-165382537D01*
X109172954Y-165485255D01*
G37*
%TD.AperFunction*%
%TD*%
%TA.AperFunction,Conductor*%
%TO.N,Row 5*%
G36*
X72414885Y-173045681D02*
G01*
X72420902Y-173051363D01*
X72565415Y-173348681D01*
X72632939Y-173487603D01*
X72668979Y-173561749D01*
X72669513Y-173570688D01*
X72666729Y-173575137D01*
X72501737Y-173740129D01*
X72493464Y-173743556D01*
X72488350Y-173742379D01*
X72116726Y-173561749D01*
X71977963Y-173494302D01*
X71972021Y-173487603D01*
X71972257Y-173479331D01*
X72096737Y-173176507D01*
X72103050Y-173170160D01*
X72405931Y-173045657D01*
X72414885Y-173045681D01*
G37*
%TD.AperFunction*%
%TD*%
%TA.AperFunction,Conductor*%
%TO.N,Row 5*%
G36*
X91275255Y-170368493D02*
G01*
X91742707Y-170610682D01*
X91748477Y-170617529D01*
X91749025Y-170621069D01*
X91749025Y-170858875D01*
X91745598Y-170867148D01*
X91745314Y-170867423D01*
X91488727Y-171107250D01*
X91480343Y-171110395D01*
X91473706Y-171108053D01*
X91153737Y-170867423D01*
X90992286Y-170746004D01*
X90987734Y-170738295D01*
X90989967Y-170729625D01*
X91260543Y-170371824D01*
X91268266Y-170367293D01*
X91275255Y-170368493D01*
G37*
%TD.AperFunction*%
%TD*%
M02*
