%TF.GenerationSoftware,KiCad,Pcbnew,8.0.0*%
%TF.CreationDate,2024-03-11T23:33:39-04:00*%
%TF.ProjectId,Kiwi MKIII Left,4b697769-204d-44b4-9949-49204c656674,rev?*%
%TF.SameCoordinates,Original*%
%TF.FileFunction,Paste,Bot*%
%TF.FilePolarity,Positive*%
%FSLAX46Y46*%
G04 Gerber Fmt 4.6, Leading zero omitted, Abs format (unit mm)*
G04 Created by KiCad (PCBNEW 8.0.0) date 2024-03-11 23:33:39*
%MOMM*%
%LPD*%
G01*
G04 APERTURE LIST*
G04 Aperture macros list*
%AMRoundRect*
0 Rectangle with rounded corners*
0 $1 Rounding radius*
0 $2 $3 $4 $5 $6 $7 $8 $9 X,Y pos of 4 corners*
0 Add a 4 corners polygon primitive as box body*
4,1,4,$2,$3,$4,$5,$6,$7,$8,$9,$2,$3,0*
0 Add four circle primitives for the rounded corners*
1,1,$1+$1,$2,$3*
1,1,$1+$1,$4,$5*
1,1,$1+$1,$6,$7*
1,1,$1+$1,$8,$9*
0 Add four rect primitives between the rounded corners*
20,1,$1+$1,$2,$3,$4,$5,0*
20,1,$1+$1,$4,$5,$6,$7,0*
20,1,$1+$1,$6,$7,$8,$9,0*
20,1,$1+$1,$8,$9,$2,$3,0*%
%AMRotRect*
0 Rectangle, with rotation*
0 The origin of the aperture is its center*
0 $1 length*
0 $2 width*
0 $3 Rotation angle, in degrees counterclockwise*
0 Add horizontal line*
21,1,$1,$2,0,0,$3*%
G04 Aperture macros list end*
%ADD10RoundRect,0.250000X-1.025000X-1.000000X1.025000X-1.000000X1.025000X1.000000X-1.025000X1.000000X0*%
%ADD11RoundRect,0.250000X-1.260931X-0.678733X0.709656X-1.243790X1.260931X0.678733X-0.709656X1.243790X0*%
%ADD12R,0.750000X1.200000*%
%ADD13RotRect,0.750000X1.200000X344.000000*%
G04 APERTURE END LIST*
D10*
%TO.C,SW203*%
X258129300Y-111492700D03*
X270129300Y-113692700D03*
%TD*%
%TO.C,SW209*%
X258129300Y-130542700D03*
X270129300Y-132742700D03*
%TD*%
%TO.C,SW201*%
X220029300Y-116255200D03*
X232029300Y-118455200D03*
%TD*%
%TO.C,SW207*%
X220029300Y-135305200D03*
X232029300Y-137505200D03*
%TD*%
%TO.C,SW208*%
X239079300Y-135305200D03*
X251079300Y-137505200D03*
%TD*%
%TO.C,SW212*%
X315279300Y-130542700D03*
X327279300Y-132742700D03*
%TD*%
%TO.C,SW206*%
X315279300Y-111492700D03*
X327279300Y-113692700D03*
%TD*%
%TO.C,SW202*%
X239079300Y-116255200D03*
X251079300Y-118455200D03*
%TD*%
%TO.C,SW205*%
X296229300Y-111492700D03*
X308229300Y-113692700D03*
%TD*%
D11*
%TO.C,SW214*%
X335380743Y-163622508D03*
X346309481Y-169044932D03*
%TD*%
D10*
%TO.C,SW211*%
X296229300Y-130542700D03*
X308229300Y-132742700D03*
%TD*%
%TO.C,SW210*%
X277179300Y-125780200D03*
X289179300Y-127980200D03*
%TD*%
D11*
%TO.C,SW213*%
X317068708Y-158385399D03*
X327997446Y-163807823D03*
%TD*%
D10*
%TO.C,SW204*%
X277179300Y-106730200D03*
X289179300Y-108930200D03*
%TD*%
D12*
%TO.C,D208*%
X252079300Y-145205200D03*
X252079300Y-141805200D03*
%TD*%
%TO.C,D206*%
X328279300Y-121392700D03*
X328279300Y-117992700D03*
%TD*%
%TO.C,D211*%
X309229300Y-140442700D03*
X309229300Y-137042700D03*
%TD*%
%TO.C,D201*%
X233029300Y-126155200D03*
X233029300Y-122755200D03*
%TD*%
%TO.C,D203*%
X271129300Y-121392700D03*
X271129300Y-117992700D03*
%TD*%
%TO.C,D202*%
X252079300Y-126155200D03*
X252079300Y-122755200D03*
%TD*%
%TO.C,D205*%
X309229300Y-121392700D03*
X309229300Y-117992700D03*
%TD*%
%TO.C,D207*%
X233029300Y-145205200D03*
X233029300Y-141805200D03*
%TD*%
%TO.C,D209*%
X271129300Y-140442700D03*
X271129300Y-137042700D03*
%TD*%
D13*
%TO.C,D213*%
X326528862Y-171441968D03*
X327466030Y-168173678D03*
%TD*%
D12*
%TO.C,D210*%
X290179300Y-135680200D03*
X290179300Y-132280200D03*
%TD*%
D13*
%TO.C,D214*%
X344840897Y-176679077D03*
X345778065Y-173410787D03*
%TD*%
D12*
%TO.C,D212*%
X328279300Y-140442700D03*
X328279300Y-137042700D03*
%TD*%
%TO.C,D204*%
X290179300Y-116630200D03*
X290179300Y-113230200D03*
%TD*%
M02*
