M48
; DRILL file {KiCad 8.0.0} date 2024-03-11T23:34:04-0400
; FORMAT={-:-/ absolute / metric / decimal}
; #@! TF.CreationDate,2024-03-11T23:34:04-04:00
; #@! TF.GenerationSoftware,Kicad,Pcbnew,8.0.0
; #@! TF.FileFunction,Plated,1,2,PTH
FMAT,2
METRIC
; #@! TA.AperFunction,Plated,PTH,ViaDrill
T1C0.330
; #@! TA.AperFunction,Plated,PTH,ComponentDrill
T2C0.650
; #@! TA.AperFunction,Plated,PTH,ComponentDrill
T3C1.100
%
G90
G05
T1
X233.029Y-128.155
X233.029Y-147.155
X252.029Y-128.155
X252.029Y-147.155
X271.129Y-123.443
X271.129Y-142.443
X290.179Y-137.63
X290.229Y-123.443
X309.229Y-123.443
X309.229Y-142.443
X326.529Y-173.442
X328.279Y-123.393
X328.279Y-142.393
X344.841Y-178.679
T2
X359.779Y-126.273
X359.779Y-127.543
T3
X333.259Y-118.923
X333.259Y-134.163
X335.799Y-118.923
X335.799Y-134.163
X338.339Y-118.923
X338.339Y-134.163
X340.879Y-118.923
X340.879Y-134.163
X343.419Y-118.923
X343.419Y-134.163
X345.959Y-118.923
X345.959Y-134.163
X348.499Y-118.923
X348.499Y-134.163
X351.039Y-118.923
X351.039Y-134.163
X353.579Y-118.923
X353.579Y-134.163
X356.119Y-118.923
X356.119Y-134.163
X358.659Y-118.923
X358.659Y-134.163
X361.199Y-118.923
X361.199Y-134.163
M30
