M48
; DRILL file {KiCad 8.0.0} date 2024-03-11T23:34:04-0400
; FORMAT={-:-/ absolute / metric / decimal}
; #@! TF.CreationDate,2024-03-11T23:34:04-04:00
; #@! TF.GenerationSoftware,Kicad,Pcbnew,8.0.0
; #@! TF.FileFunction,NonPlated,1,2,NPTH
FMAT,2
METRIC
; #@! TA.AperFunction,NonPlated,NPTH,ComponentDrill
T1C0.900
; #@! TA.AperFunction,NonPlated,NPTH,ComponentDrill
T2C1.900
; #@! TA.AperFunction,NonPlated,NPTH,ComponentDrill
T3C3.050
; #@! TA.AperFunction,NonPlated,NPTH,ComponentDrill
T4C3.450
%
G90
G05
T1
X359.434Y-139.48
X359.434Y-142.48
T2
X218.029Y-122.255
X218.029Y-141.305
X229.029Y-122.255
X229.029Y-141.305
X237.079Y-122.255
X237.079Y-141.305
X248.079Y-122.255
X248.079Y-141.305
X256.129Y-117.493
X256.129Y-136.543
X267.129Y-117.493
X267.129Y-136.543
X275.179Y-112.73
X275.179Y-131.78
X286.179Y-112.73
X286.179Y-131.78
X294.229Y-117.493
X294.229Y-136.543
X305.229Y-117.493
X305.229Y-136.543
X313.279Y-117.493
X313.279Y-136.543
X313.492Y-163.602
X324.066Y-166.634
X324.279Y-117.493
X324.279Y-136.543
X331.804Y-168.839
X342.378Y-171.871
T3
X223.529Y-116.355
X223.529Y-135.405
X228.529Y-118.455
X228.529Y-137.505
X242.579Y-116.355
X242.579Y-135.405
X247.579Y-118.455
X247.579Y-137.505
X261.629Y-111.593
X261.629Y-130.643
X266.629Y-113.693
X266.629Y-132.743
X280.679Y-106.83
X280.679Y-125.88
X285.679Y-108.93
X285.679Y-127.98
X299.729Y-111.593
X299.729Y-130.643
X304.729Y-113.693
X304.729Y-132.743
X318.779Y-111.593
X318.779Y-130.643
X320.406Y-159.446
X323.779Y-113.693
X323.779Y-132.743
X324.633Y-162.843
X338.718Y-164.683
X342.945Y-168.08
T4
X223.529Y-122.255
X223.529Y-141.305
X242.579Y-122.255
X242.579Y-141.305
X261.629Y-117.493
X261.629Y-136.543
X280.679Y-112.73
X280.679Y-131.78
X299.729Y-117.493
X299.729Y-136.543
X318.779Y-117.493
X318.779Y-136.543
X318.779Y-165.118
X337.091Y-170.355
M30
