%TF.GenerationSoftware,KiCad,Pcbnew,8.0.0*%
%TF.CreationDate,2024-03-11T23:33:39-04:00*%
%TF.ProjectId,Kiwi MKIII Left,4b697769-204d-44b4-9949-49204c656674,rev?*%
%TF.SameCoordinates,Original*%
%TF.FileFunction,Soldermask,Top*%
%TF.FilePolarity,Negative*%
%FSLAX46Y46*%
G04 Gerber Fmt 4.6, Leading zero omitted, Abs format (unit mm)*
G04 Created by KiCad (PCBNEW 8.0.0) date 2024-03-11 23:33:39*
%MOMM*%
%LPD*%
G01*
G04 APERTURE LIST*
%ADD10C,1.900000*%
%ADD11C,3.050000*%
%ADD12C,3.450000*%
%ADD13R,0.800000X1.000000*%
%ADD14C,0.900000*%
%ADD15R,1.500000X0.700000*%
%ADD16R,1.000000X1.000000*%
%ADD17O,1.000000X1.000000*%
%ADD18R,1.600000X1.600000*%
%ADD19C,1.600000*%
G04 APERTURE END LIST*
D10*
%TO.C,SW203*%
X256129300Y-117492700D03*
D11*
X261629300Y-111592700D03*
D12*
X261629300Y-117492700D03*
D11*
X266629300Y-113692700D03*
D10*
X267129300Y-117492700D03*
%TD*%
%TO.C,SW209*%
X256129300Y-136542700D03*
D11*
X261629300Y-130642700D03*
D12*
X261629300Y-136542700D03*
D11*
X266629300Y-132742700D03*
D10*
X267129300Y-136542700D03*
%TD*%
%TO.C,SW201*%
X218029300Y-122255200D03*
D11*
X223529300Y-116355200D03*
D12*
X223529300Y-122255200D03*
D11*
X228529300Y-118455200D03*
D10*
X229029300Y-122255200D03*
%TD*%
%TO.C,SW207*%
X218029300Y-141305200D03*
D11*
X223529300Y-135405200D03*
D12*
X223529300Y-141305200D03*
D11*
X228529300Y-137505200D03*
D10*
X229029300Y-141305200D03*
%TD*%
%TO.C,SW208*%
X237079300Y-141305200D03*
D11*
X242579300Y-135405200D03*
D12*
X242579300Y-141305200D03*
D11*
X247579300Y-137505200D03*
D10*
X248079300Y-141305200D03*
%TD*%
%TO.C,SW212*%
X313279300Y-136542700D03*
D11*
X318779300Y-130642700D03*
D12*
X318779300Y-136542700D03*
D11*
X323779300Y-132742700D03*
D10*
X324279300Y-136542700D03*
%TD*%
%TO.C,SW206*%
X313279300Y-117492700D03*
D11*
X318779300Y-111592700D03*
D12*
X318779300Y-117492700D03*
D11*
X323779300Y-113692700D03*
D10*
X324279300Y-117492700D03*
%TD*%
D13*
%TO.C,SW215*%
X358324307Y-144630200D03*
X360534307Y-144630200D03*
D14*
X359434307Y-142480200D03*
X359434307Y-139480200D03*
D13*
X358324307Y-137330200D03*
X360534307Y-137330200D03*
D15*
X357674307Y-143230200D03*
X357674307Y-140230200D03*
X357674307Y-138730200D03*
%TD*%
D10*
%TO.C,SW202*%
X237079300Y-122255200D03*
D11*
X242579300Y-116355200D03*
D12*
X242579300Y-122255200D03*
D11*
X247579300Y-118455200D03*
D10*
X248079300Y-122255200D03*
%TD*%
D16*
%TO.C,BT201*%
X359779300Y-127542700D03*
D17*
X359779300Y-126272700D03*
%TD*%
D10*
%TO.C,SW205*%
X294229300Y-117492700D03*
D11*
X299729300Y-111592700D03*
D12*
X299729300Y-117492700D03*
D11*
X304729300Y-113692700D03*
D10*
X305229300Y-117492700D03*
%TD*%
%TO.C,SW214*%
X331804396Y-168838804D03*
D11*
X338717595Y-164683365D03*
D12*
X337091335Y-170354809D03*
D11*
X342945064Y-168080201D03*
D10*
X342378274Y-171870814D03*
%TD*%
%TO.C,SW211*%
X294229300Y-136542700D03*
D11*
X299729300Y-130642700D03*
D12*
X299729300Y-136542700D03*
D11*
X304729300Y-132742700D03*
D10*
X305229300Y-136542700D03*
%TD*%
%TO.C,SW210*%
X275179300Y-131780200D03*
D11*
X280679300Y-125880200D03*
D12*
X280679300Y-131780200D03*
D11*
X285679300Y-127980200D03*
D10*
X286179300Y-131780200D03*
%TD*%
%TO.C,SW213*%
X313492361Y-163601695D03*
D11*
X320405560Y-159446256D03*
D12*
X318779300Y-165117700D03*
D11*
X324633029Y-162843092D03*
D10*
X324066239Y-166633705D03*
%TD*%
D18*
%TO.C,U201*%
X361199300Y-118922700D03*
D19*
X358659300Y-118922700D03*
X356119300Y-118922700D03*
X353579300Y-118922700D03*
X351039300Y-118922700D03*
X348499300Y-118922700D03*
X345959300Y-118922700D03*
X343419300Y-118922700D03*
X340879300Y-118922700D03*
X338339300Y-118922700D03*
X335799300Y-118922700D03*
X333259300Y-118922700D03*
X333259300Y-134162700D03*
X335799300Y-134162700D03*
X338339300Y-134162700D03*
X340879300Y-134162700D03*
X343419300Y-134162700D03*
X345959300Y-134162700D03*
X348499300Y-134162700D03*
X351039300Y-134162700D03*
X353579300Y-134162700D03*
X356119300Y-134162700D03*
X358659300Y-134162700D03*
X361199300Y-134162700D03*
%TD*%
D10*
%TO.C,SW204*%
X275179300Y-112730200D03*
D11*
X280679300Y-106830200D03*
D12*
X280679300Y-112730200D03*
D11*
X285679300Y-108930200D03*
D10*
X286179300Y-112730200D03*
%TD*%
M02*
