M48
; DRILL file {KiCad 8.0.0} date 2024-03-11T23:34:30-0400
; FORMAT={-:-/ absolute / metric / decimal}
; #@! TF.CreationDate,2024-03-11T23:34:30-04:00
; #@! TF.GenerationSoftware,Kicad,Pcbnew,8.0.0
; #@! TF.FileFunction,NonPlated,1,2,NPTH
FMAT,2
METRIC
; #@! TA.AperFunction,NonPlated,NPTH,ComponentDrill
T1C0.900
; #@! TA.AperFunction,NonPlated,NPTH,ComponentDrill
T2C1.900
; #@! TA.AperFunction,NonPlated,NPTH,ComponentDrill
T3C3.050
; #@! TA.AperFunction,NonPlated,NPTH,ComponentDrill
T4C3.450
%
G90
G05
T1
X58.624Y-139.48
X58.624Y-142.48
T2
X75.728Y-171.871
X86.302Y-168.839
X93.779Y-117.493
X93.779Y-136.543
X93.992Y-166.634
X104.566Y-163.602
X104.779Y-117.493
X104.779Y-136.543
X112.829Y-117.493
X112.829Y-136.543
X123.829Y-117.493
X123.829Y-136.543
X131.879Y-112.73
X131.879Y-131.78
X142.879Y-112.73
X142.879Y-131.78
X150.929Y-117.493
X150.929Y-136.543
X161.929Y-117.493
X161.929Y-136.543
X169.979Y-122.255
X169.979Y-141.305
X180.979Y-122.255
X180.979Y-141.305
X189.029Y-122.255
X189.029Y-141.305
X200.029Y-122.255
X200.029Y-141.305
T3
X79.389Y-164.683
X84.774Y-165.324
X97.653Y-159.446
X99.279Y-111.593
X99.279Y-130.643
X103.038Y-160.087
X104.279Y-113.693
X104.279Y-132.743
X118.329Y-111.593
X118.329Y-130.643
X123.329Y-113.693
X123.329Y-132.743
X137.379Y-106.83
X137.379Y-125.88
X142.379Y-108.93
X142.379Y-127.98
X156.429Y-111.593
X156.429Y-130.643
X161.429Y-113.693
X161.429Y-132.743
X175.479Y-116.355
X175.479Y-135.405
X180.479Y-118.455
X180.479Y-137.505
X194.529Y-116.355
X194.529Y-135.405
X199.529Y-118.455
X199.529Y-137.505
T4
X81.015Y-170.355
X99.279Y-117.493
X99.279Y-136.543
X99.279Y-165.118
X118.329Y-117.493
X118.329Y-136.543
X137.379Y-112.73
X137.379Y-131.78
X156.429Y-117.493
X156.429Y-136.543
X175.479Y-122.255
X175.479Y-141.305
X194.529Y-122.255
X194.529Y-141.305
M30
