%TF.GenerationSoftware,KiCad,Pcbnew,8.0.0*%
%TF.CreationDate,2024-03-11T23:34:34-04:00*%
%TF.ProjectId,Kiwi MKIII Right,4b697769-204d-44b4-9949-492052696768,rev?*%
%TF.SameCoordinates,Original*%
%TF.FileFunction,Paste,Bot*%
%TF.FilePolarity,Positive*%
%FSLAX46Y46*%
G04 Gerber Fmt 4.6, Leading zero omitted, Abs format (unit mm)*
G04 Created by KiCad (PCBNEW 8.0.0) date 2024-03-11 23:34:34*
%MOMM*%
%LPD*%
G01*
G04 APERTURE LIST*
G04 Aperture macros list*
%AMRoundRect*
0 Rectangle with rounded corners*
0 $1 Rounding radius*
0 $2 $3 $4 $5 $6 $7 $8 $9 X,Y pos of 4 corners*
0 Add a 4 corners polygon primitive as box body*
4,1,4,$2,$3,$4,$5,$6,$7,$8,$9,$2,$3,0*
0 Add four circle primitives for the rounded corners*
1,1,$1+$1,$2,$3*
1,1,$1+$1,$4,$5*
1,1,$1+$1,$6,$7*
1,1,$1+$1,$8,$9*
0 Add four rect primitives between the rounded corners*
20,1,$1+$1,$2,$3,$4,$5,0*
20,1,$1+$1,$4,$5,$6,$7,0*
20,1,$1+$1,$6,$7,$8,$9,0*
20,1,$1+$1,$8,$9,$2,$3,0*%
%AMRotRect*
0 Rectangle, with rotation*
0 The origin of the aperture is its center*
0 $1 length*
0 $2 width*
0 $3 Rotation angle, in degrees counterclockwise*
0 Add horizontal line*
21,1,$1,$2,0,0,$3*%
G04 Aperture macros list end*
%ADD10RoundRect,0.250000X-1.025000X-1.000000X1.025000X-1.000000X1.025000X1.000000X-1.025000X1.000000X0*%
%ADD11RoundRect,0.250000X-0.709656X-1.243790X1.260931X-0.678733X0.709656X1.243790X-1.260931X0.678733X0*%
%ADD12R,0.750000X1.200000*%
%ADD13RotRect,0.750000X1.200000X16.000000*%
G04 APERTURE END LIST*
D10*
%TO.C,SW310*%
X133879300Y-125780200D03*
X145879300Y-127980200D03*
%TD*%
%TO.C,SW303*%
X152929300Y-111492700D03*
X164929300Y-113692700D03*
%TD*%
%TO.C,SW302*%
X171979300Y-116255200D03*
X183979300Y-118455200D03*
%TD*%
%TO.C,SW305*%
X114829300Y-111492700D03*
X126829300Y-113692700D03*
%TD*%
%TO.C,SW304*%
X133879300Y-106730200D03*
X145879300Y-108930200D03*
%TD*%
%TO.C,SW309*%
X152929300Y-130542700D03*
X164929300Y-132742700D03*
%TD*%
%TO.C,SW307*%
X191029300Y-135305200D03*
X203029300Y-137505200D03*
%TD*%
%TO.C,SW311*%
X114829300Y-130542700D03*
X126829300Y-132742700D03*
%TD*%
D11*
%TO.C,SW313*%
X94261060Y-160314861D03*
X106402602Y-159121988D03*
%TD*%
D10*
%TO.C,SW308*%
X171979300Y-135305200D03*
X183979300Y-137505200D03*
%TD*%
%TO.C,SW312*%
X95779300Y-130542700D03*
X107779300Y-132742700D03*
%TD*%
D11*
%TO.C,SW314*%
X75997088Y-165551971D03*
X88138630Y-164359098D03*
%TD*%
D10*
%TO.C,SW301*%
X191029300Y-116255200D03*
X203029300Y-118455200D03*
%TD*%
%TO.C,SW306*%
X95779300Y-111492700D03*
X107779300Y-113692700D03*
%TD*%
D12*
%TO.C,D309*%
X165929300Y-140442700D03*
X165929300Y-137042700D03*
%TD*%
%TO.C,D301*%
X204029300Y-126155200D03*
X204029300Y-122755200D03*
%TD*%
%TO.C,D310*%
X146879300Y-135680200D03*
X146879300Y-132280200D03*
%TD*%
%TO.C,D312*%
X108779300Y-140442700D03*
X108779300Y-137042700D03*
%TD*%
D13*
%TO.C,D314*%
X90983912Y-170738955D03*
X90046744Y-167470665D03*
%TD*%
D12*
%TO.C,D304*%
X146879300Y-116630200D03*
X146879300Y-113230200D03*
%TD*%
%TO.C,D305*%
X127829300Y-121392700D03*
X127829300Y-117992700D03*
%TD*%
%TO.C,D303*%
X165929300Y-121392700D03*
X165929300Y-117992700D03*
%TD*%
D13*
%TO.C,D313*%
X109183912Y-165488955D03*
X108246744Y-162220665D03*
%TD*%
D12*
%TO.C,D311*%
X127829300Y-140442700D03*
X127829300Y-137042700D03*
%TD*%
%TO.C,D302*%
X184979300Y-126155200D03*
X184979300Y-122755200D03*
%TD*%
%TO.C,D307*%
X204029300Y-145205200D03*
X204029300Y-141805200D03*
%TD*%
%TO.C,D306*%
X108779300Y-121392700D03*
X108779300Y-117992700D03*
%TD*%
%TO.C,D308*%
X184979300Y-145205200D03*
X184979300Y-141805200D03*
%TD*%
M02*
