%TF.GenerationSoftware,KiCad,Pcbnew,8.0.0*%
%TF.CreationDate,2024-03-11T23:34:35-04:00*%
%TF.ProjectId,Kiwi MKIII Right,4b697769-204d-44b4-9949-492052696768,rev?*%
%TF.SameCoordinates,Original*%
%TF.FileFunction,Soldermask,Top*%
%TF.FilePolarity,Negative*%
%FSLAX46Y46*%
G04 Gerber Fmt 4.6, Leading zero omitted, Abs format (unit mm)*
G04 Created by KiCad (PCBNEW 8.0.0) date 2024-03-11 23:34:35*
%MOMM*%
%LPD*%
G01*
G04 APERTURE LIST*
%ADD10C,1.900000*%
%ADD11C,3.050000*%
%ADD12C,3.450000*%
%ADD13R,0.800000X1.000000*%
%ADD14C,0.900000*%
%ADD15R,1.500000X0.700000*%
%ADD16R,1.600000X1.600000*%
%ADD17C,1.600000*%
%ADD18R,1.000000X1.000000*%
%ADD19O,1.000000X1.000000*%
G04 APERTURE END LIST*
D10*
%TO.C,SW310*%
X131879300Y-131780200D03*
D11*
X137379300Y-125880200D03*
D12*
X137379300Y-131780200D03*
D11*
X142379300Y-127980200D03*
D10*
X142879300Y-131780200D03*
%TD*%
%TO.C,SW303*%
X150929300Y-117492700D03*
D11*
X156429300Y-111592700D03*
D12*
X156429300Y-117492700D03*
D11*
X161429300Y-113692700D03*
D10*
X161929300Y-117492700D03*
%TD*%
%TO.C,SW302*%
X169979300Y-122255200D03*
D11*
X175479300Y-116355200D03*
D12*
X175479300Y-122255200D03*
D11*
X180479300Y-118455200D03*
D10*
X180979300Y-122255200D03*
%TD*%
%TO.C,SW305*%
X112829300Y-117492700D03*
D11*
X118329300Y-111592700D03*
D12*
X118329300Y-117492700D03*
D11*
X123329300Y-113692700D03*
D10*
X123829300Y-117492700D03*
%TD*%
D13*
%TO.C,SW315*%
X59734293Y-137330200D03*
X57524293Y-137330200D03*
D14*
X58624293Y-139480200D03*
X58624293Y-142480200D03*
D13*
X59734293Y-144630200D03*
X57524293Y-144630200D03*
D15*
X60384293Y-138730200D03*
X60384293Y-141730200D03*
X60384293Y-143230200D03*
%TD*%
D10*
%TO.C,SW304*%
X131879300Y-112730200D03*
D11*
X137379300Y-106830200D03*
D12*
X137379300Y-112730200D03*
D11*
X142379300Y-108930200D03*
D10*
X142879300Y-112730200D03*
%TD*%
%TO.C,SW309*%
X150929300Y-136542700D03*
D11*
X156429300Y-130642700D03*
D12*
X156429300Y-136542700D03*
D11*
X161429300Y-132742700D03*
D10*
X161929300Y-136542700D03*
%TD*%
%TO.C,SW307*%
X189029300Y-141305200D03*
D11*
X194529300Y-135405200D03*
D12*
X194529300Y-141305200D03*
D11*
X199529300Y-137505200D03*
D10*
X200029300Y-141305200D03*
%TD*%
%TO.C,SW311*%
X112829300Y-136542700D03*
D11*
X118329300Y-130642700D03*
D12*
X118329300Y-136542700D03*
D11*
X123329300Y-132742700D03*
D10*
X123829300Y-136542700D03*
%TD*%
%TO.C,SW313*%
X93992361Y-166633705D03*
D11*
X97653040Y-159446256D03*
D12*
X99279300Y-165117700D03*
D11*
X103038187Y-160086719D03*
D10*
X104566239Y-163601695D03*
%TD*%
%TO.C,SW308*%
X169979300Y-141305200D03*
D11*
X175479300Y-135405200D03*
D12*
X175479300Y-141305200D03*
D11*
X180479300Y-137505200D03*
D10*
X180979300Y-141305200D03*
%TD*%
D16*
%TO.C,U301*%
X56859300Y-134162700D03*
D17*
X59399300Y-134162700D03*
X61939300Y-134162700D03*
X64479300Y-134162700D03*
X67019300Y-134162700D03*
X69559300Y-134162700D03*
X72099300Y-134162700D03*
X74639300Y-134162700D03*
X77179300Y-134162700D03*
X79719300Y-134162700D03*
X82259300Y-134162700D03*
X84799300Y-134162700D03*
X84799300Y-118922700D03*
X82259300Y-118922700D03*
X79719300Y-118922700D03*
X77179300Y-118922700D03*
X74639300Y-118922700D03*
X72099300Y-118922700D03*
X69559300Y-118922700D03*
X67019300Y-118922700D03*
X64479300Y-118922700D03*
X61939300Y-118922700D03*
X59399300Y-118922700D03*
X56859300Y-118922700D03*
%TD*%
D10*
%TO.C,SW312*%
X93779300Y-136542700D03*
D11*
X99279300Y-130642700D03*
D12*
X99279300Y-136542700D03*
D11*
X104279300Y-132742700D03*
D10*
X104779300Y-136542700D03*
%TD*%
D18*
%TO.C,BT301*%
X58279293Y-127167700D03*
D19*
X58279293Y-125897700D03*
%TD*%
D10*
%TO.C,SW314*%
X75728389Y-171870815D03*
D11*
X79389068Y-164683366D03*
D12*
X81015328Y-170354810D03*
D11*
X84774215Y-165323829D03*
D10*
X86302267Y-168838805D03*
%TD*%
%TO.C,SW301*%
X189029300Y-122255200D03*
D11*
X194529300Y-116355200D03*
D12*
X194529300Y-122255200D03*
D11*
X199529300Y-118455200D03*
D10*
X200029300Y-122255200D03*
%TD*%
%TO.C,SW306*%
X93779300Y-117492700D03*
D11*
X99279300Y-111592700D03*
D12*
X99279300Y-117492700D03*
D11*
X104279300Y-113692700D03*
D10*
X104779300Y-117492700D03*
%TD*%
M02*
