M48
; DRILL file {KiCad 8.0.0} date 2024-03-11T23:34:30-0400
; FORMAT={-:-/ absolute / metric / decimal}
; #@! TF.CreationDate,2024-03-11T23:34:30-04:00
; #@! TF.GenerationSoftware,Kicad,Pcbnew,8.0.0
; #@! TF.FileFunction,Plated,1,2,PTH
FMAT,2
METRIC
; #@! TA.AperFunction,Plated,PTH,ViaDrill
T1C0.330
; #@! TA.AperFunction,Plated,PTH,ComponentDrill
T2C0.650
; #@! TA.AperFunction,Plated,PTH,ComponentDrill
T3C1.100
%
G90
G05
T1
X72.099Y-173.173
X108.829Y-123.443
X108.829Y-142.443
X127.829Y-123.443
X127.829Y-142.442
X146.929Y-123.443
X146.929Y-142.443
X166.029Y-128.155
X166.029Y-147.155
X185.029Y-128.155
X185.029Y-147.155
X204.029Y-128.155
X204.029Y-147.155
T2
X58.279Y-125.898
X58.279Y-127.168
T3
X56.859Y-118.923
X56.859Y-134.163
X59.399Y-118.923
X59.399Y-134.163
X61.939Y-118.923
X61.939Y-134.163
X64.479Y-118.923
X64.479Y-134.163
X67.019Y-118.923
X67.019Y-134.163
X69.559Y-118.923
X69.559Y-134.163
X72.099Y-118.923
X72.099Y-134.163
X74.639Y-118.923
X74.639Y-134.163
X77.179Y-118.923
X77.179Y-134.163
X79.719Y-118.923
X79.719Y-134.163
X82.259Y-118.923
X82.259Y-134.163
X84.799Y-118.923
X84.799Y-134.163
M30
